<svg width="414" height="383" viewBox="0 0 414 383" fill="none" xmlns="http://www.w3.org/2000/svg">
<path d="M39.935 364.547H342.347C362.087 341.167 414.515 271.774 378.459 232.171C334.626 184.027 298.698 161.891 319.536 117.989C340.375 74.086 286.096 -0.594045 205.45 0.817955C124.804 2.22996 37.139 103.778 67.319 185.22C94.851 259.517 32.435 325.592 39.935 364.547Z" fill="url(#paint0_linear_9_421)"/>
<path opacity="0.8" d="M297.918 54.1259C298.196 54.7379 184.398 54.1259 184.398 54.1259C184.398 54.1259 189.961 41.3719 210.516 42.2899C210.516 42.2899 219.137 20.3199 237.038 20.0699C254.939 19.8199 259.415 35.6719 259.415 35.6719C259.415 35.6719 278.808 34.3939 282.786 47.8539C282.786 47.8539 294.652 46.9379 297.918 54.1259Z" fill="url(#paint1_linear_9_421)"/>
<path d="M202.218 164.089C248.31 164.089 285.675 132.386 285.675 93.2779C285.675 54.1701 248.31 22.4669 202.218 22.4669C156.126 22.4669 118.761 54.1701 118.761 93.2779C118.761 132.386 156.126 164.089 202.218 164.089Z" stroke="url(#paint2_linear_9_421)" stroke-width="1.1339" stroke-miterlimit="10" stroke-linecap="round" stroke-dasharray="3.76 3.76"/>
<path d="M207.268 382.861C311.907 382.861 396.734 374.959 396.734 365.211C396.734 355.463 311.907 347.561 207.268 347.561C102.629 347.561 17.802 355.463 17.802 365.211C17.802 374.959 102.629 382.861 207.268 382.861Z" fill="url(#paint3_linear_9_421)"/>
<path d="M366.78 284.535C366.78 284.535 363.448 345.616 321.634 358.591C321.634 358.591 309.002 323.797 366.78 284.535Z" fill="url(#paint4_linear_9_421)"/>
<path opacity="0.8" d="M383.393 238.621C367.728 241.272 360.166 260.54 360.166 260.54C339.611 259.622 334.048 272.376 334.048 272.376C334.048 272.376 362.168 272.527 390.418 272.604C391.687 260.487 389.898 248.813 383.393 238.621Z" fill="url(#paint5_linear_9_421)"/>
<path d="M0.692001 299.069C0.692001 299.069 32.659 356.163 77.203 357.332C77.203 357.332 72.337 320.934 0.692001 299.069Z" fill="url(#paint6_linear_9_421)"/>
<path d="M32.341 267.471C32.341 267.471 40.389 336.737 84.978 354.528C84.978 354.528 95.549 316.159 32.341 267.471Z" fill="url(#paint7_linear_9_421)"/>
<path opacity="0.8" d="M143.854 254.871C140.588 247.683 128.721 248.599 128.721 248.599C124.744 235.139 105.35 236.417 105.35 236.417C105.35 236.417 100.875 220.565 82.973 220.815C79.81 220.859 76.943 221.591 74.355 222.75C74.559 233.82 73.242 244.61 71.011 255.049C103.649 255.166 144.019 255.236 143.854 254.871Z" fill="url(#paint8_linear_9_421)"/>
<path d="M41.614 180.068C41.227 180.214 41.044 180.674 41.206 181.096C59.709 229.417 92.46 271.11 135.257 300.551C135.63 300.808 136.122 300.739 136.354 300.397C136.587 300.056 136.474 299.575 136.104 299.32C93.556 270.051 60.997 228.601 42.602 180.561C42.441 180.143 41.999 179.923 41.614 180.068Z" fill="url(#paint9_linear_9_421)"/>
<path d="M98.876 247.192C98.781 247.156 98.684 247.124 98.588 247.092C95.841 246.186 94.64 249.275 94.152 251.413C92.834 256.953 93.673 263.75 93.688 263.749C93.694 263.752 97.826 258.722 100.029 253.531C100.61 252.161 101.257 250.406 100.78 248.894C100.494 247.992 99.718 247.507 98.876 247.192Z" fill="url(#paint10_linear_9_421)"/>
<path d="M91.695 238.523C91.602 238.483 91.507 238.446 91.412 238.41C88.711 237.379 87.367 240.405 86.779 242.519C85.203 247.99 85.719 254.815 85.734 254.815C85.74 254.819 90.104 249.988 92.548 244.908C93.193 243.568 93.921 241.845 93.516 240.313C93.275 239.397 92.522 238.876 91.695 238.523Z" fill="url(#paint11_linear_9_421)"/>
<path d="M84.93 229.53C84.838 229.486 84.746 229.444 84.653 229.404C82.003 228.247 80.518 231.208 79.832 233.291C78.002 238.682 78.196 245.523 78.212 245.523C78.217 245.527 82.803 240.906 85.483 235.946C86.19 234.637 86.999 232.95 86.665 231.402C86.467 230.477 85.74 229.922 84.93 229.53Z" fill="url(#paint12_linear_9_421)"/>
<path d="M78.591 220.229C78.501 220.18 78.411 220.134 78.32 220.09C75.727 218.809 74.105 221.698 73.323 223.748C71.243 229.049 71.119 235.892 71.134 235.892C71.14 235.896 75.936 231.495 78.844 226.665C79.611 225.391 80.498 223.744 80.237 222.181C80.083 221.247 79.381 220.658 78.591 220.229Z" fill="url(#paint13_linear_9_421)"/>
<path d="M72.691 210.634C72.604 210.582 72.516 210.531 72.427 210.482C69.895 209.079 68.141 211.889 67.264 213.902C64.939 219.102 64.498 225.936 64.513 225.937C64.518 225.941 69.516 221.769 72.646 217.079C73.471 215.842 74.434 214.237 74.246 212.663C74.134 211.723 73.46 211.1 72.691 210.634Z" fill="url(#paint14_linear_9_421)"/>
<path d="M67.239 200.76C67.155 200.703 67.069 200.649 66.982 200.595C64.517 199.071 62.634 201.799 61.665 203.77C59.103 208.861 58.343 215.671 58.359 215.673C58.364 215.677 63.551 211.744 66.896 207.203C67.779 206.005 68.814 204.446 68.7 202.863C68.63 201.917 67.986 201.263 67.239 200.76Z" fill="url(#paint15_linear_9_421)"/>
<path d="M62.247 190.623C62.166 190.562 62.082 190.503 61.998 190.446C59.605 188.803 57.598 191.442 56.538 193.368C53.741 198.339 52.669 205.116 52.684 205.118C52.688 205.123 58.054 201.435 61.606 197.053C62.543 195.897 63.65 194.387 63.609 192.797C63.585 191.847 62.971 191.162 62.247 190.623Z" fill="url(#paint16_linear_9_421)"/>
<path d="M57.727 180.236C57.648 180.171 57.568 180.108 57.486 180.047C55.171 178.288 53.043 180.833 51.895 182.71C48.871 187.553 47.486 194.284 47.501 194.286C47.505 194.291 53.037 190.858 56.789 186.642C57.779 185.53 58.954 184.072 58.987 182.479C59.007 181.527 58.426 180.811 57.727 180.236Z" fill="url(#paint17_linear_9_421)"/>
<path d="M72.967 262.839C72.94 262.731 72.916 262.623 72.893 262.514C72.267 259.423 75.657 258.94 77.889 258.851C83.717 258.671 90.382 260.153 90.384 260.139C90.382 260.132 85.038 263.869 79.48 265.304C78.017 265.682 76.126 266.04 74.573 265.218C73.646 264.727 73.205 263.796 72.967 262.839Z" fill="url(#paint18_linear_9_421)"/>
<path d="M65.084 252.943C65.062 252.835 65.043 252.725 65.026 252.615C64.546 249.499 67.954 249.175 70.188 249.189C76.017 249.281 82.604 251.07 82.606 251.056C82.604 251.05 77.092 254.532 71.474 255.706C69.995 256.015 68.091 256.285 66.577 255.392C65.674 254.86 65.277 253.909 65.084 252.943Z" fill="url(#paint19_linear_9_421)"/>
<path d="M57.673 242.689C57.657 242.579 57.642 242.469 57.63 242.359C57.297 239.223 60.716 239.058 62.946 239.179C68.765 239.544 75.26 241.639 75.263 241.625C75.262 241.619 69.592 244.84 63.925 245.75C62.433 245.99 60.517 246.17 59.048 245.207C58.173 244.632 57.821 243.663 57.673 242.689Z" fill="url(#paint20_linear_9_421)"/>
<path d="M50.747 232.095C50.736 231.984 50.726 231.873 50.72 231.763C50.533 228.613 53.957 228.61 56.179 228.835C61.977 229.475 68.367 231.872 68.371 231.858C68.369 231.851 62.556 234.804 56.852 235.447C55.35 235.616 53.429 235.706 52.005 234.675C51.156 234.061 50.849 233.076 50.747 232.095Z" fill="url(#paint21_linear_9_421)"/>
<path d="M44.318 221.178C44.312 221.067 44.308 220.955 44.306 220.845C44.265 217.687 47.687 217.846 49.897 218.177C55.66 219.092 61.935 221.79 61.939 221.776C61.938 221.769 55.992 224.446 50.263 224.819C48.754 224.918 46.83 224.916 45.456 223.818C44.635 223.163 44.375 222.164 44.318 221.178Z" fill="url(#paint22_linear_9_421)"/>
<path d="M38.399 209.955C38.398 209.843 38.399 209.732 38.402 209.621C38.506 206.459 41.919 206.783 44.112 207.218C49.829 208.408 55.973 211.404 55.978 211.39C55.977 211.384 49.912 213.778 44.17 213.878C42.659 213.905 40.736 213.813 39.413 212.649C38.625 211.956 38.41 210.943 38.399 209.955Z" fill="url(#paint23_linear_9_421)"/>
<path d="M33.003 198.442C33.007 198.33 33.013 198.219 33.022 198.108C33.272 194.949 36.668 195.436 38.839 195.977C44.498 197.442 50.499 200.734 50.504 200.72C50.504 200.713 44.332 202.819 38.589 202.645C37.077 202.599 35.159 202.415 33.892 201.187C33.136 200.455 32.969 199.432 33.003 198.442Z" fill="url(#paint24_linear_9_421)"/>
<path d="M28.142 186.657C28.15 186.545 28.163 186.434 28.176 186.323C28.572 183.171 31.942 183.823 34.087 184.47C39.675 186.211 45.519 189.794 45.526 189.781C45.525 189.774 39.261 191.586 33.531 191.136C32.022 191.017 30.115 190.741 28.904 189.45C28.183 188.678 28.062 187.646 28.142 186.657Z" fill="url(#paint25_linear_9_421)"/>
<path d="M37.301 167.819C37.396 167.787 37.492 167.757 37.588 167.729C40.33 166.95 41.535 170.301 42.127 172.547C43.619 178.387 43.771 185.344 43.782 185.355C43.783 185.373 38.955 180.258 36.404 174.585C35.728 173.101 34.988 171.169 35.425 169.55C35.685 168.586 36.461 168.105 37.301 167.819Z" fill="url(#paint26_linear_9_421)"/>
<path d="M36.444 132.287L36.277 135.13C36.258 135.456 36.08 135.751 35.8 135.92L33.364 137.394C32.661 137.819 32.751 138.867 33.516 139.166L36.168 140.203C36.472 140.322 36.698 140.583 36.772 140.9L37.421 143.673C37.608 144.473 38.632 144.711 39.153 144.076L40.959 141.875C41.166 141.623 41.484 141.488 41.809 141.516L44.646 141.756C45.465 141.825 46.008 140.925 45.565 140.233L44.029 137.835C43.853 137.56 43.823 137.216 43.95 136.916L45.055 134.292C45.374 133.534 44.686 132.74 43.89 132.948L41.135 133.668C40.819 133.751 40.483 133.672 40.236 133.459L38.081 131.598C37.46 131.057 36.492 131.466 36.444 132.287Z" fill="url(#paint27_linear_9_421)"/>
<path d="M251.53 229.959L264.862 227.216L270.176 253.046L256.844 255.789L251.53 229.959Z" fill="url(#paint28_linear_9_421)"/>
<path d="M223.986 73.01L228.711 54.694C228.147 51.951 225.466 50.185 222.723 50.749L80.666 75.543C73.386 77.041 68.689 84.115 70.177 91.343L70.193 91.423L70.21 91.503L109.761 277.535L139.202 271.478L104.423 98.323L223.986 73.01Z" fill="url(#paint29_linear_9_421)"/>
<path d="M228.369 53.029C227.994 51.205 226.212 50.031 224.388 50.406L79.982 75.683L119.811 263.066L266.048 232.979L228.369 53.029Z" fill="url(#paint30_linear_9_421)"/>
<path opacity="0.3" d="M119.811 263.066L266.048 232.979L264.158 223.954C254.024 218.178 243.615 212.475 232.191 210.156C211.005 205.855 189.361 213.649 167.751 214.237C149.31 214.739 131.255 209.906 114.378 202.782C111.634 201.624 108.889 200.231 106.136 198.733L119.811 263.066Z" fill="url(#paint31_linear_9_421)"/>
<path d="M120.494 262.925C113.214 264.423 108.335 270.612 109.598 276.749L109.626 276.885C110.889 283.022 117.814 286.782 125.094 285.285L266.296 256.234L261.696 233.875L120.494 262.925Z" fill="url(#paint32_linear_9_421)"/>
<path d="M267.457 253.605L220.459 263.274L124.623 282.991C118.854 284.178 113.346 281.187 112.346 276.324L112.318 276.188C111.317 271.325 115.197 266.403 120.966 265.216L216.802 245.499L263.8 235.83L266.52 235.27L266.048 232.977L120.494 262.923C113.214 264.421 108.335 270.61 109.598 276.747L109.626 276.883C110.888 283.02 117.814 286.78 125.094 285.283L270.648 255.337L270.176 253.045L267.457 253.605Z" fill="url(#paint33_linear_9_421)"/>
<path d="M122.365 97.2899L115.623 144.502L124.869 142.6L126.042 133.64L143.527 130.043L148.141 137.813L157.45 135.898L132.618 95.1819L122.365 97.2899ZM126.981 126.103L129.555 106.43L139.686 123.489L126.981 126.103Z" fill="url(#paint34_linear_9_421)"/>
<path d="M202.998 118.986L214.126 95.3249L212.664 88.2169L187.379 93.4189L188.867 100.653L204.025 97.5339L193.023 121.169L194.485 128.277L220.021 123.023L218.533 115.79L202.998 118.986Z" fill="url(#paint35_linear_9_421)"/>
<path d="M164.364 128.965C162.905 129.265 161.965 130.692 162.265 132.151C162.565 133.61 163.992 134.55 165.451 134.25C166.91 133.95 167.85 132.523 167.55 131.064C167.249 129.605 165.823 128.665 164.364 128.965Z" fill="url(#paint36_linear_9_421)"/>
<path d="M174.109 126.96C172.65 127.26 171.71 128.687 172.01 130.146C172.31 131.605 173.737 132.545 175.196 132.245C176.655 131.945 177.595 130.518 177.295 129.059C176.995 127.6 175.568 126.66 174.109 126.96Z" fill="url(#paint37_linear_9_421)"/>
<path d="M183.854 124.955C182.395 125.255 181.455 126.682 181.755 128.141C182.055 129.6 183.482 130.54 184.941 130.24C186.4 129.94 187.34 128.513 187.04 127.054C186.74 125.595 185.314 124.655 183.854 124.955Z" fill="url(#paint38_linear_9_421)"/>
<path d="M229.14 249.001C194.335 255.149 159.216 262.383 124.808 270.466C159.612 264.31 194.734 257.092 229.14 249.001Z" fill="url(#paint39_linear_9_421)"/>
<path d="M261.754 248.515C226.948 254.663 191.829 261.897 157.422 269.98C192.226 263.825 227.349 256.607 261.754 248.515Z" fill="url(#paint40_linear_9_421)"/>
<path d="M319.314 327.054C318.602 323.932 315.932 321.736 312.859 321.736H264.023H175.671H167.659V364.547H175.671H264.023H312.851C315.93 364.547 318.58 362.327 319.313 359.204C322.492 345.641 320.815 333.634 319.314 327.054Z" fill="url(#paint41_linear_9_421)"/>
<path d="M123.427 325.896H66.499C65.399 325.896 64.507 324.965 64.507 323.816C64.507 322.667 65.399 321.736 66.499 321.736H178.885C179.136 321.736 179.358 321.901 179.441 322.149C180.433 325.092 186.023 343.387 179.434 364.123C179.354 364.376 179.125 364.548 178.87 364.548H66.499C65.399 364.548 64.507 363.617 64.507 362.467C64.507 361.318 65.399 360.387 66.499 360.387H123.401C123.667 360.387 123.903 360.199 123.974 359.931C128.526 342.702 124.77 328.873 123.987 326.32C123.909 326.065 123.683 325.896 123.427 325.896Z" fill="url(#paint42_linear_9_421)"/>
<path d="M198.676 354.973C202.392 343.279 199.239 332.962 198.68 331.302C198.633 331.163 198.508 331.069 198.366 331.069H246.379H302.006C302.148 331.069 302.273 331.162 302.32 331.302C302.879 332.962 306.032 343.279 302.316 354.973C302.271 355.115 302.142 355.213 301.998 355.213H246.38H198.358C198.502 355.213 198.631 355.116 198.676 354.973Z" fill="url(#paint43_linear_9_421)"/>
<path d="M175.542 325.896C175.542 325.896 180.795 341.06 175.542 360.386H66.963V325.896H175.542Z" fill="url(#paint44_linear_9_421)"/>
<path d="M163.963 333.603C133.977 331.983 103.545 331.996 73.558 333.603C103.545 335.21 133.977 335.223 163.963 333.603Z" fill="url(#paint45_linear_9_421)"/>
<path d="M106.758 342.474C128.227 343.834 149.772 343.845 171.241 342.474C149.772 341.103 128.227 341.114 106.758 342.474Z" fill="url(#paint46_linear_9_421)"/>
<path d="M87.094 352.537C108.563 353.897 130.108 353.908 151.577 352.537C130.108 351.166 108.563 351.177 87.094 352.537Z" fill="url(#paint47_linear_9_421)"/>
<path d="M332.174 284.242C331.462 281.12 328.792 278.924 325.719 278.924H291.39H188.53H180.518V321.735H188.53H291.39H325.711C328.79 321.735 331.44 319.515 332.173 316.392C335.352 302.829 333.675 290.822 332.174 284.242Z" fill="url(#paint48_linear_9_421)"/>
<path d="M211.536 312.162C215.252 300.468 212.1 290.151 211.54 288.491C211.493 288.352 211.368 288.258 211.226 288.258H259.239H314.866C315.008 288.258 315.133 288.351 315.18 288.491C315.739 290.151 318.892 300.468 315.176 312.162C315.131 312.304 315.002 312.402 314.858 312.402H259.239H211.217C211.362 312.401 211.49 312.304 211.536 312.162Z" fill="url(#paint49_linear_9_421)"/>
<path d="M317.002 337.815L329.969 337.957L328.142 350.088C328.034 351.626 328.902 353.012 330.316 353.563L350.278 361.38L350.025 364.407L327.154 364.153L316.071 364.02L317.002 337.815Z" fill="url(#paint50_linear_9_421)"/>
<path d="M349.496 359.449L334.304 353.831C333.274 353.451 332.09 353.665 331.191 354.384C329.497 355.74 326.447 357.768 323.29 357.808C320.557 357.842 317.924 356.911 316.179 356.113C315.184 355.658 313.997 356.392 313.928 357.502L313.476 364.785L351.933 365.212L351.799 362.614C351.725 361.168 350.835 359.946 349.496 359.449Z" fill="url(#paint51_linear_9_421)"/>
<path d="M312.67 366.783L352.589 367.227C352.739 367.229 352.871 367.109 352.884 366.959L353.037 365.168C353.05 365.018 352.939 364.895 352.789 364.893L312.814 364.45C312.664 364.448 312.535 364.568 312.526 364.718L312.416 366.509C312.406 366.659 312.52 366.782 312.67 366.783Z" fill="white"/>
<path d="M334.93 357.686C335.217 357.808 335.567 357.669 335.709 357.376L337.06 354.592C337.202 354.299 337.084 353.96 336.797 353.837C336.51 353.715 336.158 353.854 336.016 354.147L334.666 356.931C334.524 357.224 334.643 357.563 334.93 357.686Z" fill="white"/>
<path d="M339.298 359.349C339.584 359.471 339.935 359.332 340.077 359.039L341.435 356.255C341.578 355.962 341.461 355.622 341.174 355.5C340.887 355.378 340.536 355.517 340.393 355.81L339.037 358.594C338.894 358.887 339.012 359.227 339.298 359.349Z" fill="white"/>
<path d="M363.022 310.35L368.946 320.579C369.901 322.756 372.197 324.016 374.704 323.738L395.592 321.423L396.733 324.122L374.987 334.463L364.674 338.999L348.466 315.948C352.032 313.682 359.464 312.764 363.022 310.35Z" fill="url(#paint52_linear_9_421)"/>
<path d="M393.967 320.135L377.034 322.309C375.891 322.456 374.876 323.182 374.359 324.212C373.385 326.154 371.442 329.299 368.5 330.785C365.957 332.071 363.076 332.479 361.086 332.593C359.953 332.658 359.178 333.836 359.613 334.826L362.457 341.321L398.919 323.926L397.605 321.773C396.872 320.576 395.467 319.943 393.967 320.135Z" fill="url(#paint53_linear_9_421)"/>
<path d="M362.596 343.419L400.462 325.341C400.606 325.273 400.677 325.11 400.621 324.976L399.951 323.379C399.895 323.245 399.733 323.192 399.589 323.26L361.69 341.338C361.549 341.406 361.482 341.569 361.541 341.703L362.237 343.3C362.294 343.434 362.456 343.487 362.596 343.419Z" fill="white"/>
<path d="M379.38 325.329C379.706 325.302 379.973 325.022 379.973 324.705L379.977 321.698C379.977 321.382 379.71 321.145 379.384 321.172C379.057 321.199 378.79 321.479 378.79 321.796L378.789 324.803C378.788 325.119 379.054 325.355 379.38 325.329Z" fill="white"/>
<path d="M384.26 324.744C384.586 324.717 384.854 324.437 384.855 324.12L384.867 321.113C384.868 320.797 384.602 320.56 384.275 320.587C383.948 320.614 383.68 320.894 383.679 321.211L383.669 324.218C383.668 324.534 383.934 324.771 384.26 324.744Z" fill="white"/>
<path d="M291.903 195.778L305.362 222.52L329.274 218.84C329.274 218.84 331.184 233.939 330.766 234.066C330.348 234.193 306.996 248.606 296.544 248.352C286.089 248.098 282.357 231.401 282.357 231.401L291.903 195.778Z" fill="url(#paint54_linear_9_421)"/>
<path d="M332.82 246.001L341.141 245.071C341.32 245.051 341.549 244.651 341.653 244.177L348.933 211.44C349.04 210.966 348.995 210.528 348.831 210.462L341.237 207.365C340.902 207.207 340.769 207.646 340.651 208.181L332.619 245.08C332.505 245.614 332.595 246.026 332.82 246.001Z" fill="url(#paint55_linear_9_421)"/>
<path d="M303.485 240.826L326.201 243.937C326.267 243.946 326.332 243.903 326.345 243.841L334.195 207.199C334.209 207.137 334.165 207.079 334.097 207.07L310.923 203.959C310.855 203.95 310.79 203.993 310.777 204.055L303.388 240.697C303.374 240.759 303.418 240.817 303.485 240.826Z" fill="white"/>
<path d="M307.892 242.684L331.242 245.886C331.888 245.975 332.518 245.554 332.648 244.947L340.622 208.314C340.756 207.707 340.33 207.142 339.67 207.053L315.823 203.851C315.16 203.762 314.521 204.183 314.396 204.79L306.938 241.423C306.816 242.031 307.243 242.595 307.892 242.684Z" fill="url(#paint56_linear_9_421)"/>
<path d="M341.085 228.126C341.265 227.31 342.258 226.758 343.293 226.898C342.259 226.757 341.559 225.974 341.739 225.158C341.919 224.342 342.914 223.789 343.95 223.93L347.614 224.428C348.649 224.569 349.346 225.352 349.163 226.168C348.98 226.984 347.984 227.537 346.95 227.396L347.458 227.465C348.492 227.606 349.187 228.388 349.004 229.204C348.821 230.02 347.827 230.573 346.796 230.432L346.289 230.363C347.321 230.504 348.016 231.286 347.833 232.103C347.651 232.919 346.659 233.471 345.628 233.331L345.527 233.317C345.693 233.59 345.761 233.904 345.69 234.225C345.509 235.041 344.519 235.594 343.489 235.453L341.465 235.176C340.435 235.035 339.739 234.252 339.917 233.436C340.022 232.958 340.408 232.576 340.914 232.365C340.527 232.032 340.326 231.57 340.431 231.092C340.61 230.276 341.602 229.723 342.635 229.864C341.604 229.725 340.905 228.943 341.085 228.126Z" fill="url(#paint57_linear_9_421)"/>
<path opacity="0.6" d="M343.622 226.933L346.759 227.36C346.759 227.36 345.827 227.685 343.622 226.933Z" fill="#213138"/>
<path opacity="0.6" d="M342.963 229.914L346.095 230.341C346.095 230.341 345.164 230.666 342.963 229.914Z" fill="#213138"/>
<path opacity="0.6" d="M341.411 232.653L345.029 233.184C345.029 233.184 343.965 233.481 341.411 232.653Z" fill="#213138"/>
<path d="M333.109 246.561C334.078 246.687 335.017 246.05 335.205 245.139L342.903 208.467C343.097 207.556 342.451 206.716 341.461 206.59C340.47 206.464 339.511 207.101 339.318 208.012L331.69 244.684C331.505 245.595 332.139 246.436 333.109 246.561Z" fill="url(#paint58_linear_9_421)"/>
<path d="M331.691 244.684C334.821 232.595 337.397 220.262 339.319 208.012C336.13 220.1 333.573 232.435 331.691 244.684Z" fill="url(#paint59_linear_9_421)"/>
<path d="M306.5 240.438C306.553 240.442 306.603 240.407 306.613 240.357L313.691 205.538C313.702 205.486 313.664 205.437 313.608 205.43C313.545 205.427 313.496 205.459 313.485 205.51L306.411 240.329C306.4 240.381 306.438 240.43 306.493 240.437C306.493 240.437 306.498 240.438 306.5 240.438Z" fill="#AABBDF"/>
<path d="M305.772 240.252C305.825 240.256 305.875 240.221 305.885 240.171L312.949 205.352C312.96 205.3 312.922 205.251 312.866 205.244C312.863 205.244 312.861 205.244 312.859 205.244C312.805 205.24 312.754 205.275 312.744 205.325L305.684 240.144C305.673 240.196 305.711 240.245 305.766 240.252C305.766 240.252 305.769 240.252 305.772 240.252Z" fill="#AABBDF"/>
<path d="M305.043 240.066C305.096 240.07 305.146 240.035 305.156 239.985L312.207 205.166C312.218 205.114 312.18 205.065 312.124 205.058C312.068 205.061 312.012 205.087 312.002 205.138L304.955 239.957C304.945 240.009 304.982 240.058 305.037 240.065L305.043 240.066Z" fill="#AABBDF"/>
<path d="M304.314 239.88C304.367 239.884 304.417 239.848 304.427 239.799L311.464 204.98C311.475 204.928 311.437 204.879 311.381 204.872C311.379 204.872 311.376 204.872 311.376 204.872C311.319 204.868 311.269 204.903 311.258 204.953L304.225 239.772C304.214 239.824 304.252 239.873 304.307 239.88C304.309 239.88 304.312 239.88 304.314 239.88Z" fill="#AABBDF"/>
<path d="M265.275 227.786L265.263 227.916C265.258 227.965 265.176 227.96 265.181 227.911L265.193 227.781C265.198 227.732 265.28 227.737 265.275 227.786Z" fill="#213138"/>
<path d="M240.39 271.783L290.962 251.317C291.357 251.161 291.551 250.739 291.396 250.375L289.273 245.398C289.117 245.034 288.67 244.866 288.275 245.023L236.432 265.769C236.045 265.925 235.866 266.347 236.03 266.711L239.397 271.408C239.56 271.772 240.005 271.94 240.39 271.783Z" fill="#213138"/>
<path d="M239.294 265.733C239.572 266.452 239.884 267.157 240.19 267.865C240.462 268.498 240.803 269.123 240.863 269.813C240.869 269.885 240.783 269.935 240.726 269.877C239.727 268.862 239.391 267.137 238.974 265.837C238.919 265.664 239.228 265.562 239.294 265.733Z" fill="#324952"/>
<path d="M243.325 264.046C243.771 265.276 244.472 266.46 244.782 267.726C244.803 267.811 244.681 267.863 244.623 267.8C243.714 266.81 243.333 265.399 243.028 264.142C242.989 263.982 243.266 263.885 243.325 264.046Z" fill="#324952"/>
<path d="M248.756 261.976C249.026 262.522 249.166 263.124 249.404 263.684C249.647 264.256 249.932 264.798 250.141 265.383C250.17 265.465 250.074 265.532 250.005 265.468C249.121 264.648 248.477 263.203 248.558 262.013C248.564 261.916 248.713 261.888 248.756 261.976Z" fill="#324952"/>
<path d="M253.569 260.078C253.987 260.499 254.198 261.117 254.465 261.63C254.745 262.169 255.018 262.69 255.159 263.279C255.179 263.363 255.062 263.408 255.005 263.35C254.536 262.877 254.249 262.326 253.977 261.734C253.746 261.231 253.437 260.682 253.424 260.123C253.422 260.052 253.525 260.033 253.569 260.078Z" fill="#324952"/>
<path d="M259.627 257.458C260.566 258.395 261.204 259.862 261.464 261.116C261.483 261.208 261.356 261.235 261.309 261.166C260.901 260.564 260.569 259.938 260.243 259.294C259.954 258.724 259.602 258.166 259.411 257.558C259.374 257.439 259.551 257.381 259.627 257.458Z" fill="#324952"/>
<path d="M265.256 256.157C265.622 256.599 265.856 257.122 266.118 257.623C266.383 258.131 266.647 258.617 266.816 259.163C266.84 259.24 266.727 259.273 266.677 259.227C265.888 258.487 265.219 257.281 265.117 256.22C265.111 256.153 265.204 256.094 265.256 256.157Z" fill="#324952"/>
<path d="M273.72 253.204C274.153 253.86 274.657 254.616 274.651 255.419C274.651 255.485 274.558 255.502 274.517 255.461C274.093 255.039 273.875 254.483 273.599 253.97C273.463 253.717 273.321 253.468 273.18 253.217C273.065 253.012 272.917 252.485 272.706 252.354C272.683 252.34 272.69 252.31 272.712 252.298C273.107 252.076 273.556 252.954 273.72 253.204Z" fill="#324952"/>
<path d="M278.236 250.224C278.653 250.568 278.865 251.115 279.086 251.584C279.35 252.147 279.614 252.705 279.656 253.329C279.661 253.411 279.553 253.48 279.489 253.405C279.076 252.93 278.86 252.363 278.632 251.792C278.439 251.308 278.165 250.771 278.191 250.244C278.191 250.226 278.219 250.211 278.236 250.224Z" fill="#324952"/>
<path d="M282.649 249.144C283.131 249.964 283.684 250.852 283.805 251.802C283.818 251.906 283.674 251.985 283.598 251.896C282.956 251.146 282.67 250.143 282.377 249.23C282.329 249.079 282.576 249.02 282.649 249.144Z" fill="#324952"/>
<path d="M256.331 219.728C248.054 217.002 240.639 211.534 236.17 204.46C237.946 198.819 234.455 196.477 237.735 193.522C244.153 187.768 262.343 183.518 262.343 183.518C276.756 183.998 291.827 188.655 292.142 197.412C292.267 200.931 291.219 204.949 290.131 209.367C290.093 209.522 290.055 209.679 290.017 209.834C289.959 210.071 289.901 210.308 289.843 210.548C289.752 210.926 289.661 211.308 289.572 211.691C289.539 211.833 289.507 211.976 289.474 212.119C289.41 212.396 289.347 212.675 289.285 212.955C289.249 213.115 289.215 213.275 289.18 213.436C289.142 213.612 289.106 213.789 289.068 213.966C278.083 217.731 267.107 223.248 256.331 219.728Z" fill="url(#paint60_linear_9_421)"/>
<path d="M233.352 232.937C233.37 232.386 233.384 231.832 233.394 231.275C233.396 231.173 233.396 231.071 233.398 230.969C233.405 230.493 233.408 230.015 233.407 229.534C233.406 229.277 233.401 229.017 233.398 228.758C233.394 228.405 233.391 228.052 233.382 227.696C233.365 227.07 233.342 226.441 233.309 225.806C233.308 225.793 233.308 225.781 233.307 225.768V225.764C233.27 225.067 233.249 224.347 233.245 223.607C233.245 223.604 233.245 223.601 233.245 223.598C233.213 217.762 234.21 210.725 236.17 204.459C240.639 211.533 249.843 206.434 254.851 213.069C262.403 223.171 278.083 217.729 289.068 213.966C289.044 214.08 289.02 214.193 288.996 214.308C288.967 214.449 288.938 214.588 288.909 214.729C288.825 215.149 288.744 215.572 288.667 215.998C288.65 216.094 288.634 216.19 288.618 216.286C288.558 216.627 288.501 216.969 288.447 217.313C288.423 217.464 288.401 217.616 288.379 217.768C288.334 218.072 288.292 218.378 288.252 218.684C288.232 218.836 288.212 218.988 288.194 219.141C288.147 219.528 288.105 219.916 288.069 220.307C288.063 220.371 288.055 220.434 288.049 220.498C288.009 220.946 287.977 221.398 287.951 221.852C287.943 221.991 287.938 222.131 287.932 222.271C287.917 222.599 287.905 222.928 287.899 223.258C287.896 223.416 287.893 223.574 287.892 223.733C287.889 224.082 287.893 224.433 287.9 224.785C287.903 224.908 287.903 225.03 287.907 225.153C287.922 225.622 287.946 226.094 287.981 226.567C287.989 226.671 288.001 226.775 288.009 226.879C288.04 227.255 288.078 227.632 288.123 228.01C288.142 228.167 288.163 228.324 288.184 228.481C288.231 228.827 288.284 229.175 288.343 229.523C288.368 229.672 288.392 229.82 288.419 229.969C288.509 230.457 288.607 230.947 288.723 231.44C288.92 232.279 289.086 233.071 289.224 233.818C290.546 241.008 289.318 244.073 288.27 245.349C287.684 246.063 287.154 246.218 287.154 246.218L265.202 255.665L260.753 257.592C249.638 257.369 239.333 253.74 232.57 245.14C232.831 241.2 233.21 237.163 233.352 232.937Z" fill="url(#paint61_linear_9_421)"/>
<path d="M260.752 257.594L237.112 265.494C237.112 265.494 233.147 265.758 232.445 256.173C232.177 252.535 232.321 248.881 232.569 245.142C239.331 253.741 249.637 257.37 260.752 257.594Z" fill="url(#paint62_linear_9_421)"/>
<path d="M296.973 220.583C296.973 220.583 301.273 215.959 303.411 214.836C304.88 214.065 306.896 213.927 308.016 213.917C308.483 213.913 308.845 214.256 308.834 214.684L308.802 215.871C308.792 216.242 309.065 216.559 309.458 216.632L316.021 217.853C316.021 217.853 321.611 218.739 324.315 219.062C325.023 219.147 325.366 219.878 324.962 220.442L324.226 221.471C324.667 222.298 323.693 223.28 322.193 224.319C322.198 225.254 322.053 226.154 320.475 226.733L319.394 228.254C318.834 229.043 317.97 229.611 316.989 229.834L313.565 230.614C312.915 230.762 312.242 230.765 311.604 230.622L302.759 228.647C302.041 228.487 301.282 228.516 300.567 228.732L261.014 249.415L256.85 235.784L296.973 220.583Z" fill="url(#paint63_linear_9_421)"/>
<path opacity="0.4" d="M323.858 221.35C321.629 221.202 319.408 221.261 317.211 221.257C316.111 221.278 315.072 221.179 313.978 221.029L312.344 220.81L311.515 220.721C311.242 220.704 310.951 220.635 310.677 220.718C311.201 220.793 311.717 221.017 312.237 221.174C312.76 221.333 313.287 221.486 313.826 221.612C314.362 221.747 314.912 221.844 315.472 221.926C316.044 221.995 316.614 222.009 317.174 222.019C319.417 221.997 321.643 221.799 323.858 221.35Z" fill="url(#paint64_linear_9_421)"/>
<path opacity="0.4" d="M321.723 224.172C320.731 224.209 319.754 224.305 318.782 224.411C317.81 224.511 316.842 224.643 315.89 224.723C314.956 224.841 314.055 224.719 313.093 224.602C312.145 224.476 311.191 224.325 310.214 224.208C311.077 224.628 311.99 224.944 312.936 225.184C313.408 225.31 313.894 225.397 314.393 225.467C314.89 225.531 315.439 225.525 315.931 225.481C316.931 225.381 317.903 225.214 318.868 224.993C319.833 224.776 320.788 224.517 321.723 224.172Z" fill="url(#paint65_linear_9_421)"/>
<path opacity="0.4" d="M319.764 226.733C318.96 226.886 318.185 227.088 317.416 227.296C316.647 227.495 315.886 227.728 315.139 227.89C314.416 228.073 313.657 228.094 312.87 228.127C312.087 228.151 311.294 228.156 310.481 228.199C311.228 228.469 312.012 228.632 312.814 228.721C313.608 228.81 314.461 228.825 315.299 228.63C316.112 228.437 316.873 228.168 317.617 227.85C318.36 227.532 319.084 227.175 319.764 226.733Z" fill="url(#paint66_linear_9_421)"/>
<path d="M245.582 190.596C245.582 190.596 253.461 192.296 254.193 205.821C254.912 219.346 257.194 229.797 257.194 229.797C257.194 229.797 278.51 218.542 294.582 220.007L297.449 233.237C297.449 233.237 285.947 251.728 253.791 252.263C228.127 252.69 226.681 213.918 230.973 200.785C232.786 195.293 239.149 192.182 245.582 190.596Z" fill="url(#paint67_linear_9_421)"/>
<path d="M256.938 229.768C257.064 229.734 257.108 229.902 257.006 229.957C251.757 232.797 250.143 239.301 249.241 244.399C249.213 244.56 248.983 244.545 248.973 244.386C248.663 239.483 251.071 231.361 256.938 229.768Z" fill="#BA5044"/>
<path d="M253.055 230.449C253.142 230.448 253.143 230.566 253.064 230.584C249.006 231.553 245.817 233.657 243.5 236.893C243.425 236.998 243.236 236.915 243.284 236.794C244.776 233.082 248.769 230.481 253.055 230.449Z" fill="#BA5044"/>
<path d="M263.002 174.105C263.002 174.105 260.737 174.356 259.237 172.86C257.734 171.364 261.02 165.971 260.36 158.676C259.701 151.381 266.043 155.27 266.043 155.27L268.465 166.142L263.002 174.105Z" fill="url(#paint68_linear_9_421)"/>
<path d="M259.146 187.5C258.028 192.09 273.183 194.553 274.34 189.963L281.425 162.311L265.997 159.847L260.01 183.969L259.146 187.5Z" fill="#EEBE9D"/>
<path d="M281.078 162.256C281.191 162.289 281.302 162.322 281.413 162.356L275.046 187.174C259.345 180.124 265.524 164.933 267.989 160.166L281.078 162.256Z" fill="#E9A785"/>
<path d="M262.581 166.485C261.548 175.646 269.177 183.531 276.781 183.946C282.411 184.255 286.632 177.058 288.913 168.003C291.947 156.126 286.228 151.017 278.506 150.616C270.773 150.215 263.632 157.322 262.581 166.485Z" fill="#EEBE9D"/>
<path d="M267.142 149.139C267.142 149.139 272.786 145.121 278.389 146.55C283.981 147.981 288.765 152.894 288.765 152.894C288.765 152.894 289.115 148.045 292.964 149.686C295.847 150.918 296.767 156.568 295.107 160.1C295.503 159.607 295.834 159.063 296.073 158.498C297.132 155.995 296.484 153.453 295.642 151.089C295.625 151.043 295.698 151.009 295.722 151.054C297.193 153.831 297.818 157.372 295.742 160.248C295.169 161.043 294.287 161.803 293.316 162.285C293.086 162.439 292.843 162.573 292.581 162.68C288.007 164.545 282.677 160.272 282.677 160.272C282.677 160.272 282.075 162.301 279.093 161.091C276.107 159.881 274.964 158.204 274.964 158.204C274.964 158.204 274.234 160.117 271.344 157.34C271.344 157.34 271.517 160.974 268.766 162.716C266.807 163.958 266.208 166.038 266.026 167.13C265.963 167.509 265.552 167.766 265.144 167.681L263.928 167.427C263.928 167.427 262.703 164.739 262.111 163.498C261.518 162.257 255.808 151.843 267.142 149.139Z" fill="url(#paint69_linear_9_421)"/>
<path d="M257.091 166.295C256.831 168.639 258.385 170.633 260.559 170.749C262.732 170.865 264.443 171.402 264.711 169.057C264.98 166.712 263.701 162.372 261.518 162.257C259.334 162.142 257.351 163.95 257.091 166.295Z" fill="#EEBE9D"/>
<path d="M262.375 166.503C262.373 166.127 262.3 165.758 262.177 165.395C262.039 165.039 261.869 164.668 261.478 164.378C261.276 164.242 261.002 164.125 260.701 164.146C260.553 164.143 260.42 164.191 260.28 164.22C260.15 164.278 260.011 164.345 259.895 164.422C259.456 164.763 259.288 165.183 259.16 165.576C258.937 166.377 258.997 167.196 259.342 167.928C259.511 168.295 259.802 168.621 260.157 168.856C260.531 169.085 260.991 169.147 261.4 169.095C261.005 168.976 260.668 168.824 260.438 168.568C260.214 168.314 260.058 168.025 259.968 167.706C259.801 167.075 259.789 166.369 259.982 165.741C260.06 165.429 260.214 165.12 260.407 164.958C260.455 164.923 260.5 164.899 260.547 164.861C260.606 164.852 260.668 164.811 260.724 164.812C260.836 164.791 260.952 164.819 261.086 164.871C261.622 165.171 262.019 165.866 262.375 166.503Z" fill="#E9A785"/>
<path d="M281.902 147.904C290.858 152.169 292.061 143.845 292.061 143.845C292.061 143.845 304.365 151.212 298.349 161.879C292.333 172.546 271.343 157.338 271.343 157.338L281.902 147.904Z" fill="url(#paint70_linear_9_421)"/>
<path d="M335.969 289.362L333.612 340.082C333.612 340.082 329.232 345.202 313.681 339.947L310.595 271.689L318.812 268.011C327.033 264.346 336.116 269.592 336.056 277.992L335.969 289.362Z" fill="url(#paint71_linear_9_421)"/>
<path d="M241.24 271.436C241.24 271.436 244.64 280.172 251.97 281.131C276.238 284.314 316.284 272.122 321.012 275.29C321.656 275.722 348.642 321.439 348.642 321.439C348.642 321.439 369.568 311.155 368.676 311.436C367.784 311.717 341.424 251.568 336.852 249.077C332.267 246.586 290.963 251.317 290.963 251.317C290.963 251.317 265.501 256.857 241.24 271.436Z" fill="url(#paint72_linear_9_421)"/>
<path d="M325.783 260.823C325.869 260.749 325.973 260.842 325.926 260.931C324.84 262.977 323.557 264.908 322.754 267.07C321.955 269.226 321.569 271.453 321.326 273.694C321.313 273.813 321.104 273.857 321.09 273.724C320.65 269.392 322.158 263.947 325.783 260.823Z" fill="url(#paint73_linear_9_421)"/>
<path d="M317.646 261.927C317.665 261.768 317.895 261.773 317.905 261.927C318.121 265.058 318.362 268.214 318.288 271.367C318.284 271.561 317.969 271.602 317.928 271.413C317.258 268.318 317.275 265.094 317.646 261.927Z" fill="url(#paint74_linear_9_421)"/>
<path d="M256.485 273.515C258.28 271.897 260.362 270.402 261.774 268.447C263.4 266.201 263.555 263.636 264.672 261.224C264.684 261.2 264.72 261.202 264.722 261.23C265.102 266.746 261.568 271.206 256.624 273.687C256.509 273.745 256.386 273.604 256.485 273.515Z" fill="url(#paint75_linear_9_421)"/>
<path d="M136.287 283.085H79.359C78.259 283.085 77.367 282.154 77.367 281.005C77.367 279.856 78.259 278.925 79.359 278.925H191.745C191.996 278.925 192.218 279.09 192.301 279.338C193.293 282.281 198.883 300.576 192.294 321.312C192.214 321.565 191.985 321.737 191.73 321.737H79.359C78.259 321.737 77.367 320.806 77.367 319.657C77.367 318.508 78.259 317.577 79.359 317.577H136.261C136.527 317.577 136.763 317.389 136.834 317.121C141.386 299.892 137.63 286.063 136.847 283.51C136.769 283.253 136.543 283.085 136.287 283.085Z" fill="url(#paint76_linear_9_421)"/>
<path d="M188.402 283.085C188.402 283.085 193.655 298.249 188.402 317.575H79.822V283.085H188.402Z" fill="url(#paint77_linear_9_421)"/>
<path d="M176.823 290.791C146.837 289.172 116.405 289.185 86.418 290.791C116.405 292.398 146.837 292.411 176.823 290.791Z" fill="url(#paint78_linear_9_421)"/>
<path d="M119.618 299.663C141.087 301.023 162.632 301.034 184.101 299.663C162.632 298.292 141.087 298.303 119.618 299.663Z" fill="url(#paint79_linear_9_421)"/>
<path d="M99.953 309.725C121.423 311.085 142.967 311.096 164.436 309.725C142.967 308.354 121.423 308.365 99.953 309.725Z" fill="url(#paint80_linear_9_421)"/>
<path d="M308.68 70.782H304.36L259.134 95.138L312.375 79.785L308.68 70.782Z" fill="url(#paint81_linear_9_421)"/>
<path d="M295.238 62.9769L259.134 95.1379L308.68 70.7819L295.238 62.9769Z" fill="url(#paint82_linear_9_421)"/>
<path d="M259.134 95.1379L315.966 75.2579L335.014 86.8109L259.134 95.1379Z" fill="url(#paint83_linear_9_421)"/>
<path d="M348.635 127.641L349.34 132.708C349.421 133.289 349.782 133.793 350.306 134.055L354.879 136.347C356.199 137.008 356.187 138.897 354.86 139.542L350.259 141.778C349.732 142.034 349.364 142.534 349.276 143.113L348.51 148.171C348.289 149.631 346.49 150.204 345.466 149.14L341.918 145.455C341.511 145.033 340.923 144.837 340.344 144.933L335.297 145.767C333.84 146.008 332.74 144.473 333.435 143.171L335.843 138.658C336.119 138.141 336.123 137.521 335.853 137L333.5 132.458C332.821 131.147 333.94 129.626 335.394 129.885L340.43 130.78C341.007 130.883 341.598 130.695 342.01 130.277L345.603 126.636C346.639 125.584 348.431 126.179 348.635 127.641Z" fill="url(#paint84_linear_9_421)"/>
<path d="M407.399 294.087L405.465 296.177C405.243 296.417 404.918 296.532 404.595 296.485L401.777 296.076C400.964 295.958 400.368 296.824 400.769 297.541L402.159 300.026C402.318 300.311 402.327 300.656 402.183 300.949L400.923 303.503C400.56 304.24 401.199 305.074 402.005 304.914L404.798 304.36C405.118 304.297 405.449 304.395 405.683 304.623L407.722 306.61C408.311 307.184 409.301 306.833 409.399 306.017L409.736 303.19C409.774 302.866 409.97 302.582 410.259 302.43L412.779 301.104C413.506 300.721 413.479 299.671 412.733 299.326L410.148 298.132C409.852 297.995 409.642 297.721 409.586 297.4L409.104 294.594C408.965 293.782 407.957 293.483 407.399 294.087Z" fill="url(#paint85_linear_9_421)"/>
<defs>
<linearGradient id="paint0_linear_9_421" x1="215.056" y1="-34.4116" x2="215.056" y2="353.207" gradientUnits="userSpaceOnUse">
<stop stop-color="#D5E7FB"/>
<stop offset="0.2449" stop-color="#D1E5FB"/>
<stop offset="0.5124" stop-color="#C3DEFB"/>
<stop offset="0.7896" stop-color="#AED4FC"/>
<stop offset="1" stop-color="#98C9FC"/>
</linearGradient>
<linearGradient id="paint1_linear_9_421" x1="246.703" y1="8.89614" x2="240.719" y2="57.7082" gradientUnits="userSpaceOnUse">
<stop stop-color="white"/>
<stop offset="1" stop-color="white" stop-opacity="0"/>
</linearGradient>
<linearGradient id="paint2_linear_9_421" x1="118.194" y1="93.2781" x2="286.242" y2="93.2781" gradientUnits="userSpaceOnUse">
<stop stop-color="#72B2F9"/>
<stop offset="1" stop-color="#9BC8F9"/>
</linearGradient>
<linearGradient id="paint3_linear_9_421" x1="26.8556" y1="376.487" x2="388.461" y2="353.886" gradientUnits="userSpaceOnUse">
<stop stop-color="#94A744"/>
<stop offset="0.3889" stop-color="#9BAF4A"/>
<stop offset="0.9879" stop-color="#B0C45A"/>
<stop offset="1" stop-color="#B0C55A"/>
</linearGradient>
<linearGradient id="paint4_linear_9_421" x1="328.925" y1="354.473" x2="356.701" y2="295.654" gradientUnits="userSpaceOnUse">
<stop stop-color="#94A744"/>
<stop offset="0.3889" stop-color="#9BAF4A"/>
<stop offset="0.9879" stop-color="#B0C45A"/>
<stop offset="1" stop-color="#B0C55A"/>
</linearGradient>
<linearGradient id="paint5_linear_9_421" x1="362.424" y1="235.331" x2="362.424" y2="271.545" gradientUnits="userSpaceOnUse">
<stop stop-color="white"/>
<stop offset="1" stop-color="white" stop-opacity="0"/>
</linearGradient>
<linearGradient id="paint6_linear_9_421" x1="1.02866" y1="298.636" x2="76.2885" y2="357.15" gradientUnits="userSpaceOnUse">
<stop stop-color="#94A744"/>
<stop offset="1" stop-color="#738034"/>
</linearGradient>
<linearGradient id="paint7_linear_9_421" x1="77.0617" y1="349.331" x2="45.4901" y2="279.97" gradientUnits="userSpaceOnUse">
<stop stop-color="#94A744"/>
<stop offset="0.3889" stop-color="#9BAF4A"/>
<stop offset="0.9879" stop-color="#B0C45A"/>
<stop offset="1" stop-color="#B0C55A"/>
</linearGradient>
<linearGradient id="paint8_linear_9_421" x1="107.433" y1="217.489" x2="107.433" y2="254.073" gradientUnits="userSpaceOnUse">
<stop stop-color="white"/>
<stop offset="1" stop-color="white" stop-opacity="0"/>
</linearGradient>
<linearGradient id="paint9_linear_9_421" x1="70.1543" y1="149.981" x2="79.1216" y2="193.439" gradientUnits="userSpaceOnUse">
<stop stop-color="#94A744"/>
<stop offset="1" stop-color="#738034"/>
</linearGradient>
<linearGradient id="paint10_linear_9_421" x1="97.5676" y1="256.719" x2="37.9159" y2="170.476" gradientUnits="userSpaceOnUse">
<stop stop-color="#94A744"/>
<stop offset="0.3889" stop-color="#9BAF4A"/>
<stop offset="0.9879" stop-color="#B0C45A"/>
<stop offset="1" stop-color="#B0C55A"/>
</linearGradient>
<linearGradient id="paint11_linear_9_421" x1="96.5329" y1="257.436" x2="36.8815" y2="171.193" gradientUnits="userSpaceOnUse">
<stop stop-color="#94A744"/>
<stop offset="0.3889" stop-color="#9BAF4A"/>
<stop offset="0.9879" stop-color="#B0C45A"/>
<stop offset="1" stop-color="#B0C55A"/>
</linearGradient>
<linearGradient id="paint12_linear_9_421" x1="95.945" y1="257.843" x2="36.2939" y2="171.6" gradientUnits="userSpaceOnUse">
<stop stop-color="#94A744"/>
<stop offset="0.3889" stop-color="#9BAF4A"/>
<stop offset="0.9879" stop-color="#B0C45A"/>
<stop offset="1" stop-color="#B0C55A"/>
</linearGradient>
<linearGradient id="paint13_linear_9_421" x1="95.8048" y1="257.941" x2="36.1536" y2="171.698" gradientUnits="userSpaceOnUse">
<stop stop-color="#94A744"/>
<stop offset="0.3889" stop-color="#9BAF4A"/>
<stop offset="0.9879" stop-color="#B0C45A"/>
<stop offset="1" stop-color="#B0C55A"/>
</linearGradient>
<linearGradient id="paint14_linear_9_421" x1="96.1136" y1="257.73" x2="36.461" y2="171.484" gradientUnits="userSpaceOnUse">
<stop stop-color="#94A744"/>
<stop offset="0.3889" stop-color="#9BAF4A"/>
<stop offset="0.9879" stop-color="#B0C45A"/>
<stop offset="1" stop-color="#B0C55A"/>
</linearGradient>
<linearGradient id="paint15_linear_9_421" x1="96.8713" y1="257.207" x2="37.2185" y2="170.961" gradientUnits="userSpaceOnUse">
<stop stop-color="#94A744"/>
<stop offset="0.3889" stop-color="#9BAF4A"/>
<stop offset="0.9879" stop-color="#B0C45A"/>
<stop offset="1" stop-color="#B0C55A"/>
</linearGradient>
<linearGradient id="paint16_linear_9_421" x1="98.0788" y1="256.373" x2="38.426" y2="170.127" gradientUnits="userSpaceOnUse">
<stop stop-color="#94A744"/>
<stop offset="0.3889" stop-color="#9BAF4A"/>
<stop offset="0.9879" stop-color="#B0C45A"/>
<stop offset="1" stop-color="#B0C55A"/>
</linearGradient>
<linearGradient id="paint17_linear_9_421" x1="99.7367" y1="255.227" x2="40.0837" y2="168.982" gradientUnits="userSpaceOnUse">
<stop stop-color="#94A744"/>
<stop offset="0.3889" stop-color="#9BAF4A"/>
<stop offset="0.9879" stop-color="#B0C45A"/>
<stop offset="1" stop-color="#B0C55A"/>
</linearGradient>
<linearGradient id="paint18_linear_9_421" x1="84.45" y1="265.793" x2="24.8066" y2="179.56" gradientUnits="userSpaceOnUse">
<stop stop-color="#94A744"/>
<stop offset="0.3889" stop-color="#9BAF4A"/>
<stop offset="0.9879" stop-color="#B0C45A"/>
<stop offset="1" stop-color="#B0C55A"/>
</linearGradient>
<linearGradient id="paint19_linear_9_421" x1="83.5604" y1="266.407" x2="23.9158" y2="180.174" gradientUnits="userSpaceOnUse">
<stop stop-color="#94A744"/>
<stop offset="0.3889" stop-color="#9BAF4A"/>
<stop offset="0.9879" stop-color="#B0C45A"/>
<stop offset="1" stop-color="#B0C55A"/>
</linearGradient>
<linearGradient id="paint20_linear_9_421" x1="83.1411" y1="266.696" x2="23.497" y2="180.463" gradientUnits="userSpaceOnUse">
<stop stop-color="#94A744"/>
<stop offset="0.3889" stop-color="#9BAF4A"/>
<stop offset="0.9879" stop-color="#B0C45A"/>
<stop offset="1" stop-color="#B0C55A"/>
</linearGradient>
<linearGradient id="paint21_linear_9_421" x1="83.1932" y1="266.66" x2="23.5485" y2="180.426" gradientUnits="userSpaceOnUse">
<stop stop-color="#94A744"/>
<stop offset="0.3889" stop-color="#9BAF4A"/>
<stop offset="0.9879" stop-color="#B0C45A"/>
<stop offset="1" stop-color="#B0C55A"/>
</linearGradient>
<linearGradient id="paint22_linear_9_421" x1="83.7169" y1="266.297" x2="24.0719" y2="180.063" gradientUnits="userSpaceOnUse">
<stop stop-color="#94A744"/>
<stop offset="0.3889" stop-color="#9BAF4A"/>
<stop offset="0.9879" stop-color="#B0C45A"/>
<stop offset="1" stop-color="#B0C55A"/>
</linearGradient>
<linearGradient id="paint23_linear_9_421" x1="84.7132" y1="265.607" x2="25.0679" y2="179.373" gradientUnits="userSpaceOnUse">
<stop stop-color="#94A744"/>
<stop offset="0.3889" stop-color="#9BAF4A"/>
<stop offset="0.9879" stop-color="#B0C45A"/>
<stop offset="1" stop-color="#B0C55A"/>
</linearGradient>
<linearGradient id="paint24_linear_9_421" x1="86.1825" y1="264.59" x2="26.5372" y2="178.356" gradientUnits="userSpaceOnUse">
<stop stop-color="#94A744"/>
<stop offset="0.3889" stop-color="#9BAF4A"/>
<stop offset="0.9879" stop-color="#B0C45A"/>
<stop offset="1" stop-color="#B0C55A"/>
</linearGradient>
<linearGradient id="paint25_linear_9_421" x1="88.1258" y1="263.246" x2="28.4801" y2="177.011" gradientUnits="userSpaceOnUse">
<stop stop-color="#94A744"/>
<stop offset="0.3889" stop-color="#9BAF4A"/>
<stop offset="0.9879" stop-color="#B0C45A"/>
<stop offset="1" stop-color="#B0C55A"/>
</linearGradient>
<linearGradient id="paint26_linear_9_421" x1="97.1552" y1="257.006" x2="37.5065" y2="170.767" gradientUnits="userSpaceOnUse">
<stop stop-color="#94A744"/>
<stop offset="0.3889" stop-color="#9BAF4A"/>
<stop offset="0.9879" stop-color="#B0C45A"/>
<stop offset="1" stop-color="#B0C55A"/>
</linearGradient>
<linearGradient id="paint27_linear_9_421" x1="48.3639" y1="118.224" x2="24.8959" y2="173.338" gradientUnits="userSpaceOnUse">
<stop stop-color="#D5E7FB"/>
<stop offset="0.2449" stop-color="#D1E5FB"/>
<stop offset="0.5124" stop-color="#C3DEFB"/>
<stop offset="0.7896" stop-color="#AED4FC"/>
<stop offset="1" stop-color="#98C9FC"/>
</linearGradient>
<linearGradient id="paint28_linear_9_421" x1="268.293" y1="203.046" x2="265.698" y2="216.463" gradientUnits="userSpaceOnUse">
<stop stop-color="#E093E3"/>
<stop offset="0.2809" stop-color="#D790E7"/>
<stop offset="0.7366" stop-color="#BF86F0"/>
<stop offset="1" stop-color="#AE80F7"/>
</linearGradient>
<linearGradient id="paint29_linear_9_421" x1="155.464" y1="71.1207" x2="222.319" y2="-69.9843" gradientUnits="userSpaceOnUse">
<stop stop-color="#BF3A6F"/>
<stop offset="0.9854" stop-color="#CE6B95"/>
</linearGradient>
<linearGradient id="paint30_linear_9_421" x1="154.247" y1="283.461" x2="188.295" y2="49.197" gradientUnits="userSpaceOnUse">
<stop stop-color="#CC3D76"/>
<stop offset="0.9854" stop-color="#DB719F"/>
</linearGradient>
<linearGradient id="paint31_linear_9_421" x1="169.733" y1="281.067" x2="189.826" y2="200.974" gradientUnits="userSpaceOnUse">
<stop stop-color="#CC3D76"/>
<stop offset="0.9854" stop-color="#DB719F"/>
</linearGradient>
<linearGradient id="paint32_linear_9_421" x1="268.577" y1="254.574" x2="79.3635" y2="267.357" gradientUnits="userSpaceOnUse">
<stop stop-color="#D5E7FB"/>
<stop offset="0.2449" stop-color="#D1E5FB"/>
<stop offset="0.5124" stop-color="#C3DEFB"/>
<stop offset="0.7896" stop-color="#AED4FC"/>
<stop offset="1" stop-color="#98C9FC"/>
</linearGradient>
<linearGradient id="paint33_linear_9_421" x1="209.724" y1="232.73" x2="264.904" y2="146.337" gradientUnits="userSpaceOnUse">
<stop stop-color="#A0325E"/>
<stop offset="0.9854" stop-color="#AE5B80"/>
</linearGradient>
<linearGradient id="paint34_linear_9_421" x1="153.341" y1="56.397" x2="123.087" y2="191.959" gradientUnits="userSpaceOnUse">
<stop stop-color="white"/>
<stop offset="0.2836" stop-color="#FAFCFF"/>
<stop offset="0.6369" stop-color="#EAF5FE"/>
<stop offset="1" stop-color="#D3E9FD"/>
</linearGradient>
<linearGradient id="paint35_linear_9_421" x1="212.328" y1="69.5629" x2="182.074" y2="205.124" gradientUnits="userSpaceOnUse">
<stop stop-color="white"/>
<stop offset="0.2836" stop-color="#FAFCFF"/>
<stop offset="0.6369" stop-color="#EAF5FE"/>
<stop offset="1" stop-color="#D3E9FD"/>
</linearGradient>
<linearGradient id="paint36_linear_9_421" x1="180.347" y1="62.4252" x2="150.093" y2="197.986" gradientUnits="userSpaceOnUse">
<stop stop-color="white"/>
<stop offset="0.2836" stop-color="#FAFCFF"/>
<stop offset="0.6369" stop-color="#EAF5FE"/>
<stop offset="1" stop-color="#D3E9FD"/>
</linearGradient>
<linearGradient id="paint37_linear_9_421" x1="189.204" y1="64.4016" x2="158.95" y2="199.963" gradientUnits="userSpaceOnUse">
<stop stop-color="white"/>
<stop offset="0.2836" stop-color="#FAFCFF"/>
<stop offset="0.6369" stop-color="#EAF5FE"/>
<stop offset="1" stop-color="#D3E9FD"/>
</linearGradient>
<linearGradient id="paint38_linear_9_421" x1="198.061" y1="66.3783" x2="167.806" y2="201.94" gradientUnits="userSpaceOnUse">
<stop stop-color="white"/>
<stop offset="0.2836" stop-color="#FAFCFF"/>
<stop offset="0.6369" stop-color="#EAF5FE"/>
<stop offset="1" stop-color="#D3E9FD"/>
</linearGradient>
<linearGradient id="paint39_linear_9_421" x1="124.807" y1="270.465" x2="229.14" y2="249.002" gradientUnits="userSpaceOnUse">
<stop stop-color="#B3C2D2"/>
<stop offset="0.2696" stop-color="#AFC0D2"/>
<stop offset="0.5641" stop-color="#A1B9D2"/>
<stop offset="0.8694" stop-color="#8CAED3"/>
<stop offset="1" stop-color="#80A8D3"/>
</linearGradient>
<linearGradient id="paint40_linear_9_421" x1="157.422" y1="269.98" x2="261.755" y2="248.516" gradientUnits="userSpaceOnUse">
<stop stop-color="#B3C2D2"/>
<stop offset="0.2696" stop-color="#AFC0D2"/>
<stop offset="0.5641" stop-color="#A1B9D2"/>
<stop offset="0.8694" stop-color="#8CAED3"/>
<stop offset="1" stop-color="#80A8D3"/>
</linearGradient>
<linearGradient id="paint41_linear_9_421" x1="254.454" y1="358.349" x2="386.742" y2="516.969" gradientUnits="userSpaceOnUse">
<stop stop-color="#72B2F9"/>
<stop offset="1" stop-color="#9BC8F9"/>
</linearGradient>
<linearGradient id="paint42_linear_9_421" x1="103.478" y1="308.864" x2="134.016" y2="364.52" gradientUnits="userSpaceOnUse">
<stop stop-color="#72B2F9"/>
<stop offset="1" stop-color="#9BC8F9"/>
</linearGradient>
<linearGradient id="paint43_linear_9_421" x1="235.683" y1="316.539" x2="259.296" y2="359.575" gradientUnits="userSpaceOnUse">
<stop stop-color="white"/>
<stop offset="0.2836" stop-color="#FAFCFF"/>
<stop offset="0.6369" stop-color="#EAF5FE"/>
<stop offset="1" stop-color="#D3E9FD"/>
</linearGradient>
<linearGradient id="paint44_linear_9_421" x1="126.462" y1="306.866" x2="118.369" y2="366.478" gradientUnits="userSpaceOnUse">
<stop stop-color="white"/>
<stop offset="0.2836" stop-color="#FAFCFF"/>
<stop offset="0.6369" stop-color="#EAF5FE"/>
<stop offset="1" stop-color="#D3E9FD"/>
</linearGradient>
<linearGradient id="paint45_linear_9_421" x1="73.5585" y1="333.603" x2="163.963" y2="333.603" gradientUnits="userSpaceOnUse">
<stop stop-color="#D5E7FB"/>
<stop offset="0.2449" stop-color="#D1E5FB"/>
<stop offset="0.5124" stop-color="#C3DEFB"/>
<stop offset="0.7896" stop-color="#AED4FC"/>
<stop offset="1" stop-color="#98C9FC"/>
</linearGradient>
<linearGradient id="paint46_linear_9_421" x1="106.758" y1="342.474" x2="171.241" y2="342.474" gradientUnits="userSpaceOnUse">
<stop stop-color="#D5E7FB"/>
<stop offset="0.2449" stop-color="#D1E5FB"/>
<stop offset="0.5124" stop-color="#C3DEFB"/>
<stop offset="0.7896" stop-color="#AED4FC"/>
<stop offset="1" stop-color="#98C9FC"/>
</linearGradient>
<linearGradient id="paint47_linear_9_421" x1="87.0937" y1="352.537" x2="151.577" y2="352.537" gradientUnits="userSpaceOnUse">
<stop stop-color="#D5E7FB"/>
<stop offset="0.2449" stop-color="#D1E5FB"/>
<stop offset="0.5124" stop-color="#C3DEFB"/>
<stop offset="0.7896" stop-color="#AED4FC"/>
<stop offset="1" stop-color="#98C9FC"/>
</linearGradient>
<linearGradient id="paint48_linear_9_421" x1="268.489" y1="258.115" x2="245.62" y2="332.64" gradientUnits="userSpaceOnUse">
<stop stop-color="#DFA23E"/>
<stop offset="0.2793" stop-color="#DE9F3C"/>
<stop offset="0.5244" stop-color="#DC9436"/>
<stop offset="0.7567" stop-color="#D8822C"/>
<stop offset="0.9798" stop-color="#D3691E"/>
<stop offset="1" stop-color="#D2661C"/>
</linearGradient>
<linearGradient id="paint49_linear_9_421" x1="248.542" y1="273.728" x2="272.156" y2="316.764" gradientUnits="userSpaceOnUse">
<stop stop-color="white"/>
<stop offset="0.2836" stop-color="#FAFCFF"/>
<stop offset="0.6369" stop-color="#EAF5FE"/>
<stop offset="1" stop-color="#D3E9FD"/>
</linearGradient>
<linearGradient id="paint50_linear_9_421" x1="330.622" y1="339.524" x2="332.901" y2="360.224" gradientUnits="userSpaceOnUse">
<stop stop-color="#E9A78D"/>
<stop offset="1" stop-color="#ECCDB8"/>
</linearGradient>
<linearGradient id="paint51_linear_9_421" x1="350.164" y1="355.985" x2="296.681" y2="370.898" gradientUnits="userSpaceOnUse">
<stop stop-color="#CF4D4C"/>
<stop offset="0.354" stop-color="#CD4A49"/>
<stop offset="0.6272" stop-color="#C5403F"/>
<stop offset="0.8727" stop-color="#B7302F"/>
<stop offset="1" stop-color="#AE2423"/>
</linearGradient>
<linearGradient id="paint52_linear_9_421" x1="363.26" y1="311.127" x2="378.506" y2="328.369" gradientUnits="userSpaceOnUse">
<stop stop-color="#E9A78D"/>
<stop offset="1" stop-color="#ECCDB8"/>
</linearGradient>
<linearGradient id="paint53_linear_9_421" x1="384.559" y1="324.276" x2="348.802" y2="353.873" gradientUnits="userSpaceOnUse">
<stop stop-color="#CF4D4C"/>
<stop offset="0.354" stop-color="#CD4A49"/>
<stop offset="0.6272" stop-color="#C5403F"/>
<stop offset="0.8727" stop-color="#B7302F"/>
<stop offset="1" stop-color="#AE2423"/>
</linearGradient>
<linearGradient id="paint54_linear_9_421" x1="276.072" y1="147.981" x2="304.676" y2="222.552" gradientUnits="userSpaceOnUse">
<stop stop-color="#D89D3C"/>
<stop offset="0.2836" stop-color="#D79A3A"/>
<stop offset="0.5324" stop-color="#D58F34"/>
<stop offset="0.7674" stop-color="#D17D2A"/>
<stop offset="0.994" stop-color="#CB641B"/>
<stop offset="1" stop-color="#CB631B"/>
</linearGradient>
<linearGradient id="paint55_linear_9_421" x1="330.678" y1="203.527" x2="338.26" y2="222.061" gradientUnits="userSpaceOnUse">
<stop stop-color="#557ABF"/>
<stop offset="0.3325" stop-color="#5377BE"/>
<stop offset="0.5616" stop-color="#4D6EB9"/>
<stop offset="0.7596" stop-color="#435FB1"/>
<stop offset="0.9389" stop-color="#3549A7"/>
<stop offset="1" stop-color="#2F40A2"/>
</linearGradient>
<linearGradient id="paint56_linear_9_421" x1="323.401" y1="198.651" x2="324.039" y2="242.565" gradientUnits="userSpaceOnUse">
<stop stop-color="#597FC8"/>
<stop offset="0.3304" stop-color="#577CC7"/>
<stop offset="0.5581" stop-color="#5173C2"/>
<stop offset="0.7549" stop-color="#4764BB"/>
<stop offset="0.9331" stop-color="#394EB0"/>
<stop offset="1" stop-color="#3244AB"/>
</linearGradient>
<linearGradient id="paint57_linear_9_421" x1="349.192" y1="229.692" x2="339.891" y2="229.692" gradientUnits="userSpaceOnUse">
<stop stop-color="#E9A78D"/>
<stop offset="1" stop-color="#ECCDB8"/>
</linearGradient>
<linearGradient id="paint58_linear_9_421" x1="336.891" y1="198.493" x2="337.528" y2="242.374" gradientUnits="userSpaceOnUse">
<stop stop-color="#597FC8"/>
<stop offset="0.3304" stop-color="#577CC7"/>
<stop offset="0.5581" stop-color="#5173C2"/>
<stop offset="0.7549" stop-color="#4764BB"/>
<stop offset="0.9331" stop-color="#394EB0"/>
<stop offset="1" stop-color="#3244AB"/>
</linearGradient>
<linearGradient id="paint59_linear_9_421" x1="321.148" y1="201.847" x2="328.01" y2="213.557" gradientUnits="userSpaceOnUse">
<stop stop-color="#557ABF"/>
<stop offset="0.3325" stop-color="#5377BE"/>
<stop offset="0.5616" stop-color="#4D6EB9"/>
<stop offset="0.7596" stop-color="#435FB1"/>
<stop offset="0.9389" stop-color="#3549A7"/>
<stop offset="1" stop-color="#2F40A2"/>
</linearGradient>
<linearGradient id="paint60_linear_9_421" x1="245.863" y1="173.134" x2="297.706" y2="248.982" gradientUnits="userSpaceOnUse">
<stop stop-color="#DFA23E"/>
<stop offset="0.2793" stop-color="#DE9F3C"/>
<stop offset="0.5244" stop-color="#DC9436"/>
<stop offset="0.7567" stop-color="#D8822C"/>
<stop offset="0.9798" stop-color="#D3691E"/>
<stop offset="1" stop-color="#D2661C"/>
</linearGradient>
<linearGradient id="paint61_linear_9_421" x1="235.499" y1="163.543" x2="264.102" y2="238.114" gradientUnits="userSpaceOnUse">
<stop stop-color="#D89D3C"/>
<stop offset="0.2836" stop-color="#D79A3A"/>
<stop offset="0.5324" stop-color="#D58F34"/>
<stop offset="0.7674" stop-color="#D17D2A"/>
<stop offset="0.994" stop-color="#CB641B"/>
<stop offset="1" stop-color="#CB631B"/>
</linearGradient>
<linearGradient id="paint62_linear_9_421" x1="206.282" y1="200.188" x2="258.125" y2="276.036" gradientUnits="userSpaceOnUse">
<stop stop-color="#DFA23E"/>
<stop offset="0.2793" stop-color="#DE9F3C"/>
<stop offset="0.5244" stop-color="#DC9436"/>
<stop offset="0.7567" stop-color="#D8822C"/>
<stop offset="0.9798" stop-color="#D3691E"/>
<stop offset="1" stop-color="#D2661C"/>
</linearGradient>
<linearGradient id="paint63_linear_9_421" x1="314.837" y1="211.918" x2="295.469" y2="226.573" gradientUnits="userSpaceOnUse">
<stop stop-color="#E9A78D"/>
<stop offset="1" stop-color="#ECCDB8"/>
</linearGradient>
<linearGradient id="paint64_linear_9_421" x1="323.857" y1="221.349" x2="310.675" y2="221.349" gradientUnits="userSpaceOnUse">
<stop stop-color="#E9A78D"/>
<stop offset="1" stop-color="#ECCDB8"/>
</linearGradient>
<linearGradient id="paint65_linear_9_421" x1="321.724" y1="224.843" x2="310.215" y2="224.843" gradientUnits="userSpaceOnUse">
<stop stop-color="#E9A78D"/>
<stop offset="1" stop-color="#ECCDB8"/>
</linearGradient>
<linearGradient id="paint66_linear_9_421" x1="319.765" y1="227.758" x2="310.481" y2="227.758" gradientUnits="userSpaceOnUse">
<stop stop-color="#E9A78D"/>
<stop offset="1" stop-color="#ECCDB8"/>
</linearGradient>
<linearGradient id="paint67_linear_9_421" x1="231.965" y1="182.634" x2="283.808" y2="258.482" gradientUnits="userSpaceOnUse">
<stop stop-color="#DFA23E"/>
<stop offset="0.2793" stop-color="#DE9F3C"/>
<stop offset="0.5244" stop-color="#DC9436"/>
<stop offset="0.7567" stop-color="#D8822C"/>
<stop offset="0.9798" stop-color="#D3691E"/>
<stop offset="1" stop-color="#D2661C"/>
</linearGradient>
<linearGradient id="paint68_linear_9_421" x1="288.643" y1="179.424" x2="259.099" y2="162.054" gradientUnits="userSpaceOnUse">
<stop stop-color="#5E2D15"/>
<stop offset="1" stop-color="#7D4911"/>
</linearGradient>
<linearGradient id="paint69_linear_9_421" x1="295.198" y1="168.275" x2="265.654" y2="150.904" gradientUnits="userSpaceOnUse">
<stop stop-color="#5E2D15"/>
<stop offset="1" stop-color="#7D4911"/>
</linearGradient>
<linearGradient id="paint70_linear_9_421" x1="299.406" y1="161.119" x2="269.86" y2="143.748" gradientUnits="userSpaceOnUse">
<stop stop-color="#5E2D15"/>
<stop offset="1" stop-color="#7D4911"/>
</linearGradient>
<linearGradient id="paint71_linear_9_421" x1="323.304" y1="278.925" x2="322.281" y2="355.338" gradientUnits="userSpaceOnUse">
<stop stop-color="#36366B"/>
<stop offset="1" stop-color="#484883"/>
</linearGradient>
<linearGradient id="paint72_linear_9_421" x1="285.602" y1="258.944" x2="336.629" y2="300.288" gradientUnits="userSpaceOnUse">
<stop stop-color="#676795"/>
<stop offset="1" stop-color="#484883"/>
</linearGradient>
<linearGradient id="paint73_linear_9_421" x1="325.937" y1="267.301" x2="321.016" y2="267.301" gradientUnits="userSpaceOnUse">
<stop stop-color="#36366B"/>
<stop offset="1" stop-color="#484883"/>
</linearGradient>
<linearGradient id="paint74_linear_9_421" x1="318.302" y1="266.672" x2="317.39" y2="266.672" gradientUnits="userSpaceOnUse">
<stop stop-color="#36366B"/>
<stop offset="1" stop-color="#484883"/>
</linearGradient>
<linearGradient id="paint75_linear_9_421" x1="264.75" y1="267.454" x2="256.449" y2="267.454" gradientUnits="userSpaceOnUse">
<stop stop-color="#36366B"/>
<stop offset="1" stop-color="#484883"/>
</linearGradient>
<linearGradient id="paint76_linear_9_421" x1="142.141" y1="231.838" x2="140.353" y2="250.736" gradientUnits="userSpaceOnUse">
<stop stop-color="#DFA23E"/>
<stop offset="0.2793" stop-color="#DE9F3C"/>
<stop offset="0.5244" stop-color="#DC9436"/>
<stop offset="0.7567" stop-color="#D8822C"/>
<stop offset="0.9798" stop-color="#D3691E"/>
<stop offset="1" stop-color="#D2661C"/>
</linearGradient>
<linearGradient id="paint77_linear_9_421" x1="139.322" y1="264.054" x2="131.229" y2="323.667" gradientUnits="userSpaceOnUse">
<stop stop-color="white"/>
<stop offset="0.2836" stop-color="#FAFCFF"/>
<stop offset="0.6369" stop-color="#EAF5FE"/>
<stop offset="1" stop-color="#D3E9FD"/>
</linearGradient>
<linearGradient id="paint78_linear_9_421" x1="86.4182" y1="290.792" x2="176.823" y2="290.792" gradientUnits="userSpaceOnUse">
<stop stop-color="#D5E7FB"/>
<stop offset="0.2449" stop-color="#D1E5FB"/>
<stop offset="0.5124" stop-color="#C3DEFB"/>
<stop offset="0.7896" stop-color="#AED4FC"/>
<stop offset="1" stop-color="#98C9FC"/>
</linearGradient>
<linearGradient id="paint79_linear_9_421" x1="119.618" y1="299.663" x2="184.101" y2="299.663" gradientUnits="userSpaceOnUse">
<stop stop-color="#D5E7FB"/>
<stop offset="0.2449" stop-color="#D1E5FB"/>
<stop offset="0.5124" stop-color="#C3DEFB"/>
<stop offset="0.7896" stop-color="#AED4FC"/>
<stop offset="1" stop-color="#98C9FC"/>
</linearGradient>
<linearGradient id="paint80_linear_9_421" x1="99.9533" y1="309.725" x2="164.437" y2="309.725" gradientUnits="userSpaceOnUse">
<stop stop-color="#D5E7FB"/>
<stop offset="0.2449" stop-color="#D1E5FB"/>
<stop offset="0.5124" stop-color="#C3DEFB"/>
<stop offset="0.7896" stop-color="#AED4FC"/>
<stop offset="1" stop-color="#98C9FC"/>
</linearGradient>
<linearGradient id="paint81_linear_9_421" x1="305.102" y1="29.2827" x2="280.096" y2="104.476" gradientUnits="userSpaceOnUse">
<stop stop-color="#72B2F9"/>
<stop offset="1" stop-color="#9BC8F9"/>
</linearGradient>
<linearGradient id="paint82_linear_9_421" x1="304.075" y1="22.3145" x2="277.027" y2="103.649" gradientUnits="userSpaceOnUse">
<stop stop-color="white"/>
<stop offset="0.2836" stop-color="#FAFCFF"/>
<stop offset="0.6369" stop-color="#EAF5FE"/>
<stop offset="1" stop-color="#D3E9FD"/>
</linearGradient>
<linearGradient id="paint83_linear_9_421" x1="315.125" y1="36.695" x2="291.376" y2="108.109" gradientUnits="userSpaceOnUse">
<stop stop-color="white"/>
<stop offset="0.2836" stop-color="#FAFCFF"/>
<stop offset="0.6369" stop-color="#EAF5FE"/>
<stop offset="1" stop-color="#D3E9FD"/>
</linearGradient>
<linearGradient id="paint84_linear_9_421" x1="332.68" y1="133.213" x2="355.066" y2="140.635" gradientUnits="userSpaceOnUse">
<stop stop-color="#D5E7FB"/>
<stop offset="0.2449" stop-color="#D1E5FB"/>
<stop offset="0.5124" stop-color="#C3DEFB"/>
<stop offset="0.7896" stop-color="#AED4FC"/>
<stop offset="1" stop-color="#98C9FC"/>
</linearGradient>
<linearGradient id="paint85_linear_9_421" x1="425.538" y1="290.795" x2="372.407" y2="318.461" gradientUnits="userSpaceOnUse">
<stop stop-color="#D5E7FB"/>
<stop offset="0.2449" stop-color="#D1E5FB"/>
<stop offset="0.5124" stop-color="#C3DEFB"/>
<stop offset="0.7896" stop-color="#AED4FC"/>
<stop offset="1" stop-color="#98C9FC"/>
</linearGradient>
</defs>
</svg>
