<svg width="412" height="360" viewBox="0 0 412 360" fill="none" xmlns="http://www.w3.org/2000/svg">
<path d="M49.935 262.349C47.55 236.45 38.158 211.681 33.822 186.029C32.13 176.019 31.246 165.543 34.437 155.884C42.193 132.413 65.75 119.223 88.475 111.156C101.889 106.395 116.19 104.296 129.882 100.12C144.979 95.515 159.708 89.616 173.465 81.912C187.064 74.297 199.637 64.978 213.384 57.625C245.621 40.382 288.861 40.496 322.85 52.952C364.312 68.147 403.517 105.923 396.936 151.682C394.544 168.316 386.606 183.513 380.087 198.911C372.668 216.437 370.588 232.53 369.575 251.253C367.971 280.903 372.511 302.659 380.664 330.894C277.126 339.619 173.589 348.344 70.051 357.069C56.728 358.192 41.086 359.398 30.263 350.133C21.628 342.741 20.66 335.983 28.195 328.413C46.472 310.052 52.309 288.131 49.935 262.349Z" fill="url(#paint0_linear_9_248)"/>
<path d="M171.365 157.306C154.827 170.706 138.289 184.107 121.751 197.508C99.247 169.736 81.254 138.594 68.434 105.227C88.304 97.593 108.173 89.959 128.042 82.324C138.459 109.436 153.079 134.74 171.365 157.306Z" fill="url(#paint1_linear_9_248)"/>
<path d="M88.322 107.917C88.509 108.49 88.706 109.041 88.91 109.569C89.116 110.098 89.276 110.497 89.396 110.775C89.525 111.076 89.657 111.364 89.788 111.634C89.919 111.906 90.032 112.136 90.13 112.328C90.001 112.384 89.873 112.44 89.744 112.496C89.203 111.56 88.719 110.846 88.293 110.358C87.865 109.868 87.426 109.573 86.971 109.466C86.516 109.361 85.964 109.448 85.31 109.719C85.068 109.821 84.827 109.922 84.585 110.024C86.188 113.834 87.862 117.611 89.606 121.354C89.85 121.879 90.077 122.253 90.283 122.477C90.489 122.7 90.735 122.794 91.024 122.762C91.313 122.73 91.7 122.615 92.186 122.416C92.248 122.547 92.309 122.676 92.371 122.807C92.05 122.928 91.647 123.101 91.157 123.324C90.669 123.547 90.172 123.78 89.665 124.021C89.136 124.271 88.639 124.511 88.174 124.741C87.71 124.971 87.338 125.164 87.065 125.328C87.002 125.196 86.939 125.062 86.876 124.93C87.338 124.679 87.67 124.454 87.871 124.253C88.074 124.053 88.156 123.8 88.12 123.494C88.084 123.189 87.943 122.773 87.696 122.243C85.941 118.476 84.256 114.674 82.643 110.84C82.396 110.944 82.148 111.048 81.901 111.152C81.271 111.418 80.831 111.756 80.58 112.163C80.329 112.573 80.237 113.108 80.307 113.767C80.376 114.427 80.575 115.291 80.904 116.352C80.775 116.408 80.647 116.464 80.518 116.52C80.451 116.307 80.36 116.057 80.242 115.77C80.124 115.481 79.999 115.183 79.864 114.871C79.742 114.587 79.556 114.18 79.311 113.649C79.066 113.118 78.799 112.575 78.515 112.023C79.005 111.835 79.54 111.626 80.119 111.399C80.698 111.171 81.281 110.937 81.865 110.691C82.449 110.445 82.978 110.222 83.451 110.026C83.925 109.829 84.447 109.609 85.021 109.368C85.595 109.128 86.171 108.879 86.751 108.62C87.332 108.365 87.855 108.129 88.322 107.917Z" fill="url(#paint2_linear_9_248)"/>
<path d="M93.355 105.809C93.627 106.458 93.9 107.105 94.176 107.751C104.811 103.213 115.446 98.675 126.08 94.137C125.835 93.562 125.591 92.985 125.348 92.407C114.684 96.874 104.02 101.342 93.355 105.809Z" fill="url(#paint3_linear_9_248)"/>
<path d="M96.204 112.4C106.765 107.693 117.326 102.985 127.887 98.2781C127.632 97.7061 127.379 97.1341 127.128 96.5601C116.536 101.197 105.944 105.834 95.352 110.471C95.634 111.116 95.918 111.759 96.204 112.4Z" fill="url(#paint4_linear_9_248)"/>
<path d="M98.305 117.015C108.789 112.14 119.274 107.265 129.758 102.39C129.495 101.823 129.232 101.255 128.972 100.685C118.456 105.491 107.939 110.295 97.422 115.101C97.715 115.741 98.009 116.378 98.305 117.015Z" fill="url(#paint5_linear_9_248)"/>
<path d="M100.478 121.593C110.883 116.551 121.289 111.51 131.694 106.468C131.421 105.905 131.15 105.341 130.881 104.776C120.442 109.749 110.004 114.721 99.565 119.694C99.868 120.329 100.172 120.962 100.478 121.593Z" fill="url(#paint6_linear_9_248)"/>
<path d="M88.361 133.38C103.472 125.758 118.584 118.137 133.696 110.515C133.415 109.957 133.134 109.397 132.857 108.837C117.695 116.358 102.534 123.88 87.372 131.401C87.699 132.062 88.028 132.721 88.361 133.38Z" fill="url(#paint7_linear_9_248)"/>
<path d="M90.795 138.113C105.783 130.251 120.771 122.39 135.759 114.528C135.469 113.975 135.18 113.42 134.894 112.865C119.854 120.627 104.814 128.389 89.774 136.151C90.112 136.805 90.453 137.459 90.795 138.113Z" fill="url(#paint8_linear_9_248)"/>
<path d="M93.305 142.805C108.166 134.705 123.027 126.606 137.887 118.506C137.588 117.957 137.291 117.408 136.995 116.857C122.081 124.858 107.166 132.859 92.252 140.86C92.601 141.51 92.952 142.158 93.305 142.805Z" fill="url(#paint9_linear_9_248)"/>
<path d="M95.888 147.457C110.618 139.121 125.348 130.786 140.077 122.45C139.769 121.906 139.463 121.361 139.159 120.815C124.374 129.052 109.589 137.29 94.805 145.528C95.164 146.172 95.525 146.816 95.888 147.457Z" fill="url(#paint10_linear_9_248)"/>
<path d="M98.545 152.066C113.14 143.497 127.735 134.928 142.33 126.358C142.014 125.819 141.699 125.279 141.386 124.738C126.734 133.21 112.083 141.683 97.431 150.155C97.801 150.794 98.172 151.431 98.545 152.066Z" fill="url(#paint11_linear_9_248)"/>
<path d="M101.276 156.633C115.733 147.833 130.189 139.032 144.646 130.231C144.321 129.697 143.998 129.162 143.677 128.626C129.163 137.331 114.648 146.035 100.133 154.74C100.511 155.373 100.892 156.003 101.276 156.633Z" fill="url(#paint12_linear_9_248)"/>
<path d="M104.079 161.156C118.393 152.126 132.708 143.096 147.023 134.066C146.69 133.538 146.358 133.007 146.028 132.477C131.654 141.412 117.28 150.347 102.906 159.282C103.294 159.908 103.685 160.533 104.079 161.156Z" fill="url(#paint13_linear_9_248)"/>
<path d="M106.954 165.634C121.123 156.377 135.291 147.12 149.46 137.863C149.118 137.34 148.778 136.815 148.439 136.29C134.209 145.453 119.98 154.616 105.75 163.779C106.149 164.398 106.551 165.017 106.954 165.634Z" fill="url(#paint14_linear_9_248)"/>
<path d="M109.901 170.068C123.92 160.586 137.94 151.104 151.959 141.622C151.609 141.104 151.26 140.585 150.913 140.064C136.831 149.453 122.749 158.842 108.667 168.23C109.077 168.844 109.488 169.457 109.901 170.068Z" fill="url(#paint15_linear_9_248)"/>
<path d="M112.919 174.454C126.785 164.75 140.652 155.045 154.518 145.341C154.16 144.829 153.803 144.315 153.447 143.8C139.517 153.412 125.586 163.024 111.656 172.636C112.075 173.244 112.496 173.85 112.919 174.454Z" fill="url(#paint16_linear_9_248)"/>
<path d="M116.008 178.794C129.718 168.87 143.428 158.946 157.137 149.022C156.77 148.515 156.405 148.006 156.041 147.497C142.266 157.33 128.491 167.164 114.715 176.996C115.145 177.597 115.575 178.195 116.008 178.794Z" fill="url(#paint17_linear_9_248)"/>
<path d="M119.167 183.085C132.717 172.943 146.266 162.802 159.816 152.66C159.441 152.159 159.067 151.656 158.696 151.153C145.079 161.205 131.463 171.257 117.846 181.308C118.285 181.902 118.725 182.494 119.167 183.085Z" fill="url(#paint18_linear_9_248)"/>
<path d="M398.968 222.539C399.338 222.679 399.514 223.119 399.359 223.523C381.644 269.786 350.289 309.702 309.315 337.889C308.958 338.135 308.487 338.069 308.264 337.742C308.041 337.415 308.149 336.955 308.504 336.711C349.239 308.689 380.411 269.005 398.023 223.012C398.176 222.61 398.599 222.399 398.968 222.539Z" fill="url(#paint19_linear_9_248)"/>
<path d="M344.146 286.803C344.237 286.769 344.33 286.738 344.421 286.707C347.051 285.84 348.201 288.797 348.668 290.844C349.93 296.148 349.127 302.656 349.112 302.655C349.106 302.658 345.15 297.842 343.041 292.873C342.485 291.562 341.866 289.881 342.322 288.434C342.596 287.569 343.339 287.104 344.146 286.803Z" fill="url(#paint20_linear_9_248)"/>
<path d="M351.02 278.503C351.109 278.465 351.2 278.429 351.29 278.395C353.875 277.408 355.163 280.305 355.726 282.329C357.235 287.567 356.741 294.102 356.726 294.101C356.72 294.104 352.542 289.48 350.202 284.616C349.584 283.333 348.887 281.684 349.275 280.217C349.508 279.34 350.229 278.841 351.02 278.503Z" fill="url(#paint21_linear_9_248)"/>
<path d="M357.497 269.893C357.585 269.85 357.673 269.811 357.762 269.772C360.299 268.665 361.721 271.499 362.377 273.494C364.129 278.655 363.943 285.205 363.928 285.204C363.923 285.208 359.532 280.784 356.967 276.035C356.29 274.782 355.516 273.167 355.835 271.685C356.026 270.8 356.722 270.268 357.497 269.893Z" fill="url(#paint22_linear_9_248)"/>
<path d="M363.566 260.988C363.652 260.941 363.738 260.897 363.825 260.855C366.307 259.628 367.86 262.395 368.609 264.357C370.601 269.432 370.719 275.983 370.705 275.984C370.7 275.988 366.107 271.774 363.323 267.151C362.589 265.931 361.74 264.354 361.989 262.858C362.138 261.963 362.81 261.399 363.566 260.988Z" fill="url(#paint23_linear_9_248)"/>
<path d="M369.215 251.802C369.298 251.752 369.383 251.703 369.468 251.656C371.892 250.313 373.571 253.004 374.411 254.931C376.636 259.91 377.059 266.452 377.045 266.453C377.04 266.457 372.255 262.463 369.259 257.973C368.469 256.788 367.547 255.252 367.727 253.745C367.834 252.844 368.478 252.249 369.215 251.802Z" fill="url(#paint24_linear_9_248)"/>
<path d="M374.435 242.349C374.515 242.295 374.598 242.242 374.681 242.191C377.041 240.732 378.844 243.344 379.772 245.23C382.225 250.104 382.952 256.624 382.937 256.626C382.932 256.63 377.966 252.864 374.764 248.517C373.919 247.37 372.928 245.878 373.037 244.362C373.103 243.457 373.719 242.83 374.435 242.349Z" fill="url(#paint25_linear_9_248)"/>
<path d="M379.214 232.643C379.292 232.585 379.372 232.529 379.452 232.474C381.743 230.901 383.664 233.428 384.679 235.272C387.357 240.032 388.383 246.519 388.369 246.522C388.365 246.526 383.228 242.996 379.827 238.8C378.93 237.693 377.87 236.247 377.91 234.726C377.933 233.816 378.521 233.159 379.214 232.643Z" fill="url(#paint26_linear_9_248)"/>
<path d="M383.541 222.699C383.617 222.637 383.693 222.576 383.771 222.518C385.987 220.833 388.025 223.271 389.124 225.067C392.02 229.704 393.345 236.148 393.331 236.15C393.327 236.155 388.031 232.868 384.438 228.831C383.49 227.766 382.365 226.371 382.334 224.845C382.316 223.935 382.873 223.249 383.541 222.699Z" fill="url(#paint27_linear_9_248)"/>
<path d="M368.951 301.783C368.977 301.68 369 301.576 369.021 301.472C369.62 298.512 366.375 298.05 364.238 297.965C358.659 297.793 352.277 299.212 352.275 299.198C352.277 299.192 357.393 302.769 362.715 304.143C364.116 304.505 365.926 304.848 367.413 304.061C368.3 303.59 368.723 302.699 368.951 301.783Z" fill="url(#paint28_linear_9_248)"/>
<path d="M376.498 292.308C376.519 292.204 376.537 292.099 376.554 291.994C377.013 289.01 373.751 288.7 371.612 288.714C366.031 288.802 359.725 290.515 359.723 290.502C359.725 290.496 365.003 293.83 370.381 294.955C371.797 295.251 373.62 295.509 375.069 294.654C375.933 294.144 376.313 293.233 376.498 292.308Z" fill="url(#paint29_linear_9_248)"/>
<path d="M383.593 282.491C383.609 282.385 383.623 282.28 383.634 282.175C383.953 279.172 380.679 279.015 378.544 279.13C372.972 279.479 366.754 281.485 366.751 281.471C366.752 281.465 372.181 284.549 377.606 285.421C379.034 285.651 380.868 285.823 382.275 284.901C383.114 284.352 383.452 283.424 383.593 282.491Z" fill="url(#paint30_linear_9_248)"/>
<path d="M390.224 272.349C390.235 272.243 390.244 272.137 390.25 272.031C390.429 269.015 387.151 269.013 385.023 269.228C379.472 269.841 373.354 272.136 373.351 272.122C373.352 272.115 378.918 274.943 384.379 275.558C385.817 275.72 387.657 275.806 389.019 274.819C389.832 274.23 390.127 273.288 390.224 272.349Z" fill="url(#paint31_linear_9_248)"/>
<path d="M396.379 261.897C396.384 261.79 396.389 261.684 396.39 261.578C396.429 258.554 393.153 258.707 391.037 259.023C385.519 259.899 379.512 262.482 379.508 262.469C379.509 262.462 385.202 265.025 390.686 265.383C392.13 265.478 393.973 265.476 395.288 264.425C396.075 263.797 396.325 262.841 396.379 261.897Z" fill="url(#paint32_linear_9_248)"/>
<path d="M402.046 251.152C402.047 251.045 402.046 250.938 402.043 250.832C401.944 247.805 398.676 248.115 396.576 248.532C391.102 249.671 385.22 252.539 385.215 252.527C385.216 252.521 391.023 254.813 396.52 254.909C397.967 254.935 399.808 254.846 401.074 253.732C401.83 253.067 402.035 252.098 402.046 251.152Z" fill="url(#paint33_linear_9_248)"/>
<path d="M407.212 240.13C407.208 240.023 407.202 239.916 407.194 239.81C406.954 236.785 403.704 237.251 401.625 237.77C396.207 239.172 390.462 242.324 390.456 242.311C390.456 242.304 396.365 244.321 401.863 244.154C403.31 244.11 405.147 243.934 406.36 242.758C407.084 242.056 407.245 241.077 407.212 240.13Z" fill="url(#paint34_linear_9_248)"/>
<path d="M411.866 228.846C411.858 228.739 411.846 228.632 411.833 228.526C411.454 225.508 408.227 226.132 406.173 226.752C400.824 228.418 395.228 231.849 395.222 231.836C395.223 231.829 401.22 233.564 406.706 233.133C408.15 233.019 409.977 232.755 411.136 231.519C411.827 230.782 411.943 229.794 411.866 228.846Z" fill="url(#paint35_linear_9_248)"/>
<path d="M403.097 210.811C403.006 210.78 402.914 210.752 402.822 210.725C400.197 209.98 399.044 213.187 398.477 215.338C397.049 220.929 396.903 227.59 396.892 227.601C396.891 227.618 401.513 222.721 403.956 217.29C404.604 215.869 405.312 214.019 404.893 212.47C404.644 211.546 403.902 211.084 403.097 210.811Z" fill="url(#paint36_linear_9_248)"/>
<path d="M353.498 170.284C353.891 170.328 354.171 170.711 354.12 171.14C348.436 220.351 327.964 266.799 295.264 304.27C294.979 304.597 294.507 304.649 294.21 304.388C293.913 304.127 293.903 303.654 294.186 303.329C326.695 266.077 347.048 219.9 352.699 170.976C352.749 170.549 353.106 170.241 353.498 170.284Z" fill="url(#paint37_linear_9_248)"/>
<path d="M316.333 246.14C316.413 246.084 316.494 246.031 316.576 245.979C318.909 244.486 320.756 247.066 321.717 248.933C324.255 253.758 325.092 260.262 325.077 260.264C325.072 260.269 320.045 256.585 316.769 252.294C315.905 251.161 314.888 249.687 314.971 248.172C315.022 247.266 315.626 246.631 316.333 246.14Z" fill="url(#paint38_linear_9_248)"/>
<path d="M320.933 236.394C321.01 236.335 321.089 236.278 321.168 236.222C323.428 234.624 325.394 237.111 326.441 238.932C329.202 243.632 330.345 250.085 330.33 250.088C330.325 250.093 325.13 246.649 321.657 242.518C320.74 241.428 319.656 240.003 319.668 238.487C319.676 237.58 320.251 236.918 320.933 236.394Z" fill="url(#paint39_linear_9_248)"/>
<path d="M325.072 226.447C325.147 226.384 325.222 226.324 325.299 226.264C327.482 224.562 329.563 226.955 330.693 228.725C333.671 233.29 335.115 239.681 335.101 239.685C335.097 239.69 329.746 236.493 326.083 232.53C325.116 231.484 323.966 230.111 323.907 228.597C323.871 227.69 324.414 227.002 325.072 226.447Z" fill="url(#paint40_linear_9_248)"/>
<path d="M328.741 216.315C328.813 216.248 328.885 216.184 328.959 216.121C331.059 214.317 333.25 216.611 334.463 218.326C337.651 222.748 339.391 229.066 339.378 229.07C339.374 229.075 333.879 226.132 330.035 222.344C329.021 221.344 327.807 220.028 327.678 218.516C327.6 217.613 328.111 216.9 328.741 216.315Z" fill="url(#paint41_linear_9_248)"/>
<path d="M331.935 206.014C332.003 205.945 332.073 205.876 332.144 205.81C334.159 203.908 336.453 206.097 337.745 207.756C341.136 212.027 343.169 218.26 343.155 218.264C343.151 218.269 337.525 215.587 333.508 211.981C332.449 211.029 331.175 209.77 330.975 208.265C330.855 207.366 331.332 206.629 331.935 206.014Z" fill="url(#paint42_linear_9_248)"/>
<path d="M334.646 195.561C334.71 195.488 334.777 195.417 334.845 195.347C336.769 193.348 339.164 195.431 340.531 197.029C344.117 201.142 346.438 207.278 346.425 207.283C346.422 207.288 340.676 204.872 336.496 201.455C335.393 200.554 334.062 199.354 333.792 197.858C333.631 196.965 334.072 196.205 334.646 195.561Z" fill="url(#paint43_linear_9_248)"/>
<path d="M336.868 184.973C336.929 184.897 336.992 184.823 337.057 184.75C338.886 182.658 341.374 184.629 342.815 186.163C346.59 190.11 349.194 196.14 349.181 196.145C349.178 196.15 343.326 194.005 338.99 190.784C337.846 189.934 336.461 188.797 336.122 187.313C335.918 186.427 336.325 185.645 336.868 184.973Z" fill="url(#paint44_linear_9_248)"/>
<path d="M338.593 174.267C338.651 174.188 338.71 174.11 338.771 174.034C340.5 171.852 343.079 173.708 344.589 175.176C348.544 178.949 351.427 184.863 351.414 184.869C351.411 184.874 345.465 183.005 340.984 179.985C339.802 179.189 338.365 178.116 337.957 176.646C337.713 175.768 338.082 174.965 338.593 174.267Z" fill="url(#paint45_linear_9_248)"/>
<path d="M344.079 254.498C344.079 254.392 344.075 254.285 344.07 254.179C343.916 251.163 340.657 251.52 338.567 251.968C333.119 253.185 327.289 256.143 327.284 256.13C327.285 256.123 333.128 258.32 338.624 258.33C340.071 258.333 341.91 258.216 343.155 257.085C343.897 256.41 344.085 255.442 344.079 254.498Z" fill="url(#paint46_linear_9_248)"/>
<path d="M349.04 243.447C349.035 243.341 349.026 243.235 349.016 243.129C348.721 240.125 345.484 240.634 343.415 241.178C338.031 242.648 332.347 245.872 332.341 245.859C332.341 245.853 338.281 247.773 343.771 247.528C345.216 247.463 347.047 247.261 348.238 246.074C348.948 245.365 349.09 244.389 349.04 243.447Z" fill="url(#paint47_linear_9_248)"/>
<path d="M353.477 232.177C353.466 232.071 353.453 231.965 353.438 231.86C353.002 228.872 349.791 229.532 347.752 230.173C342.441 231.893 336.915 235.38 336.909 235.367C336.909 235.361 342.932 237.001 348.404 236.5C349.845 236.368 351.664 236.08 352.798 234.838C353.475 234.098 353.572 233.116 353.477 232.177Z" fill="url(#paint48_linear_9_248)"/>
<path d="M357.385 220.707C357.369 220.601 357.352 220.497 357.332 220.392C356.758 217.426 353.581 218.237 351.573 218.973C346.348 220.943 340.99 224.685 340.983 224.673C340.983 224.666 347.076 226.024 352.519 225.266C353.952 225.066 355.756 224.693 356.831 223.399C357.472 222.626 357.523 221.64 357.385 220.707Z" fill="url(#paint49_linear_9_248)"/>
<path d="M360.754 209.055C360.733 208.95 360.711 208.846 360.686 208.743C359.974 205.804 356.838 206.765 354.867 207.596C349.739 209.813 344.56 213.806 344.554 213.794C344.553 213.787 350.704 214.858 356.106 213.843C357.529 213.576 359.313 213.118 360.327 211.773C360.932 210.97 360.936 209.982 360.754 209.055Z" fill="url(#paint50_linear_9_248)"/>
<path d="M363.578 197.239C363.553 197.135 363.525 197.032 363.496 196.93C362.649 194.022 359.56 195.133 357.629 196.058C352.609 198.52 347.622 202.757 347.615 202.746C347.615 202.74 353.808 203.519 359.158 202.249C360.566 201.915 362.328 201.373 363.278 199.979C363.844 199.148 363.802 198.158 363.578 197.239Z" fill="url(#paint51_linear_9_248)"/>
<path d="M365.848 185.28C365.818 185.177 365.785 185.075 365.751 184.975C364.768 182.104 361.735 183.362 359.85 184.381C354.95 187.083 350.165 191.562 350.157 191.551C350.156 191.544 356.38 192.032 361.665 190.507C363.056 190.105 364.792 189.479 365.675 188.039C366.203 187.178 366.115 186.189 365.848 185.28Z" fill="url(#paint52_linear_9_248)"/>
<path d="M367.557 173.195C367.523 173.094 367.485 172.993 367.446 172.894C366.33 170.065 363.359 171.47 361.523 172.58C356.754 175.521 352.185 180.233 352.175 180.222C352.174 180.215 358.414 180.408 363.622 178.629C364.993 178.161 366.697 177.451 367.513 175.966C368 175.079 367.867 174.094 367.557 173.195Z" fill="url(#paint53_linear_9_248)"/>
<path d="M354.589 157.899C354.494 157.892 354.397 157.887 354.301 157.884C351.573 157.813 351.251 161.207 351.236 163.43C351.24 169.201 352.751 175.689 352.743 175.702C352.746 175.718 356.009 169.828 357.028 163.961C357.303 162.424 357.53 160.456 356.74 159.059C356.27 158.227 355.436 157.964 354.589 157.899Z" fill="url(#paint54_linear_9_248)"/>
<path d="M256.658 217.034L231.114 162.408L224.719 155.259C224.719 155.259 227.272 200.681 215.528 217.034H256.658Z" fill="url(#paint55_linear_9_248)"/>
<path d="M200.974 202.304C200.974 202.304 178.506 216.64 165.995 250.29L192.499 268.62L211.953 259.237L200.974 202.304Z" fill="url(#paint56_linear_9_248)"/>
<path d="M339.867 259.259C339.867 259.259 347.271 266.068 349.224 295.173L301.059 283.599C301.059 283.599 327.101 258.408 339.867 259.259Z" fill="#D9906E"/>
<path d="M295.953 140.773C295.953 140.773 294.932 183.818 313.825 228.296H250.486L260.208 146.392L295.953 140.773Z" fill="url(#paint57_linear_9_248)"/>
<path d="M306.579 208.46C306.579 208.46 339.867 217.034 354.591 286.833L299.697 281.474L306.579 208.46Z" fill="url(#paint58_linear_9_248)"/>
<path d="M306.363 234.578L301.036 267.271L299.697 281.474L327.04 284.143L306.363 234.578Z" fill="url(#paint59_linear_9_248)"/>
<path d="M306.579 208.46L268.095 197.394L231.215 196.385L200.974 202.304L183.612 304.195H313.825L306.579 208.46Z" fill="url(#paint60_linear_9_248)"/>
<g opacity="0.4">
<path d="M312.756 294.253C290.521 288.859 268.251 282.88 247.669 272.887C229.394 264.014 212.393 251.728 200.146 235.615C202.895 248.739 205.644 261.862 208.393 274.986C209.546 280.491 210.759 286.143 213.856 290.838C217.788 296.796 224.289 300.512 230.764 303.514C231.264 303.746 231.768 303.969 232.271 304.195H301.113C304.837 300.674 308.397 296.9 312.756 294.253Z" fill="url(#paint61_linear_9_248)"/>
</g>
<path d="M256.658 108.85C256.658 108.85 229.059 95.5811 214.506 117.539C199.953 139.496 227.017 158.241 227.017 158.241L256.658 108.85Z" fill="url(#paint62_linear_9_248)"/>
<path opacity="0.8" d="M250.732 194.463C250.966 194.977 155.375 194.463 155.375 194.463C155.375 194.463 160.048 183.75 177.314 184.521C177.314 184.521 184.556 166.066 199.593 165.856C214.63 165.646 218.389 178.962 218.389 178.962C218.389 178.962 234.679 177.888 238.021 189.195C238.021 189.195 247.989 188.425 250.732 194.463Z" fill="url(#paint63_linear_9_248)"/>
<path opacity="0.8" d="M336.497 90.989C336.763 91.575 227.813 90.989 227.813 90.989C227.813 90.989 233.139 78.779 252.818 79.657C252.818 79.657 261.072 58.623 278.21 58.384C295.349 58.145 299.633 73.321 299.633 73.321C299.633 73.321 318.2 72.097 322.008 84.984C322.008 84.984 333.371 84.107 336.497 90.989Z" fill="url(#paint64_linear_9_248)"/>
<path d="M361.213 49.748C335.277 49.748 314.251 65.426 314.251 84.765C314.251 92.839 317.926 100.269 324.082 106.192L313.542 119.782L332.308 112.352C340.279 117.002 350.308 119.782 361.213 119.782C387.15 119.782 408.176 104.104 408.176 84.765C408.176 65.426 387.15 49.748 361.213 49.748Z" fill="url(#paint65_linear_9_248)"/>
<path d="M340.909 80.354C338.473 80.354 336.498 82.329 336.498 84.765C336.498 87.201 338.473 89.176 340.909 89.176C343.345 89.176 345.32 87.201 345.32 84.765C345.32 82.329 343.345 80.354 340.909 80.354Z" fill="white"/>
<path d="M362.329 80.354C359.893 80.354 357.918 82.329 357.918 84.765C357.918 87.201 359.893 89.176 362.329 89.176C364.765 89.176 366.74 87.201 366.74 84.765C366.74 82.329 364.766 80.354 362.329 80.354Z" fill="white"/>
<path d="M383.75 80.354C381.314 80.354 379.339 82.329 379.339 84.765C379.339 87.201 381.314 89.176 383.75 89.176C386.186 89.176 388.161 87.201 388.161 84.765C388.161 82.329 386.186 80.354 383.75 80.354Z" fill="white"/>
<path d="M19.312 302.382H34.319V231.991H19.312V302.382Z" fill="url(#paint66_linear_9_248)"/>
<path d="M34.319 302.382H72.489V231.991H34.319V302.382Z" fill="url(#paint67_linear_9_248)"/>
<path d="M22.378 287.716H31.253V246.657H22.378V287.716Z" fill="url(#paint68_linear_9_248)"/>
<path d="M41.325 302.382H52.533V242.283H41.325V302.382Z" fill="url(#paint69_linear_9_248)"/>
<path d="M44.006 298.342H49.852V246.323H44.006V298.342Z" fill="url(#paint70_linear_9_248)"/>
<path d="M52.533 302.382H90.703V242.283H52.533V302.382Z" fill="url(#paint71_linear_9_248)"/>
<path opacity="0.2" d="M52.533 302.382H90.703V242.283H52.533V302.382Z" fill="url(#paint72_linear_9_248)"/>
<path d="M19.312 239.866H34.319V237.034H19.312V239.866Z" fill="url(#paint73_linear_9_248)"/>
<path d="M19.312 297.684H34.319V294.853H19.312V297.684Z" fill="url(#paint74_linear_9_248)"/>
<path d="M57.001 272.825H86.235V251.791H57.001V272.825Z" fill="url(#paint75_linear_9_248)"/>
<path d="M264.738 176.961H249.604H234.47C234.47 176.961 234.103 185.777 231.394 196.603C229.418 204.5 238.128 211.734 249.604 211.734C261.08 211.734 269.79 204.5 267.814 196.603C265.105 185.777 264.738 176.961 264.738 176.961Z" fill="url(#paint76_linear_9_248)"/>
<path d="M249.604 180.327H245.927L242.274 181.515L233.813 181.607C233.799 181.75 233.828 183.644 233.813 183.796C235.354 185.631 244.76 194.011 267.163 193.849C265.675 186.027 265.047 179.566 265.047 179.566L249.604 180.327Z" fill="url(#paint77_linear_9_248)"/>
<path d="M288.342 152.717C283.148 149.598 278.79 154.589 278.79 154.589C285.428 120.193 256.312 116.602 256.312 116.602C256.312 116.602 227.688 110.463 221.05 144.86C221.05 144.86 219.195 150.91 220.111 160.022C220.111 160.022 221.503 183.701 242.675 187.269C263.846 190.837 274.002 169.103 274.002 169.103C289.336 173.311 294.231 156.253 288.342 152.717Z" fill="url(#paint78_linear_9_248)"/>
<path d="M231.113 119.921C231.113 119.921 246.931 164.006 279.867 157.368C279.867 157.368 293.399 153.283 295.952 140.772C298.505 128.261 285.229 100.327 257.399 108.294C257.399 108.294 231.879 102.815 231.113 119.921Z" fill="url(#paint79_linear_9_248)"/>
<path d="M208.66 294.663H87.776V302.382H208.66V294.663Z" fill="url(#paint80_linear_9_248)"/>
<path d="M280.321 294.663H208.661V302.382H280.321V294.663Z" fill="url(#paint81_linear_9_248)"/>
<path d="M310.56 275.717C303.336 275.468 247.867 272.897 247.867 272.897L250.683 294.876C250.683 294.876 299.245 308.681 314.353 310.701C352.449 315.795 370.218 277.775 310.56 275.717Z" fill="url(#paint82_linear_9_248)"/>
<path d="M397.878 313.729H5.62101C2.72201 313.729 0.372009 311.379 0.372009 308.48V307.631C0.372009 304.732 2.72201 302.382 5.62101 302.382H397.878C400.777 302.382 403.127 304.732 403.127 307.631V308.48C403.127 311.379 400.777 313.729 397.878 313.729Z" fill="#DEA63F"/>
<path d="M398.271 308.055H5.22801C3.43501 308.055 1.88701 306.907 1.04601 305.218C0.629009 306.055 0.372009 307.016 0.372009 308.055C0.372009 311.188 2.54601 313.728 5.22801 313.728H398.271C400.953 313.728 403.127 311.188 403.127 308.055C403.127 307.016 402.871 306.056 402.453 305.218C401.612 306.907 400.064 308.055 398.271 308.055Z" fill="#D27A3F"/>
<path d="M391.334 313.729H12.102V359.852H391.334V313.729Z" fill="url(#paint83_linear_9_248)"/>
<path d="M248.293 272.536C248.293 272.536 237.91 261.642 216.463 270.834C203.58 276.355 202.617 279.157 202.617 279.157L205.058 294.664L213.766 294.705C217.686 292.771 223.488 290.024 224.973 289.941C226.818 289.839 236.887 293.056 241.381 294.834L250.682 294.877L256.376 280.622L248.293 272.536Z" fill="url(#paint84_linear_9_248)"/>
<path d="M204.017 288.049L223.122 277.871C212.701 280.58 206.746 284.622 203.868 287.102L204.017 288.049Z" fill="#D9906E"/>
<path d="M204.808 293.071L204.957 294.017L224.064 283.838C213.641 286.549 207.687 290.592 204.808 293.071Z" fill="#D9906E"/>
<path d="M203.207 282.898L222.229 272.764C211.9 275.449 205.961 279.443 203.054 281.928L203.207 282.898Z" fill="#D9906E"/>
<path d="M202.742 221.39C202.347 218.882 200.185 217.034 197.646 217.034H85.773C83.357 217.034 81.511 219.193 81.887 221.58L93.393 294.663H214.277L202.742 221.39Z" fill="url(#paint85_linear_9_248)"/>
<path d="M197.125 221.39C196.73 218.882 194.568 217.034 192.029 217.034H80.156C77.739 217.034 75.894 219.193 76.27 221.58L87.776 294.663H208.66L197.125 221.39Z" fill="url(#paint86_linear_9_248)"/>
<path opacity="0.7" d="M148.01 255.583C148.511 260.608 145.011 265.071 140.194 265.551C135.377 266.031 131.065 262.347 130.564 257.322C130.063 252.297 133.562 247.834 138.38 247.354C143.198 246.873 147.509 250.557 148.01 255.583Z" fill="white"/>
<path d="M64.384 170.529L67.962 173.873C68.372 174.256 68.945 174.413 69.493 174.293L74.276 173.241C75.657 172.938 76.786 174.349 76.187 175.629L74.112 180.065C73.874 180.574 73.902 181.166 74.186 181.651L76.664 185.875C77.379 187.094 76.386 188.604 74.983 188.431L70.123 187.829C69.566 187.76 69.01 187.97 68.638 188.389L65.386 192.051C64.447 193.108 62.704 192.63 62.436 191.242L61.507 186.433C61.401 185.882 61.03 185.418 60.515 185.194L56.027 183.233C54.732 182.667 54.647 180.861 55.885 180.177L60.171 177.808C60.662 177.536 60.988 177.04 61.043 176.482L61.521 171.608C61.66 170.202 63.352 169.564 64.384 170.529Z" fill="url(#paint87_linear_9_248)"/>
<path d="M339.706 138.041L340.381 142.892C340.458 143.448 340.804 143.93 341.306 144.182L345.685 146.376C346.949 147.009 346.938 148.817 345.666 149.435L341.261 151.576C340.756 151.821 340.404 152.299 340.32 152.855L339.586 157.697C339.374 159.095 337.652 159.643 336.671 158.625L333.274 155.097C332.885 154.693 332.321 154.506 331.767 154.597L326.935 155.396C325.54 155.626 324.487 154.158 325.152 152.91L327.457 148.589C327.721 148.094 327.725 147.5 327.467 147.002L325.214 142.653C324.564 141.398 325.635 139.942 327.027 140.189L331.849 141.046C332.402 141.144 332.967 140.964 333.362 140.565L336.802 137.079C337.795 136.072 339.511 136.641 339.706 138.041Z" fill="url(#paint88_linear_9_248)"/>
<path d="M190.671 23.233C186.929 24.032 184.05 25.375 184.05 25.375C184.05 25.375 181.102 26.56 177.962 28.747C173.132 32.112 169.959 37.71 169.766 43.662C169.523 51.124 174.461 56.977 179.991 61.381C183.536 64.205 187.371 66.666 190.707 69.751C191.386 70.379 196.756 77.286 197.134 77.121L205.017 73.701L212.9 70.281C212.863 70.297 211.757 60.404 211.824 59.417C212.381 51.241 214.788 42.444 212.045 34.627C211.969 34.411 211.889 34.196 211.805 33.983C208.636 25.956 199.567 21.334 190.671 23.233Z" fill="url(#paint89_linear_9_248)"/>
<g opacity="0.2">
<path d="M184.1 25.3521C184.074 25.3641 184.058 25.3711 184.055 25.3731L184.059 25.3711C184.059 25.3711 184.075 25.3631 184.1 25.3521Z" fill="white"/>
<path d="M190.671 23.233C187.592 23.89 185.102 24.914 184.314 25.257C185.003 24.959 187.024 24.15 189.549 23.72C196.989 22.453 205 27.534 208.217 35.541C208.302 35.754 208.385 35.968 208.463 36.183C211.304 43.958 209.829 52.35 209.886 60.26C209.893 61.214 211.476 70.9 211.507 70.887L212.901 70.282C212.864 70.298 211.758 60.405 211.825 59.418C212.382 51.242 214.789 42.445 212.046 34.628C211.97 34.412 211.89 34.197 211.806 33.984C208.636 25.956 199.567 21.334 190.671 23.233Z" fill="white"/>
<path d="M192.603 68.9291C189.566 65.7141 186.145 63.0731 182.948 60.0981C177.961 55.4581 173.382 49.4501 173.103 42.2141C172.881 36.4421 175.214 31.2081 179.103 28.2521C181.135 26.7071 183.101 25.7851 183.795 25.4821C183.019 25.8171 180.56 26.9371 177.963 28.7461C173.133 32.1111 169.96 37.7091 169.767 43.6611C169.524 51.1231 174.462 56.9761 179.992 61.3801C183.537 64.2041 187.372 66.6651 190.708 69.7501C191.387 70.3781 196.757 77.285 197.135 77.12L198.547 76.5071C198.235 76.6441 193.22 69.5831 192.603 68.9291Z" fill="white"/>
</g>
<path d="M204.746 44.7011C203.694 42.9551 201.732 42.1461 199.746 42.6421C198.595 42.9291 197.735 43.5771 197.263 44.5181C196.26 46.5151 197.295 49.1101 197.42 49.4101L198.738 52.4481C197.793 52.9401 197.129 53.1701 197.115 53.1751L194.653 54.2401L194.585 54.2731C194.572 54.2801 193.951 54.6091 192.947 54.9641L191.624 51.9141C191.495 51.6281 190.307 49.0991 188.164 48.4671C187.155 48.1691 186.094 48.3551 185.098 48.9991C183.38 50.1111 182.629 52.0961 183.186 54.0571C183.778 56.1401 185.659 57.5701 187.869 57.6151C189.364 57.6451 190.764 57.4231 191.944 57.1261L198.433 72.0831L200.068 71.3741L193.659 56.6021C194.607 56.2591 195.235 55.9441 195.394 55.8591L197.723 54.8481C197.895 54.7881 198.554 54.5471 199.451 54.0881L205.86 68.8601L207.495 68.1511L201.006 53.1941C202.029 52.5361 203.148 51.6651 204.147 50.5521C205.621 48.9071 205.863 46.5561 204.746 44.7011ZM191.222 55.4661C190.237 55.6951 189.101 55.8581 187.904 55.8341C186.15 55.7981 185.188 54.5911 184.898 53.5681C184.628 52.6191 184.793 51.3121 186.063 50.4911C186.202 50.4011 186.339 50.3271 186.474 50.2681C186.882 50.0911 187.271 50.0591 187.653 50.1711C188.809 50.5091 189.737 52.0701 189.992 52.6311L191.222 55.4661ZM202.82 49.3631C202.022 50.2511 201.126 50.9691 200.284 51.5331L199.06 48.7121C198.819 48.1311 198.313 46.3871 198.856 45.3111C199.035 44.9561 199.324 44.6931 199.732 44.5161C199.866 44.4581 200.014 44.4081 200.175 44.3681C201.643 44.0021 202.71 44.7741 203.218 45.6191C203.767 46.5301 203.992 48.0571 202.82 49.3631Z" fill="#D27A3F"/>
<path d="M217.532 75.3081C218.619 77.8141 215.068 81.7701 209.599 84.1421C204.13 86.5151 198.815 86.4061 197.728 83.9001C196.641 81.3941 200.192 77.4381 205.661 75.0661C211.13 72.6931 216.445 72.8011 217.532 75.3081Z" fill="url(#paint90_linear_9_248)"/>
<path d="M216.935 73.932L197.131 82.524L193.278 73.644L213.082 65.051L216.935 73.932Z" fill="url(#paint91_linear_9_248)"/>
<path d="M212.677 62.6301L191.787 71.6931C191.034 72.0201 190.691 72.9001 191.021 73.6601C191.351 74.4201 192.228 74.7711 192.981 74.4451L213.871 65.3821C214.624 65.0551 214.967 64.1751 214.637 63.4151C214.307 62.6551 213.429 62.3041 212.677 62.6301Z" fill="url(#paint92_linear_9_248)"/>
<path d="M214.779 67.475L193.889 76.538C193.136 76.865 192.793 77.745 193.123 78.505C193.453 79.265 194.33 79.616 195.083 79.29L215.973 70.227C216.726 69.9 217.069 69.019 216.739 68.26C216.409 67.5 215.532 67.149 214.779 67.475Z" fill="url(#paint93_linear_9_248)"/>
<path d="M216.881 72.32L195.991 81.3829C195.238 81.7099 194.895 82.59 195.225 83.35C195.555 84.11 196.432 84.4609 197.185 84.1349L218.075 75.072C218.828 74.745 219.171 73.8649 218.841 73.1049C218.511 72.3449 217.634 71.993 216.881 72.32Z" fill="url(#paint94_linear_9_248)"/>
<path d="M226.892 13.194C226.446 12.615 225.617 12.507 225.036 12.951L217.536 18.715C216.957 19.161 216.848 19.991 217.293 20.571C217.67 21.062 218.325 21.215 218.869 20.979C218.967 20.937 219.061 20.881 219.15 20.814L226.65 15.05C227.228 14.605 227.337 13.774 226.892 13.194Z" fill="url(#paint95_linear_9_248)"/>
<path d="M205.516 0.87599C204.788 0.78099 204.127 1.29199 204.032 2.01599L202.805 11.396C202.71 12.121 203.222 12.785 203.945 12.88C204.192 12.912 204.43 12.874 204.643 12.782C205.055 12.603 205.367 12.218 205.429 11.74L206.656 2.35999C206.751 1.63499 206.24 0.96999 205.516 0.87599Z" fill="url(#paint96_linear_9_248)"/>
<path d="M232.156 35.535L222.776 34.307C222.049 34.212 221.386 34.724 221.292 35.447C221.197 36.172 221.707 36.836 222.433 36.931L231.813 38.159C232.059 38.191 232.298 38.153 232.511 38.061C232.924 37.882 233.235 37.497 233.297 37.019C233.391 36.295 232.881 35.63 232.156 35.535Z" fill="url(#paint97_linear_9_248)"/>
<path d="M156.11 48.209C156.654 47.973 156.989 47.39 156.888 46.78C156.769 46.059 156.088 45.571 155.367 45.689L146.034 47.228C145.312 47.349 144.824 48.029 144.943 48.749C145.062 49.47 145.743 49.958 146.464 49.84L155.797 48.301C155.907 48.282 156.012 48.251 156.11 48.209Z" fill="url(#paint98_linear_9_248)"/>
<path d="M152.397 24.419C151.804 23.994 150.979 24.128 150.55 24.724C150.125 25.317 150.261 26.145 150.855 26.571L158.544 32.083C158.936 32.364 159.43 32.4 159.842 32.221C160.055 32.129 160.245 31.98 160.39 31.779C160.815 31.186 160.679 30.358 160.085 29.932L152.397 24.419Z" fill="url(#paint99_linear_9_248)"/>
<path d="M163.173 60.168L157.662 67.8561C157.236 68.4511 157.373 69.2771 157.967 69.7031C158.359 69.9841 158.853 70.0201 159.265 69.8411C159.478 69.7491 159.669 69.6001 159.813 69.3991L165.324 61.711C165.75 61.116 165.613 60.29 165.019 59.864C164.425 59.438 163.598 59.573 163.173 60.168Z" fill="url(#paint100_linear_9_248)"/>
<defs>
<linearGradient id="paint0_linear_9_248" x1="203.407" y1="36.083" x2="214.156" y2="349.286" gradientUnits="userSpaceOnUse">
<stop stop-color="#D5E7FB"/>
<stop offset="0.2449" stop-color="#D1E5FB"/>
<stop offset="0.5124" stop-color="#C3DEFB"/>
<stop offset="0.7896" stop-color="#AED4FC"/>
<stop offset="1" stop-color="#98C9FC"/>
</linearGradient>
<linearGradient id="paint1_linear_9_248" x1="112.39" y1="76.6735" x2="128.475" y2="193.61" gradientUnits="userSpaceOnUse">
<stop stop-color="white"/>
<stop offset="0.2836" stop-color="#FAFCFF"/>
<stop offset="0.6369" stop-color="#EAF5FE"/>
<stop offset="1" stop-color="#D3E9FD"/>
</linearGradient>
<linearGradient id="paint2_linear_9_248" x1="117.743" y1="183.106" x2="79.4198" y2="101.58" gradientUnits="userSpaceOnUse">
<stop stop-color="#72B2F9"/>
<stop offset="1" stop-color="#9BC8F9"/>
</linearGradient>
<linearGradient id="paint3_linear_9_248" x1="131.171" y1="145.621" x2="107.651" y2="95.5875" gradientUnits="userSpaceOnUse">
<stop stop-color="#72B2F9"/>
<stop offset="1" stop-color="#9BC8F9"/>
</linearGradient>
<linearGradient id="paint4_linear_9_248" x1="128.439" y1="140.163" x2="108.793" y2="98.3684" gradientUnits="userSpaceOnUse">
<stop stop-color="#72B2F9"/>
<stop offset="1" stop-color="#9BC8F9"/>
</linearGradient>
<linearGradient id="paint5_linear_9_248" x1="126.209" y1="135.59" x2="110.439" y2="102.043" gradientUnits="userSpaceOnUse">
<stop stop-color="#72B2F9"/>
<stop offset="1" stop-color="#9BC8F9"/>
</linearGradient>
<linearGradient id="paint6_linear_9_248" x1="127.582" y1="138.507" x2="111.586" y2="104.478" gradientUnits="userSpaceOnUse">
<stop stop-color="#72B2F9"/>
<stop offset="1" stop-color="#9BC8F9"/>
</linearGradient>
<linearGradient id="paint7_linear_9_248" x1="122.748" y1="146.943" x2="104.874" y2="108.918" gradientUnits="userSpaceOnUse">
<stop stop-color="#72B2F9"/>
<stop offset="1" stop-color="#9BC8F9"/>
</linearGradient>
<linearGradient id="paint8_linear_9_248" x1="126.719" y1="155.02" x2="104.45" y2="107.646" gradientUnits="userSpaceOnUse">
<stop stop-color="#72B2F9"/>
<stop offset="1" stop-color="#9BC8F9"/>
</linearGradient>
<linearGradient id="paint9_linear_9_248" x1="130.264" y1="162.006" x2="103.604" y2="105.291" gradientUnits="userSpaceOnUse">
<stop stop-color="#72B2F9"/>
<stop offset="1" stop-color="#9BC8F9"/>
</linearGradient>
<linearGradient id="paint10_linear_9_248" x1="133.384" y1="167.905" x2="102.335" y2="101.853" gradientUnits="userSpaceOnUse">
<stop stop-color="#72B2F9"/>
<stop offset="1" stop-color="#9BC8F9"/>
</linearGradient>
<linearGradient id="paint11_linear_9_248" x1="136.076" y1="172.708" x2="100.649" y2="97.3443" gradientUnits="userSpaceOnUse">
<stop stop-color="#72B2F9"/>
<stop offset="1" stop-color="#9BC8F9"/>
</linearGradient>
<linearGradient id="paint12_linear_9_248" x1="138.341" y1="176.421" x2="98.5439" y2="91.7595" gradientUnits="userSpaceOnUse">
<stop stop-color="#72B2F9"/>
<stop offset="1" stop-color="#9BC8F9"/>
</linearGradient>
<linearGradient id="paint13_linear_9_248" x1="140.18" y1="179.044" x2="96.0226" y2="85.1064" gradientUnits="userSpaceOnUse">
<stop stop-color="#72B2F9"/>
<stop offset="1" stop-color="#9BC8F9"/>
</linearGradient>
<linearGradient id="paint14_linear_9_248" x1="141.594" y1="180.579" x2="93.0859" y2="77.3871" gradientUnits="userSpaceOnUse">
<stop stop-color="#72B2F9"/>
<stop offset="1" stop-color="#9BC8F9"/>
</linearGradient>
<linearGradient id="paint15_linear_9_248" x1="142.585" y1="181.032" x2="89.7327" y2="68.5983" gradientUnits="userSpaceOnUse">
<stop stop-color="#72B2F9"/>
<stop offset="1" stop-color="#9BC8F9"/>
</linearGradient>
<linearGradient id="paint16_linear_9_248" x1="143.152" y1="180.401" x2="85.9727" y2="58.7613" gradientUnits="userSpaceOnUse">
<stop stop-color="#72B2F9"/>
<stop offset="1" stop-color="#9BC8F9"/>
</linearGradient>
<linearGradient id="paint17_linear_9_248" x1="143.299" y1="178.691" x2="81.7992" y2="47.8623" gradientUnits="userSpaceOnUse">
<stop stop-color="#72B2F9"/>
<stop offset="1" stop-color="#9BC8F9"/>
</linearGradient>
<linearGradient id="paint18_linear_9_248" x1="143.024" y1="175.904" x2="77.2256" y2="35.9297" gradientUnits="userSpaceOnUse">
<stop stop-color="#72B2F9"/>
<stop offset="1" stop-color="#9BC8F9"/>
</linearGradient>
<linearGradient id="paint19_linear_9_248" x1="371.644" y1="193.733" x2="363.058" y2="235.339" gradientUnits="userSpaceOnUse">
<stop stop-color="#94A744"/>
<stop offset="1" stop-color="#738034"/>
</linearGradient>
<linearGradient id="paint20_linear_9_248" x1="345.398" y1="295.924" x2="402.508" y2="213.355" gradientUnits="userSpaceOnUse">
<stop stop-color="#94A744"/>
<stop offset="0.3889" stop-color="#9BAF4A"/>
<stop offset="0.9879" stop-color="#B0C45A"/>
<stop offset="1" stop-color="#B0C55A"/>
</linearGradient>
<linearGradient id="paint21_linear_9_248" x1="346.389" y1="296.61" x2="403.499" y2="214.041" gradientUnits="userSpaceOnUse">
<stop stop-color="#94A744"/>
<stop offset="0.3889" stop-color="#9BAF4A"/>
<stop offset="0.9879" stop-color="#B0C45A"/>
<stop offset="1" stop-color="#B0C55A"/>
</linearGradient>
<linearGradient id="paint22_linear_9_248" x1="346.952" y1="297" x2="404.062" y2="214.431" gradientUnits="userSpaceOnUse">
<stop stop-color="#94A744"/>
<stop offset="0.3889" stop-color="#9BAF4A"/>
<stop offset="0.9879" stop-color="#B0C45A"/>
<stop offset="1" stop-color="#B0C55A"/>
</linearGradient>
<linearGradient id="paint23_linear_9_248" x1="347.086" y1="297.093" x2="404.196" y2="214.525" gradientUnits="userSpaceOnUse">
<stop stop-color="#94A744"/>
<stop offset="0.3889" stop-color="#9BAF4A"/>
<stop offset="0.9879" stop-color="#B0C45A"/>
<stop offset="1" stop-color="#B0C55A"/>
</linearGradient>
<linearGradient id="paint24_linear_9_248" x1="346.79" y1="296.891" x2="403.901" y2="214.32" gradientUnits="userSpaceOnUse">
<stop stop-color="#94A744"/>
<stop offset="0.3889" stop-color="#9BAF4A"/>
<stop offset="0.9879" stop-color="#B0C45A"/>
<stop offset="1" stop-color="#B0C55A"/>
</linearGradient>
<linearGradient id="paint25_linear_9_248" x1="346.065" y1="296.39" x2="403.176" y2="213.82" gradientUnits="userSpaceOnUse">
<stop stop-color="#94A744"/>
<stop offset="0.3889" stop-color="#9BAF4A"/>
<stop offset="0.9879" stop-color="#B0C45A"/>
<stop offset="1" stop-color="#B0C55A"/>
</linearGradient>
<linearGradient id="paint26_linear_9_248" x1="344.909" y1="295.592" x2="402.02" y2="213.022" gradientUnits="userSpaceOnUse">
<stop stop-color="#94A744"/>
<stop offset="0.3889" stop-color="#9BAF4A"/>
<stop offset="0.9879" stop-color="#B0C45A"/>
<stop offset="1" stop-color="#B0C55A"/>
</linearGradient>
<linearGradient id="paint27_linear_9_248" x1="343.322" y1="294.495" x2="400.433" y2="211.924" gradientUnits="userSpaceOnUse">
<stop stop-color="#94A744"/>
<stop offset="0.3889" stop-color="#9BAF4A"/>
<stop offset="0.9879" stop-color="#B0C45A"/>
<stop offset="1" stop-color="#B0C55A"/>
</linearGradient>
<linearGradient id="paint28_linear_9_248" x1="357.957" y1="304.611" x2="415.06" y2="222.052" gradientUnits="userSpaceOnUse">
<stop stop-color="#94A744"/>
<stop offset="0.3889" stop-color="#9BAF4A"/>
<stop offset="0.9879" stop-color="#B0C45A"/>
<stop offset="1" stop-color="#B0C55A"/>
</linearGradient>
<linearGradient id="paint29_linear_9_248" x1="358.809" y1="305.199" x2="415.911" y2="222.64" gradientUnits="userSpaceOnUse">
<stop stop-color="#94A744"/>
<stop offset="0.3889" stop-color="#9BAF4A"/>
<stop offset="0.9879" stop-color="#B0C45A"/>
<stop offset="1" stop-color="#B0C55A"/>
</linearGradient>
<linearGradient id="paint30_linear_9_248" x1="359.21" y1="305.475" x2="416.313" y2="222.917" gradientUnits="userSpaceOnUse">
<stop stop-color="#94A744"/>
<stop offset="0.3889" stop-color="#9BAF4A"/>
<stop offset="0.9879" stop-color="#B0C45A"/>
<stop offset="1" stop-color="#B0C55A"/>
</linearGradient>
<linearGradient id="paint31_linear_9_248" x1="359.16" y1="305.44" x2="416.264" y2="222.881" gradientUnits="userSpaceOnUse">
<stop stop-color="#94A744"/>
<stop offset="0.3889" stop-color="#9BAF4A"/>
<stop offset="0.9879" stop-color="#B0C45A"/>
<stop offset="1" stop-color="#B0C55A"/>
</linearGradient>
<linearGradient id="paint32_linear_9_248" x1="358.659" y1="305.093" x2="415.762" y2="222.533" gradientUnits="userSpaceOnUse">
<stop stop-color="#94A744"/>
<stop offset="0.3889" stop-color="#9BAF4A"/>
<stop offset="0.9879" stop-color="#B0C45A"/>
<stop offset="1" stop-color="#B0C55A"/>
</linearGradient>
<linearGradient id="paint33_linear_9_248" x1="357.705" y1="304.433" x2="414.809" y2="221.873" gradientUnits="userSpaceOnUse">
<stop stop-color="#94A744"/>
<stop offset="0.3889" stop-color="#9BAF4A"/>
<stop offset="0.9879" stop-color="#B0C45A"/>
<stop offset="1" stop-color="#B0C55A"/>
</linearGradient>
<linearGradient id="paint34_linear_9_248" x1="356.298" y1="303.459" x2="413.402" y2="220.899" gradientUnits="userSpaceOnUse">
<stop stop-color="#94A744"/>
<stop offset="0.3889" stop-color="#9BAF4A"/>
<stop offset="0.9879" stop-color="#B0C45A"/>
<stop offset="1" stop-color="#B0C55A"/>
</linearGradient>
<linearGradient id="paint35_linear_9_248" x1="354.438" y1="302.172" x2="411.542" y2="219.611" gradientUnits="userSpaceOnUse">
<stop stop-color="#94A744"/>
<stop offset="0.3889" stop-color="#9BAF4A"/>
<stop offset="0.9879" stop-color="#B0C45A"/>
<stop offset="1" stop-color="#B0C55A"/>
</linearGradient>
<linearGradient id="paint36_linear_9_248" x1="345.793" y1="296.199" x2="402.901" y2="213.633" gradientUnits="userSpaceOnUse">
<stop stop-color="#94A744"/>
<stop offset="0.3889" stop-color="#9BAF4A"/>
<stop offset="0.9879" stop-color="#B0C45A"/>
<stop offset="1" stop-color="#B0C55A"/>
</linearGradient>
<linearGradient id="paint37_linear_9_248" x1="319.887" y1="149.154" x2="321.89" y2="191.591" gradientUnits="userSpaceOnUse">
<stop stop-color="#94A744"/>
<stop offset="1" stop-color="#738034"/>
</linearGradient>
<linearGradient id="paint38_linear_9_248" x1="319.808" y1="254.665" x2="354.653" y2="160.518" gradientUnits="userSpaceOnUse">
<stop stop-color="#94A744"/>
<stop offset="0.3889" stop-color="#9BAF4A"/>
<stop offset="0.9879" stop-color="#B0C45A"/>
<stop offset="1" stop-color="#B0C55A"/>
</linearGradient>
<linearGradient id="paint39_linear_9_248" x1="320.938" y1="255.083" x2="355.782" y2="160.936" gradientUnits="userSpaceOnUse">
<stop stop-color="#94A744"/>
<stop offset="0.3889" stop-color="#9BAF4A"/>
<stop offset="0.9879" stop-color="#B0C45A"/>
<stop offset="1" stop-color="#B0C55A"/>
</linearGradient>
<linearGradient id="paint40_linear_9_248" x1="321.579" y1="255.32" x2="356.424" y2="161.174" gradientUnits="userSpaceOnUse">
<stop stop-color="#94A744"/>
<stop offset="0.3889" stop-color="#9BAF4A"/>
<stop offset="0.9879" stop-color="#B0C45A"/>
<stop offset="1" stop-color="#B0C55A"/>
</linearGradient>
<linearGradient id="paint41_linear_9_248" x1="321.733" y1="255.376" x2="356.577" y2="161.231" gradientUnits="userSpaceOnUse">
<stop stop-color="#94A744"/>
<stop offset="0.3889" stop-color="#9BAF4A"/>
<stop offset="0.9879" stop-color="#B0C45A"/>
<stop offset="1" stop-color="#B0C55A"/>
</linearGradient>
<linearGradient id="paint42_linear_9_248" x1="321.395" y1="255.251" x2="356.24" y2="161.105" gradientUnits="userSpaceOnUse">
<stop stop-color="#94A744"/>
<stop offset="0.3889" stop-color="#9BAF4A"/>
<stop offset="0.9879" stop-color="#B0C45A"/>
<stop offset="1" stop-color="#B0C55A"/>
</linearGradient>
<linearGradient id="paint43_linear_9_248" x1="320.568" y1="254.944" x2="355.413" y2="160.799" gradientUnits="userSpaceOnUse">
<stop stop-color="#94A744"/>
<stop offset="0.3889" stop-color="#9BAF4A"/>
<stop offset="0.9879" stop-color="#B0C45A"/>
<stop offset="1" stop-color="#B0C55A"/>
</linearGradient>
<linearGradient id="paint44_linear_9_248" x1="319.25" y1="254.456" x2="354.094" y2="160.311" gradientUnits="userSpaceOnUse">
<stop stop-color="#94A744"/>
<stop offset="0.3889" stop-color="#9BAF4A"/>
<stop offset="0.9879" stop-color="#B0C45A"/>
<stop offset="1" stop-color="#B0C55A"/>
</linearGradient>
<linearGradient id="paint45_linear_9_248" x1="317.44" y1="253.786" x2="352.284" y2="159.64" gradientUnits="userSpaceOnUse">
<stop stop-color="#94A744"/>
<stop offset="0.3889" stop-color="#9BAF4A"/>
<stop offset="0.9879" stop-color="#B0C45A"/>
<stop offset="1" stop-color="#B0C55A"/>
</linearGradient>
<linearGradient id="paint46_linear_9_248" x1="334.129" y1="259.965" x2="368.975" y2="165.814" gradientUnits="userSpaceOnUse">
<stop stop-color="#94A744"/>
<stop offset="0.3889" stop-color="#9BAF4A"/>
<stop offset="0.9879" stop-color="#B0C45A"/>
<stop offset="1" stop-color="#B0C55A"/>
</linearGradient>
<linearGradient id="paint47_linear_9_248" x1="335.099" y1="260.324" x2="369.945" y2="166.173" gradientUnits="userSpaceOnUse">
<stop stop-color="#94A744"/>
<stop offset="0.3889" stop-color="#9BAF4A"/>
<stop offset="0.9879" stop-color="#B0C45A"/>
<stop offset="1" stop-color="#B0C55A"/>
</linearGradient>
<linearGradient id="paint48_linear_9_248" x1="335.555" y1="260.494" x2="370.401" y2="166.343" gradientUnits="userSpaceOnUse">
<stop stop-color="#94A744"/>
<stop offset="0.3889" stop-color="#9BAF4A"/>
<stop offset="0.9879" stop-color="#B0C45A"/>
<stop offset="1" stop-color="#B0C55A"/>
</linearGradient>
<linearGradient id="paint49_linear_9_248" x1="335.498" y1="260.472" x2="370.343" y2="166.323" gradientUnits="userSpaceOnUse">
<stop stop-color="#94A744"/>
<stop offset="0.3889" stop-color="#9BAF4A"/>
<stop offset="0.9879" stop-color="#B0C45A"/>
<stop offset="1" stop-color="#B0C55A"/>
</linearGradient>
<linearGradient id="paint50_linear_9_248" x1="334.925" y1="260.26" x2="369.77" y2="166.111" gradientUnits="userSpaceOnUse">
<stop stop-color="#94A744"/>
<stop offset="0.3889" stop-color="#9BAF4A"/>
<stop offset="0.9879" stop-color="#B0C45A"/>
<stop offset="1" stop-color="#B0C55A"/>
</linearGradient>
<linearGradient id="paint51_linear_9_248" x1="333.835" y1="259.858" x2="368.681" y2="165.708" gradientUnits="userSpaceOnUse">
<stop stop-color="#94A744"/>
<stop offset="0.3889" stop-color="#9BAF4A"/>
<stop offset="0.9879" stop-color="#B0C45A"/>
<stop offset="1" stop-color="#B0C55A"/>
</linearGradient>
<linearGradient id="paint52_linear_9_248" x1="332.231" y1="259.263" x2="367.076" y2="165.114" gradientUnits="userSpaceOnUse">
<stop stop-color="#94A744"/>
<stop offset="0.3889" stop-color="#9BAF4A"/>
<stop offset="0.9879" stop-color="#B0C45A"/>
<stop offset="1" stop-color="#B0C55A"/>
</linearGradient>
<linearGradient id="paint53_linear_9_248" x1="330.108" y1="258.479" x2="364.954" y2="164.329" gradientUnits="userSpaceOnUse">
<stop stop-color="#94A744"/>
<stop offset="0.3889" stop-color="#9BAF4A"/>
<stop offset="0.9879" stop-color="#B0C45A"/>
<stop offset="1" stop-color="#B0C55A"/>
</linearGradient>
<linearGradient id="paint54_linear_9_248" x1="320.253" y1="254.829" x2="355.098" y2="160.682" gradientUnits="userSpaceOnUse">
<stop stop-color="#94A744"/>
<stop offset="0.3889" stop-color="#9BAF4A"/>
<stop offset="0.9879" stop-color="#B0C45A"/>
<stop offset="1" stop-color="#B0C55A"/>
</linearGradient>
<linearGradient id="paint55_linear_9_248" x1="237.724" y1="221.203" x2="214.5" y2="161.853" gradientUnits="userSpaceOnUse">
<stop stop-color="#375A6B"/>
<stop offset="0.1989" stop-color="#2E4956"/>
<stop offset="0.4275" stop-color="#273B45"/>
<stop offset="0.68" stop-color="#22343B"/>
<stop offset="1" stop-color="#213138"/>
</linearGradient>
<linearGradient id="paint56_linear_9_248" x1="187.947" y1="274.424" x2="191.974" y2="197.3" gradientUnits="userSpaceOnUse">
<stop stop-color="#BF2555"/>
<stop offset="0.9854" stop-color="#CD557E"/>
</linearGradient>
<linearGradient id="paint57_linear_9_248" x1="291.938" y1="232.371" x2="259.768" y2="150.158" gradientUnits="userSpaceOnUse">
<stop stop-color="#375A6B"/>
<stop offset="0.1989" stop-color="#2E4956"/>
<stop offset="0.4275" stop-color="#273B45"/>
<stop offset="0.68" stop-color="#22343B"/>
<stop offset="1" stop-color="#213138"/>
</linearGradient>
<linearGradient id="paint58_linear_9_248" x1="326.722" y1="292.244" x2="331.298" y2="204.597" gradientUnits="userSpaceOnUse">
<stop stop-color="#CC3D76"/>
<stop offset="0.9854" stop-color="#DB719F"/>
</linearGradient>
<linearGradient id="paint59_linear_9_248" x1="310.473" y1="268.987" x2="369.451" y2="177.838" gradientUnits="userSpaceOnUse">
<stop stop-color="#CC3D76"/>
<stop offset="0.9854" stop-color="#DB719F"/>
</linearGradient>
<linearGradient id="paint60_linear_9_248" x1="222.838" y1="320.317" x2="290.119" y2="189.757" gradientUnits="userSpaceOnUse">
<stop stop-color="#CC3D76"/>
<stop offset="0.9854" stop-color="#DB719F"/>
</linearGradient>
<linearGradient id="paint61_linear_9_248" x1="235.859" y1="304.893" x2="257.94" y2="262.043" gradientUnits="userSpaceOnUse">
<stop stop-color="#CC3D76"/>
<stop offset="0.9854" stop-color="#DB719F"/>
</linearGradient>
<linearGradient id="paint62_linear_9_248" x1="221.459" y1="136.476" x2="263.456" y2="101.22" gradientUnits="userSpaceOnUse">
<stop stop-color="#375A6B"/>
<stop offset="0.1989" stop-color="#2E4956"/>
<stop offset="0.4275" stop-color="#273B45"/>
<stop offset="0.68" stop-color="#22343B"/>
<stop offset="1" stop-color="#213138"/>
</linearGradient>
<linearGradient id="paint63_linear_9_248" x1="207.711" y1="156.469" x2="202.685" y2="197.472" gradientUnits="userSpaceOnUse">
<stop stop-color="white"/>
<stop offset="1" stop-color="white" stop-opacity="0"/>
</linearGradient>
<linearGradient id="paint64_linear_9_248" x1="287.464" y1="47.6858" x2="281.735" y2="94.4183" gradientUnits="userSpaceOnUse">
<stop stop-color="white"/>
<stop offset="1" stop-color="white" stop-opacity="0"/>
</linearGradient>
<linearGradient id="paint65_linear_9_248" x1="340.993" y1="124.988" x2="377.135" y2="53.0941" gradientUnits="userSpaceOnUse">
<stop stop-color="#CC3D76"/>
<stop offset="0.9854" stop-color="#DB719F"/>
</linearGradient>
<linearGradient id="paint66_linear_9_248" x1="37.1591" y1="295.364" x2="16.0966" y2="237.985" gradientUnits="userSpaceOnUse">
<stop stop-color="#CE598C"/>
<stop offset="0.9854" stop-color="#E08FB5"/>
</linearGradient>
<linearGradient id="paint67_linear_9_248" x1="63.2802" y1="286.748" x2="38.8828" y2="238.422" gradientUnits="userSpaceOnUse">
<stop stop-color="#BB3973"/>
<stop offset="0.9854" stop-color="#CA6996"/>
</linearGradient>
<linearGradient id="paint68_linear_9_248" x1="17.8222" y1="244.121" x2="30.3222" y2="276.18" gradientUnits="userSpaceOnUse">
<stop stop-color="#D5E7FB"/>
<stop offset="0.2449" stop-color="#D1E5FB"/>
<stop offset="0.5124" stop-color="#C3DEFB"/>
<stop offset="0.7896" stop-color="#AED4FC"/>
<stop offset="1" stop-color="#98C9FC"/>
</linearGradient>
<linearGradient id="paint69_linear_9_248" x1="32.123" y1="240.453" x2="56.0302" y2="291.926" gradientUnits="userSpaceOnUse">
<stop stop-color="#DFA23E"/>
<stop offset="0.2793" stop-color="#DE9F3C"/>
<stop offset="0.5244" stop-color="#DC9436"/>
<stop offset="0.7567" stop-color="#D8822C"/>
<stop offset="0.9798" stop-color="#D3691E"/>
<stop offset="1" stop-color="#D2661C"/>
</linearGradient>
<linearGradient id="paint70_linear_9_248" x1="34.5195" y1="245.613" x2="54.5566" y2="288.755" gradientUnits="userSpaceOnUse">
<stop stop-color="#D5E7FB"/>
<stop offset="0.2449" stop-color="#D1E5FB"/>
<stop offset="0.5124" stop-color="#C3DEFB"/>
<stop offset="0.7896" stop-color="#AED4FC"/>
<stop offset="1" stop-color="#98C9FC"/>
</linearGradient>
<linearGradient id="paint71_linear_9_248" x1="55.9365" y1="239.352" x2="79.5996" y2="289.117" gradientUnits="userSpaceOnUse">
<stop stop-color="#D18945"/>
<stop offset="0.2836" stop-color="#D08643"/>
<stop offset="0.5324" stop-color="#CE7B3C"/>
<stop offset="0.7674" stop-color="#CB6931"/>
<stop offset="0.994" stop-color="#C65021"/>
<stop offset="1" stop-color="#C64F21"/>
</linearGradient>
<linearGradient id="paint72_linear_9_248" x1="55.9365" y1="239.352" x2="79.5996" y2="289.117" gradientUnits="userSpaceOnUse">
<stop stop-color="#D18945"/>
<stop offset="0.2836" stop-color="#D08643"/>
<stop offset="0.5324" stop-color="#CE7B3C"/>
<stop offset="0.7674" stop-color="#CB6931"/>
<stop offset="0.994" stop-color="#C65021"/>
<stop offset="1" stop-color="#C64F21"/>
</linearGradient>
<linearGradient id="paint73_linear_9_248" x1="27.9609" y1="234.891" x2="1.4498" y2="317.257" gradientUnits="userSpaceOnUse">
<stop stop-color="#D5E7FB"/>
<stop offset="0.2449" stop-color="#D1E5FB"/>
<stop offset="0.5124" stop-color="#C3DEFB"/>
<stop offset="0.7896" stop-color="#AED4FC"/>
<stop offset="1" stop-color="#98C9FC"/>
</linearGradient>
<linearGradient id="paint74_linear_9_248" x1="44.8238" y1="240.32" x2="18.3131" y2="322.685" gradientUnits="userSpaceOnUse">
<stop stop-color="#D5E7FB"/>
<stop offset="0.2449" stop-color="#D1E5FB"/>
<stop offset="0.5124" stop-color="#C3DEFB"/>
<stop offset="0.7896" stop-color="#AED4FC"/>
<stop offset="1" stop-color="#98C9FC"/>
</linearGradient>
<linearGradient id="paint75_linear_9_248" x1="64.6172" y1="247.583" x2="75.1816" y2="269.802" gradientUnits="userSpaceOnUse">
<stop stop-color="#DFA23E"/>
<stop offset="0.2793" stop-color="#DE9F3C"/>
<stop offset="0.5244" stop-color="#DC9436"/>
<stop offset="0.7567" stop-color="#D8822C"/>
<stop offset="0.9798" stop-color="#D3691E"/>
<stop offset="1" stop-color="#D2661C"/>
</linearGradient>
<linearGradient id="paint76_linear_9_248" x1="251.257" y1="188.633" x2="239.784" y2="228.31" gradientUnits="userSpaceOnUse">
<stop stop-color="#E9A78D"/>
<stop offset="1" stop-color="#ECCDB8"/>
</linearGradient>
<linearGradient id="paint77_linear_9_248" x1="247.27" y1="203.541" x2="243.086" y2="224.103" gradientUnits="userSpaceOnUse">
<stop stop-color="#D59A81"/>
<stop offset="1" stop-color="#D7BBA7"/>
</linearGradient>
<linearGradient id="paint78_linear_9_248" x1="260.063" y1="139.264" x2="238.927" y2="201.352" gradientUnits="userSpaceOnUse">
<stop stop-color="#E9A78D"/>
<stop offset="1" stop-color="#ECCDB8"/>
</linearGradient>
<linearGradient id="paint79_linear_9_248" x1="253.961" y1="138.502" x2="291.565" y2="106.933" gradientUnits="userSpaceOnUse">
<stop stop-color="#375A6B"/>
<stop offset="0.1989" stop-color="#2E4956"/>
<stop offset="0.4275" stop-color="#273B45"/>
<stop offset="0.68" stop-color="#22343B"/>
<stop offset="1" stop-color="#213138"/>
</linearGradient>
<linearGradient id="paint80_linear_9_248" x1="87.7765" y1="298.523" x2="208.661" y2="298.523" gradientUnits="userSpaceOnUse">
<stop stop-color="#72B2F9"/>
<stop offset="1" stop-color="#9BC8F9"/>
</linearGradient>
<linearGradient id="paint81_linear_9_248" x1="208.661" y1="298.523" x2="280.32" y2="298.523" gradientUnits="userSpaceOnUse">
<stop stop-color="#72B2F9"/>
<stop offset="1" stop-color="#9BC8F9"/>
</linearGradient>
<linearGradient id="paint82_linear_9_248" x1="215.151" y1="252.923" x2="299.889" y2="290.307" gradientUnits="userSpaceOnUse">
<stop stop-color="#E9A78D"/>
<stop offset="1" stop-color="#ECCDB8"/>
</linearGradient>
<linearGradient id="paint83_linear_9_248" x1="331.382" y1="269.932" x2="171.883" y2="352.174" gradientUnits="userSpaceOnUse">
<stop stop-color="#E6B35E"/>
<stop offset="1" stop-color="#D29733"/>
</linearGradient>
<linearGradient id="paint84_linear_9_248" x1="211.515" y1="276.397" x2="292.537" y2="312.142" gradientUnits="userSpaceOnUse">
<stop stop-color="#E9A78D"/>
<stop offset="1" stop-color="#ECCDB8"/>
</linearGradient>
<linearGradient id="paint85_linear_9_248" x1="81.8383" y1="255.848" x2="214.278" y2="255.848" gradientUnits="userSpaceOnUse">
<stop stop-color="#72B2F9"/>
<stop offset="1" stop-color="#9BC8F9"/>
</linearGradient>
<linearGradient id="paint86_linear_9_248" x1="134.806" y1="211.539" x2="153.7" y2="326.433" gradientUnits="userSpaceOnUse">
<stop stop-color="#D5E7FB"/>
<stop offset="0.2449" stop-color="#D1E5FB"/>
<stop offset="0.5124" stop-color="#C3DEFB"/>
<stop offset="0.7896" stop-color="#AED4FC"/>
<stop offset="1" stop-color="#98C9FC"/>
</linearGradient>
<linearGradient id="paint87_linear_9_248" x1="55.8744" y1="184.29" x2="77.0002" y2="176.319" gradientUnits="userSpaceOnUse">
<stop stop-color="#E3CE48"/>
<stop offset="1" stop-color="#E3D893"/>
</linearGradient>
<linearGradient id="paint88_linear_9_248" x1="324.431" y1="143.375" x2="345.864" y2="150.481" gradientUnits="userSpaceOnUse">
<stop stop-color="#E3CE48"/>
<stop offset="1" stop-color="#E3D893"/>
</linearGradient>
<linearGradient id="paint89_linear_9_248" x1="193.361" y1="74.9281" x2="189.503" y2="7.854" gradientUnits="userSpaceOnUse">
<stop stop-color="#E5A343"/>
<stop offset="1" stop-color="#EBC172"/>
</linearGradient>
<linearGradient id="paint90_linear_9_248" x1="197.727" y1="83.8998" x2="217.532" y2="75.3079" gradientUnits="userSpaceOnUse">
<stop stop-color="#4F7AE2"/>
<stop offset="1" stop-color="#7998E2"/>
</linearGradient>
<linearGradient id="paint91_linear_9_248" x1="195.204" y1="78.0836" x2="215.009" y2="69.4915" gradientUnits="userSpaceOnUse">
<stop stop-color="#4F7AE2"/>
<stop offset="1" stop-color="#7998E2"/>
</linearGradient>
<linearGradient id="paint92_linear_9_248" x1="191.021" y1="73.6607" x2="214.637" y2="63.4151" gradientUnits="userSpaceOnUse">
<stop stop-color="#72B2F9"/>
<stop offset="1" stop-color="#9BC8F9"/>
</linearGradient>
<linearGradient id="paint93_linear_9_248" x1="193.123" y1="78.5056" x2="216.739" y2="68.26" gradientUnits="userSpaceOnUse">
<stop stop-color="#72B2F9"/>
<stop offset="1" stop-color="#9BC8F9"/>
</linearGradient>
<linearGradient id="paint94_linear_9_248" x1="195.225" y1="83.3505" x2="218.841" y2="73.1049" gradientUnits="userSpaceOnUse">
<stop stop-color="#72B2F9"/>
<stop offset="1" stop-color="#9BC8F9"/>
</linearGradient>
<linearGradient id="paint95_linear_9_248" x1="216.67" y1="19.2357" x2="227.515" y2="14.5307" gradientUnits="userSpaceOnUse">
<stop stop-color="#E5A343"/>
<stop offset="1" stop-color="#EBC172"/>
</linearGradient>
<linearGradient id="paint96_linear_9_248" x1="201.288" y1="8.37125" x2="208.174" y2="5.38388" gradientUnits="userSpaceOnUse">
<stop stop-color="#E5A343"/>
<stop offset="1" stop-color="#EBC172"/>
</linearGradient>
<linearGradient id="paint97_linear_9_248" x1="222.357" y1="38.3751" x2="232.231" y2="34.0914" gradientUnits="userSpaceOnUse">
<stop stop-color="#E5A343"/>
<stop offset="1" stop-color="#EBC172"/>
</linearGradient>
<linearGradient id="paint98_linear_9_248" x1="145.493" y1="50.1171" x2="156.338" y2="45.412" gradientUnits="userSpaceOnUse">
<stop stop-color="#E5A343"/>
<stop offset="1" stop-color="#EBC172"/>
</linearGradient>
<linearGradient id="paint99_linear_9_248" x1="152.027" y1="29.7442" x2="158.913" y2="26.7567" gradientUnits="userSpaceOnUse">
<stop stop-color="#E5A343"/>
<stop offset="1" stop-color="#EBC172"/>
</linearGradient>
<linearGradient id="paint100_linear_9_248" x1="156.556" y1="66.9241" x2="166.43" y2="62.6405" gradientUnits="userSpaceOnUse">
<stop stop-color="#E5A343"/>
<stop offset="1" stop-color="#EBC172"/>
</linearGradient>
</defs>
</svg>
