<svg width="417" height="385" viewBox="0 0 417 385" fill="none" xmlns="http://www.w3.org/2000/svg">
<path d="M384.249 366.964H75.173C54.998 343.385 1.41499 273.401 38.266 233.461C83.065 184.907 119.785 162.582 98.487 118.306C77.189 74.03 132.664 -1.28703 215.087 0.13697C297.51 1.56097 387.107 103.974 356.262 186.11C328.123 261.04 391.915 327.678 384.249 366.964Z" fill="url(#paint0_linear_9_5)"/>
<path opacity="0.8" d="M249.358 59.639C249.63 60.238 138.279 59.639 138.279 59.639C138.279 59.639 143.722 47.16 163.835 48.058C163.835 48.058 172.271 26.56 189.787 26.316C207.303 26.072 211.682 41.582 211.682 41.582C211.682 41.582 230.658 40.331 234.55 53.502C234.55 53.502 246.163 52.606 249.358 59.639Z" fill="url(#paint1_linear_9_5)"/>
<path opacity="0.8" d="M347.463 198.254C347.735 198.853 236.384 198.254 236.384 198.254C236.384 198.254 241.827 185.775 261.94 186.673C261.94 186.673 270.375 165.175 287.892 164.931C305.408 164.687 309.787 180.197 309.787 180.197C309.787 180.197 328.763 178.946 332.655 192.117C332.655 192.117 344.268 191.221 347.463 198.254Z" fill="url(#paint2_linear_9_5)"/>
<path d="M176.223 87.839C179.141 101.493 174.67 115.814 167.534 127.815C160.398 139.816 150.72 150.059 141.984 160.95C132.766 172.443 124.238 185.631 123.772 200.356C123.321 214.621 130.686 228.224 140.636 238.456C150.586 248.688 163 256.105 175.151 263.59C187.302 271.075 199.53 278.907 208.837 289.727" stroke="url(#paint3_linear_9_5)" stroke-width="1.1589" stroke-miterlimit="10" stroke-linecap="round" stroke-dasharray="3.85 3.85"/>
<path d="M399.526 207.29C399.86 207.416 400.018 207.813 399.878 208.177C383.899 249.908 355.615 285.914 318.655 311.34C318.333 311.562 317.908 311.502 317.707 311.207C317.506 310.912 317.603 310.497 317.923 310.277C354.668 285 382.786 249.203 398.673 207.716C398.812 207.354 399.193 207.164 399.526 207.29Z" fill="url(#paint4_linear_9_5)"/>
<path d="M350.074 265.259C350.156 265.228 350.239 265.2 350.322 265.172C352.695 264.39 353.731 267.057 354.153 268.904C355.291 273.688 354.567 279.559 354.553 279.558C354.548 279.561 350.979 275.217 349.077 270.734C348.576 269.551 348.017 268.035 348.429 266.73C348.676 265.95 349.346 265.53 350.074 265.259Z" fill="url(#paint5_linear_9_5)"/>
<path d="M356.275 257.772C356.355 257.738 356.437 257.706 356.519 257.674C358.851 256.784 360.013 259.397 360.521 261.222C361.882 265.947 361.437 271.841 361.423 271.841C361.418 271.844 357.649 267.672 355.538 263.285C354.981 262.128 354.352 260.64 354.702 259.317C354.911 258.527 355.561 258.077 356.275 257.772Z" fill="url(#paint6_linear_9_5)"/>
<path d="M362.118 250.006C362.197 249.968 362.277 249.932 362.357 249.897C364.645 248.898 365.928 251.455 366.52 253.254C368.101 257.909 367.933 263.817 367.919 263.817C367.914 263.82 363.954 259.83 361.64 255.547C361.029 254.416 360.331 252.96 360.619 251.623C360.79 250.824 361.419 250.344 362.118 250.006Z" fill="url(#paint7_linear_9_5)"/>
<path d="M367.592 241.973C367.669 241.931 367.747 241.891 367.826 241.853C370.065 240.746 371.466 243.242 372.142 245.012C373.939 249.59 374.045 255.5 374.032 255.5C374.027 255.504 369.885 251.702 367.373 247.532C366.711 246.432 365.945 245.009 366.17 243.659C366.304 242.853 366.91 242.344 367.592 241.973Z" fill="url(#paint8_linear_9_5)"/>
<path d="M372.688 233.687C372.763 233.642 372.839 233.598 372.916 233.556C375.103 232.345 376.617 234.771 377.375 236.51C379.382 241.001 379.764 246.903 379.751 246.903C379.747 246.907 375.43 243.304 372.728 239.253C372.015 238.184 371.184 236.799 371.346 235.439C371.442 234.627 372.023 234.09 372.688 233.687Z" fill="url(#paint9_linear_9_5)"/>
<path d="M377.396 225.159C377.469 225.11 377.543 225.063 377.618 225.017C379.747 223.701 381.373 226.057 382.21 227.759C384.423 232.156 385.079 238.037 385.065 238.039C385.061 238.043 380.581 234.646 377.693 230.724C376.93 229.69 376.037 228.343 376.135 226.976C376.195 226.159 376.75 225.594 377.396 225.159Z" fill="url(#paint10_linear_9_5)"/>
<path d="M381.707 216.405C381.777 216.352 381.849 216.302 381.922 216.252C383.989 214.833 385.722 217.112 386.637 218.776C389.052 223.069 389.978 228.921 389.965 228.923C389.961 228.927 385.328 225.743 382.26 221.957C381.451 220.959 380.495 219.654 380.53 218.282C380.552 217.462 381.082 216.87 381.707 216.405Z" fill="url(#paint11_linear_9_5)"/>
<path d="M385.61 207.435C385.678 207.379 385.747 207.324 385.818 207.271C387.817 205.751 389.655 207.95 390.647 209.571C393.259 213.753 394.454 219.566 394.442 219.568C394.438 219.572 389.661 216.608 386.421 212.966C385.566 212.006 384.551 210.747 384.523 209.37C384.505 208.549 385.007 207.931 385.61 207.435Z" fill="url(#paint12_linear_9_5)"/>
<path d="M372.449 278.772C372.473 278.679 372.493 278.585 372.513 278.491C373.053 275.821 370.126 275.404 368.199 275.327C363.166 275.172 357.41 276.451 357.408 276.439C357.41 276.433 362.025 279.66 366.825 280.899C368.089 281.225 369.722 281.535 371.063 280.825C371.862 280.402 372.243 279.598 372.449 278.772Z" fill="url(#paint13_linear_9_5)"/>
<path d="M379.257 270.225C379.276 270.131 379.292 270.036 379.307 269.942C379.721 267.251 376.779 266.971 374.849 266.984C369.815 267.063 364.126 268.609 364.124 268.597C364.126 268.592 368.886 271.599 373.738 272.613C375.015 272.88 376.66 273.113 377.967 272.342C378.748 271.881 379.09 271.059 379.257 270.225Z" fill="url(#paint14_linear_9_5)"/>
<path d="M385.657 261.37C385.671 261.275 385.684 261.18 385.694 261.085C385.982 258.377 383.029 258.235 381.103 258.338C376.077 258.653 370.468 260.463 370.466 260.45C370.467 260.445 375.364 263.226 380.257 264.013C381.546 264.22 383.2 264.376 384.468 263.544C385.225 263.048 385.53 262.211 385.657 261.37Z" fill="url(#paint15_linear_9_5)"/>
<path d="M391.639 252.221C391.649 252.125 391.657 252.03 391.663 251.934C391.825 249.214 388.868 249.211 386.948 249.406C381.941 249.958 376.422 252.029 376.419 252.017C376.42 252.011 381.441 254.561 386.367 255.117C387.664 255.263 389.323 255.341 390.553 254.451C391.285 253.918 391.55 253.068 391.639 252.221Z" fill="url(#paint16_linear_9_5)"/>
<path d="M397.19 242.793C397.195 242.697 397.199 242.601 397.2 242.505C397.236 239.777 394.28 239.915 392.372 240.2C387.395 240.99 381.976 243.321 381.973 243.308C381.974 243.302 387.109 245.614 392.056 245.936C393.359 246.022 395.021 246.02 396.207 245.072C396.917 244.507 397.141 243.644 397.19 242.793Z" fill="url(#paint17_linear_9_5)"/>
<path d="M402.302 233.1C402.303 233.003 402.302 232.907 402.299 232.812C402.209 230.082 399.261 230.361 397.368 230.737C392.43 231.765 387.125 234.352 387.12 234.34C387.121 234.334 392.359 236.402 397.317 236.489C398.622 236.512 400.283 236.433 401.425 235.427C402.107 234.828 402.293 233.953 402.302 233.1Z" fill="url(#paint18_linear_9_5)"/>
<path d="M406.962 223.158C406.959 223.061 406.953 222.965 406.946 222.869C406.73 220.14 403.798 220.561 401.922 221.029C397.035 222.294 391.852 225.137 391.848 225.125C391.848 225.119 397.178 226.938 402.138 226.788C403.444 226.748 405.1 226.59 406.195 225.529C406.847 224.896 406.992 224.012 406.962 223.158Z" fill="url(#paint19_linear_9_5)"/>
<path d="M411.16 212.98C411.153 212.884 411.142 212.787 411.131 212.692C410.789 209.97 407.878 210.533 406.026 211.092C401.2 212.595 396.153 215.69 396.147 215.678C396.148 215.672 401.557 217.237 406.506 216.848C407.809 216.745 409.456 216.507 410.502 215.392C411.125 214.726 411.23 213.835 411.16 212.98Z" fill="url(#paint20_linear_9_5)"/>
<path d="M403.251 196.711C403.169 196.683 403.086 196.658 403.003 196.634C400.635 195.962 399.595 198.855 399.084 200.795C397.796 205.839 397.664 211.847 397.655 211.856C397.654 211.871 401.823 207.454 404.027 202.555C404.611 201.273 405.25 199.605 404.872 198.207C404.646 197.374 403.976 196.958 403.251 196.711Z" fill="url(#paint21_linear_9_5)"/>
<path d="M38.295 234.99C37.952 235.088 37.761 235.471 37.871 235.845C50.343 278.755 75.551 316.978 110.281 345.374C110.584 345.622 111.012 345.597 111.236 345.32C111.461 345.043 111.398 344.621 111.097 344.375C76.57 316.144 51.509 278.144 39.109 235.485C39.002 235.113 38.637 234.892 38.295 234.99Z" fill="url(#paint22_linear_9_5)"/>
<path d="M82.782 296.852C82.702 296.815 82.622 296.78 82.542 296.745C80.242 295.769 78.989 298.341 78.415 300.147C76.885 304.821 77.121 310.731 77.135 310.731C77.14 310.734 81.056 306.7 83.322 302.39C83.92 301.253 84.602 299.788 84.299 298.453C84.118 297.656 83.484 297.182 82.782 296.852Z" fill="url(#paint23_linear_9_5)"/>
<path d="M77.221 288.878C77.144 288.837 77.065 288.798 76.986 288.76C74.735 287.68 73.362 290.188 72.705 291.965C70.958 296.561 70.914 302.472 70.927 302.473C70.932 302.476 75.033 298.631 77.499 294.433C78.15 293.326 78.9 291.895 78.661 290.548C78.519 289.743 77.908 289.24 77.221 288.878Z" fill="url(#paint24_linear_9_5)"/>
<path d="M72.042 280.655C71.966 280.61 71.89 280.568 71.813 280.526C69.615 279.341 68.125 281.783 67.386 283.527C65.426 288.036 65.104 293.937 65.118 293.938C65.122 293.942 69.4 290.292 72.06 286.215C72.762 285.139 73.578 283.745 73.402 282.389C73.297 281.579 72.71 281.049 72.042 280.655Z" fill="url(#paint25_linear_9_5)"/>
<path d="M67.251 272.196C67.177 272.148 67.103 272.101 67.028 272.057C64.888 270.769 63.285 273.14 62.466 274.848C60.297 279.261 59.702 285.142 59.714 285.144C59.719 285.148 64.161 281.703 67.009 277.754C67.76 276.712 68.641 275.358 68.528 273.994C68.461 273.18 67.9 272.622 67.251 272.196Z" fill="url(#paint26_linear_9_5)"/>
<path d="M62.858 263.517C62.787 263.466 62.715 263.416 62.642 263.367C60.563 261.979 58.853 264.272 57.954 265.942C55.582 270.252 54.713 276.101 54.726 276.103C54.73 276.107 59.33 272.874 62.358 269.061C63.157 268.055 64.1 266.743 64.051 265.374C64.022 264.557 63.487 263.973 62.858 263.517Z" fill="url(#paint27_linear_9_5)"/>
<path d="M58.871 254.629C58.803 254.574 58.732 254.521 58.662 254.469C56.65 252.981 54.834 255.195 53.859 256.821C51.29 261.02 50.15 266.827 50.163 266.829C50.167 266.833 54.912 263.818 58.115 260.149C58.96 259.181 59.963 257.914 59.977 256.543C59.986 255.725 59.479 255.115 58.871 254.629Z" fill="url(#paint28_linear_9_5)"/>
<path d="M55.3 245.548C55.234 245.49 55.167 245.433 55.098 245.378C53.156 243.793 51.24 245.921 50.19 247.503C47.428 251.582 46.021 257.337 46.033 257.34C46.037 257.344 50.917 254.554 54.288 251.036C55.177 250.108 56.238 248.887 56.316 247.516C56.363 246.698 55.884 246.063 55.3 245.548Z" fill="url(#paint29_linear_9_5)"/>
<path d="M52.152 236.286C52.089 236.224 52.024 236.164 51.958 236.106C50.091 234.426 48.078 236.465 46.956 237.998C44.007 241.95 42.335 247.644 42.347 247.647C42.35 247.651 47.357 245.092 50.887 241.732C51.818 240.846 52.934 239.675 53.076 238.306C53.16 237.488 52.711 236.83 52.152 236.286Z" fill="url(#paint30_linear_9_5)"/>
<path d="M59.365 308.467C59.349 308.372 59.337 308.277 59.325 308.182C59.008 305.477 61.959 305.303 63.886 305.386C68.914 305.647 74.545 307.399 74.548 307.387C74.547 307.381 69.68 310.216 64.794 311.053C63.508 311.274 61.855 311.447 60.577 310.628C59.815 310.14 59.502 309.307 59.365 308.467Z" fill="url(#paint31_linear_9_5)"/>
<path d="M53.288 299.386C53.277 299.291 53.268 299.195 53.261 299.1C53.071 296.384 56.027 296.348 57.948 296.521C62.958 297.017 68.499 299.027 68.502 299.015C68.501 299.009 63.508 301.613 58.589 302.222C57.294 302.382 55.636 302.479 54.397 301.602C53.659 301.079 53.385 300.232 53.288 299.386Z" fill="url(#paint32_linear_9_5)"/>
<path d="M47.642 290.032C47.636 289.936 47.631 289.84 47.629 289.745C47.566 287.022 50.521 287.125 52.432 287.388C57.415 288.118 62.855 290.385 62.858 290.373C62.857 290.368 57.748 292.735 52.806 293.113C51.505 293.213 49.843 293.231 48.648 292.298C47.934 291.74 47.7 290.881 47.642 290.032Z" fill="url(#paint33_linear_9_5)"/>
<path d="M42.438 280.42C42.436 280.324 42.436 280.228 42.438 280.132C42.502 277.408 45.449 277.65 47.346 278.002C52.29 278.967 57.619 281.487 57.623 281.475C57.622 281.469 52.408 283.595 47.453 283.741C46.148 283.779 44.488 283.72 43.337 282.731C42.65 282.14 42.456 281.271 42.438 280.42Z" fill="url(#paint34_linear_9_5)"/>
<path d="M37.686 270.565C37.689 270.469 37.693 270.373 37.7 270.277C37.89 267.556 40.824 267.938 42.702 268.38C47.597 269.579 52.804 272.35 52.809 272.338C52.809 272.332 47.5 274.211 42.543 274.123C41.238 274.1 39.581 273.962 38.477 272.918C37.817 272.296 37.664 271.417 37.686 270.565Z" fill="url(#paint35_linear_9_5)"/>
<path d="M33.394 260.482C33.401 260.386 33.41 260.29 33.421 260.195C33.736 257.481 36.651 258.004 38.507 258.535C43.342 259.968 48.416 262.985 48.422 262.974C48.421 262.968 43.031 264.595 38.082 264.272C36.78 264.187 35.131 263.97 34.076 262.874C33.445 262.22 33.332 261.333 33.394 260.482Z" fill="url(#paint36_linear_9_5)"/>
<path d="M29.572 250.188C29.584 250.092 29.597 249.996 29.612 249.902C30.053 247.201 32.941 247.862 34.771 248.484C39.536 250.149 44.466 253.411 44.472 253.4C44.472 253.394 39.01 254.766 34.08 254.206C32.782 254.058 31.144 253.763 30.142 252.615C29.543 251.93 29.472 251.037 29.572 250.188Z" fill="url(#paint37_linear_9_5)"/>
<path d="M26.23 239.698C26.245 239.603 26.264 239.507 26.283 239.413C26.849 236.728 29.703 237.53 31.503 238.241C36.188 240.138 40.962 243.64 40.968 243.629C40.968 243.623 35.447 244.735 30.547 243.938C29.257 243.728 27.635 243.354 26.686 242.156C26.121 241.441 26.09 240.544 26.23 239.698Z" fill="url(#paint38_linear_9_5)"/>
<path d="M35.459 224.14C35.543 224.119 35.628 224.101 35.713 224.084C38.129 223.61 38.926 226.579 39.275 228.555C40.142 233.688 39.776 239.686 39.784 239.697C39.784 239.712 35.994 234.965 34.204 229.901C33.728 228.575 33.229 226.86 33.721 225.498C34.013 224.685 34.715 224.325 35.459 224.14Z" fill="url(#paint39_linear_9_5)"/>
<path d="M416.425 303.681C416.425 303.681 383.753 362.033 338.228 363.227C338.228 363.227 343.201 326.028 416.425 303.681Z" fill="url(#paint40_linear_9_5)"/>
<path d="M355.484 283.91C355.484 283.91 373.019 365.381 302.708 366.917C302.708 366.917 266.551 314.933 355.484 283.91Z" fill="url(#paint41_linear_9_5)"/>
<path d="M391.698 271.387C391.698 271.387 383.473 342.179 337.901 360.362C337.901 360.362 327.097 321.147 391.698 271.387Z" fill="url(#paint42_linear_9_5)"/>
<path d="M0.701996 303.681C0.701996 303.681 33.374 362.033 78.899 363.227C78.899 363.227 73.926 326.028 0.701996 303.681Z" fill="url(#paint43_linear_9_5)"/>
<path d="M25.429 271.387C25.429 271.387 33.654 342.179 79.226 360.362C79.226 360.362 90.03 321.147 25.429 271.387Z" fill="url(#paint44_linear_9_5)"/>
<path d="M259.942 77.7189L253.598 74.0059C253.598 74.0059 249.446 73.7229 247.963 70.9249C246.481 68.1269 251.586 66.1149 251.818 65.9609C252.05 65.8059 255.918 67.2759 255.918 67.2759L262.339 74.3229L259.942 77.7189Z" fill="url(#paint45_linear_9_5)"/>
<path d="M238.616 28.0069C237.16 27.2329 235.357 27.7769 234.589 29.2219L234.58 29.2379L234.571 29.2539L229.936 37.9679L220.329 56.0279L217.244 61.8279L217.236 61.8439L217.227 61.8599C216.458 63.3049 217.015 65.1039 218.47 65.8789L220.867 67.1539L225.361 58.7049L234.968 40.6449L241.012 29.2819L238.616 28.0069Z" fill="url(#paint46_linear_9_5)"/>
<path d="M247.556 81.387L218.319 65.835L238.48 27.934L267.717 43.487L247.556 81.387Z" fill="url(#paint47_linear_9_5)"/>
<path d="M242.252 37.704L234.42 44.815L236.268 45.798L237.736 44.433L241.232 46.293L240.921 48.273L242.782 49.263L244.302 38.794L242.252 37.704ZM238.964 43.279L242.187 40.283L241.504 44.631L238.964 43.279Z" fill="white"/>
<path d="M252.956 52.8189L258.205 50.3519L258.961 48.9309L253.905 46.2419L253.136 47.688L256.167 49.2999L250.943 51.7809L250.187 53.202L255.292 55.9179L256.062 54.4719L252.956 52.8189Z" fill="white"/>
<path d="M244.944 49.0569C244.652 48.9019 244.29 49.0119 244.135 49.3039C243.98 49.5959 244.091 49.9579 244.382 50.1129C244.674 50.2679 245.036 50.1579 245.191 49.8659C245.347 49.5749 245.236 49.2129 244.944 49.0569Z" fill="white"/>
<path d="M246.893 50.094C246.601 49.939 246.239 50.049 246.084 50.341C245.929 50.633 246.04 50.995 246.331 51.15C246.623 51.305 246.985 51.195 247.14 50.903C247.295 50.611 247.184 50.249 246.893 50.094Z" fill="white"/>
<path d="M248.841 51.1299C248.549 50.9749 248.187 51.0849 248.032 51.3769C247.877 51.6689 247.988 52.0309 248.279 52.1859C248.571 52.3409 248.933 52.2309 249.088 51.9389C249.243 51.6479 249.133 51.2849 248.841 51.1299Z" fill="white"/>
<path d="M263.516 69.2019L260.525 66.0459L256.936 58.4349L251.253 58.8539L247.963 58.4349C247.963 58.4349 248.262 59.9299 250.256 61.1269C252.25 62.3229 254.144 62.0239 254.144 62.0239C254.144 62.0239 252.748 66.3109 253.945 68.7029C255.141 71.0959 261.322 74.5849 261.422 74.7849C261.522 74.9839 263.516 69.2019 263.516 69.2019Z" fill="url(#paint48_linear_9_5)"/>
<path d="M320.356 114.723L332.546 94.6749L327.985 93.4709L331.395 92.6129C289.982 84.3749 268.286 71.0929 263.931 67.3509L263.099 66.6119L256.603 80.2019C256.603 80.2019 294.524 117.552 325.459 120.995L318.221 114.419L320.356 114.723Z" fill="url(#paint49_linear_9_5)"/>
<path d="M219.179 384.92C320.315 384.92 402.302 377.024 402.302 367.284C402.302 357.544 320.315 349.648 219.179 349.648C118.043 349.648 36.056 357.544 36.056 367.284C36.056 377.024 118.043 384.92 219.179 384.92Z" fill="url(#paint50_linear_9_5)"/>
<path d="M62.988 329.405C63.716 326.215 66.445 323.969 69.586 323.969H119.498H209.797H217.985V367.724H209.797H119.498H69.594C66.447 367.724 63.738 365.455 62.99 362.263C59.74 348.401 61.454 336.129 62.988 329.405Z" fill="url(#paint51_linear_9_5)"/>
<path d="M263.192 328.222H321.374C322.499 328.222 323.41 327.27 323.41 326.096C323.41 324.922 322.498 323.97 321.374 323.97H206.512C206.255 323.97 206.028 324.139 205.944 324.392C204.93 327.4 199.217 346.098 205.951 367.291C206.033 367.549 206.267 367.725 206.527 367.725H321.374C322.499 367.725 323.41 366.773 323.41 365.599C323.41 364.425 322.498 363.473 321.374 363.473H263.218C262.946 363.473 262.705 363.281 262.633 363.007C257.981 345.399 261.82 331.264 262.62 328.655C262.699 328.394 262.93 328.222 263.192 328.222Z" fill="url(#paint52_linear_9_5)"/>
<path d="M186.285 357.939C182.487 345.987 185.709 335.443 186.281 333.746C186.329 333.604 186.457 333.508 186.602 333.508H137.53H80.677C80.532 333.508 80.404 333.603 80.356 333.746C79.784 335.443 76.563 345.987 80.36 357.939C80.406 358.085 80.538 358.184 80.685 358.184H137.529H186.609C186.463 358.184 186.331 358.085 186.285 357.939Z" fill="url(#paint53_linear_9_5)"/>
<path d="M209.929 328.222C209.929 328.222 204.56 343.721 209.929 363.472H320.9V328.222H209.929Z" fill="url(#paint54_linear_9_5)"/>
<path d="M221.763 336.098C252.41 334.443 283.513 334.456 314.16 336.098C283.512 337.74 252.409 337.754 221.763 336.098Z" fill="url(#paint55_linear_9_5)"/>
<path d="M280.228 345.165C258.286 346.555 236.266 346.566 214.324 345.165C236.266 343.764 258.286 343.775 280.228 345.165Z" fill="url(#paint56_linear_9_5)"/>
<path d="M300.326 355.449C278.383 356.839 256.364 356.85 234.422 355.449C256.364 354.048 278.383 354.059 300.326 355.449Z" fill="url(#paint57_linear_9_5)"/>
<path d="M71.119 241.667C71.847 238.477 74.576 236.231 77.717 236.231H127.629H217.928H226.116V279.986H217.928H127.629H77.725C74.578 279.986 71.869 277.717 71.121 274.525C67.871 260.663 69.585 248.391 71.119 241.667Z" fill="url(#paint58_linear_9_5)"/>
<path d="M271.322 240.484H329.504C330.629 240.484 331.54 239.532 331.54 238.358C331.54 237.184 330.628 236.232 329.504 236.232H214.642C214.386 236.232 214.159 236.401 214.074 236.654C213.06 239.662 207.347 258.36 214.081 279.553C214.163 279.811 214.397 279.987 214.657 279.987H329.504C330.629 279.987 331.54 279.035 331.54 277.861C331.54 276.687 330.628 275.735 329.504 275.735H271.348C271.076 275.735 270.835 275.543 270.763 275.269C266.111 257.661 269.95 243.526 270.75 240.917C270.83 240.656 271.061 240.484 271.322 240.484Z" fill="url(#paint59_linear_9_5)"/>
<path d="M194.415 270.201C190.617 258.249 193.839 247.705 194.411 246.008C194.459 245.866 194.587 245.77 194.731 245.77H145.66H88.807C88.662 245.77 88.534 245.865 88.486 246.008C87.914 247.705 84.693 258.249 88.49 270.201C88.536 270.347 88.668 270.446 88.815 270.446H145.659H194.739C194.593 270.446 194.462 270.347 194.415 270.201Z" fill="url(#paint60_linear_9_5)"/>
<path d="M218.059 240.484C218.059 240.484 212.69 255.983 218.059 275.734H329.031V240.484H218.059Z" fill="url(#paint61_linear_9_5)"/>
<path d="M229.893 248.36C260.54 246.705 291.643 246.718 322.29 248.36C291.643 250.002 260.54 250.015 229.893 248.36Z" fill="url(#paint62_linear_9_5)"/>
<path d="M288.359 257.427C266.417 258.817 244.397 258.828 222.455 257.427C244.397 256.026 266.416 256.037 288.359 257.427Z" fill="url(#paint63_linear_9_5)"/>
<path d="M308.457 267.711C286.514 269.101 264.495 269.112 242.553 267.711C264.494 266.31 286.514 266.321 308.457 267.711Z" fill="url(#paint64_linear_9_5)"/>
<path d="M49.845 285.65C50.573 282.46 53.302 280.214 56.442 280.214H91.527H196.653H204.841V323.969H196.653H91.528H56.45C53.303 323.969 50.595 321.7 49.846 318.508C46.597 304.646 48.311 292.375 49.845 285.65Z" fill="url(#paint65_linear_9_5)"/>
<path d="M173.142 314.185C169.344 302.233 172.566 291.689 173.138 289.992C173.186 289.85 173.314 289.754 173.459 289.754H124.388H67.535C67.39 289.754 67.262 289.849 67.214 289.992C66.642 291.688 63.42 302.233 67.218 314.185C67.264 314.33 67.396 314.43 67.543 314.43H124.387H173.467C173.32 314.429 173.188 314.33 173.142 314.185Z" fill="url(#paint66_linear_9_5)"/>
<path d="M250.049 284.467H308.231C309.356 284.467 310.267 283.515 310.267 282.341C310.267 281.167 309.355 280.215 308.231 280.215H193.369C193.113 280.215 192.886 280.384 192.801 280.637C191.787 283.645 186.074 302.343 192.809 323.536C192.891 323.794 193.125 323.97 193.385 323.97H308.232C309.357 323.97 310.268 323.018 310.268 321.844C310.268 320.67 309.356 319.718 308.232 319.718H250.076C249.804 319.718 249.563 319.526 249.491 319.252C244.839 301.644 248.678 287.509 249.478 284.9C249.556 284.639 249.787 284.467 250.049 284.467Z" fill="url(#paint67_linear_9_5)"/>
<path d="M196.786 284.467C196.786 284.467 191.417 299.966 196.786 319.717H307.758V284.467H196.786Z" fill="url(#paint68_linear_9_5)"/>
<path d="M208.62 292.343C239.267 290.688 270.37 290.701 301.017 292.343C270.369 293.986 239.266 293.999 208.62 292.343Z" fill="url(#paint69_linear_9_5)"/>
<path d="M267.085 301.41C245.143 302.8 223.123 302.811 201.181 301.41C223.123 300.009 245.143 300.02 267.085 301.41Z" fill="url(#paint70_linear_9_5)"/>
<path d="M287.183 311.694C265.24 313.084 243.221 313.095 221.279 311.694C243.221 310.293 265.24 310.304 287.183 311.694Z" fill="url(#paint71_linear_9_5)"/>
<path d="M361.948 332.117L346.137 332.283L347.735 350.556C347.858 352.362 346.869 353.99 345.256 354.637L322.488 363.816L322.777 367.37L348.862 367.072L361.503 366.916L361.948 332.117Z" fill="url(#paint72_linear_9_5)"/>
<path d="M326.252 361.549L342.401 354.952C343.496 354.506 344.754 354.757 345.71 355.602C347.511 357.194 350.753 359.576 354.11 359.623C357.015 359.663 359.814 358.569 361.67 357.632C362.728 357.098 363.989 357.96 364.062 359.263L364.543 367.815L323.662 368.316L323.804 365.266C323.883 363.567 324.829 362.132 326.252 361.549Z" fill="url(#paint73_linear_9_5)"/>
<path d="M365.4 370.161L322.964 370.682C322.805 370.684 322.665 370.543 322.651 370.367L322.488 368.264C322.474 368.088 322.593 367.944 322.752 367.942L365.247 367.421C365.407 367.419 365.544 367.56 365.554 367.736L365.671 369.839C365.68 370.015 365.559 370.159 365.4 370.161Z" fill="white"/>
<path d="M341.737 359.478C341.432 359.622 341.06 359.458 340.909 359.114L339.473 355.845C339.322 355.501 339.448 355.102 339.753 354.959C340.058 354.815 340.432 354.979 340.583 355.323L342.018 358.592C342.168 358.935 342.042 359.334 341.737 359.478Z" fill="white"/>
<path d="M337.093 361.432C336.789 361.576 336.416 361.412 336.265 361.069L334.822 357.8C334.67 357.456 334.795 357.057 335.099 356.914C335.404 356.77 335.777 356.934 335.929 357.277L337.371 360.546C337.522 360.889 337.397 361.288 337.093 361.432Z" fill="white"/>
<path d="M324.721 332.117L308.854 332.283L308.068 350.556C308.2 352.362 307.139 353.99 305.408 354.637L280.98 363.816L281.29 367.37L309.277 367.072L322.839 366.916L324.721 332.117Z" fill="url(#paint74_linear_9_5)"/>
<path d="M281.936 361.549L300.526 354.952C301.786 354.506 303.235 354.757 304.335 355.602C306.408 357.194 310.14 359.576 314.004 359.623C317.348 359.663 320.57 358.569 322.706 357.632C323.924 357.098 325.376 357.96 325.46 359.263L326.013 367.815L278.953 368.316L279.117 365.266C279.209 363.567 280.297 362.132 281.936 361.549Z" fill="url(#paint75_linear_9_5)"/>
<path d="M327 370.161L278.15 370.682C277.967 370.684 277.805 370.543 277.79 370.367L277.602 368.264C277.586 368.088 277.722 367.944 277.906 367.942L326.824 367.421C327.008 367.419 327.166 367.56 327.177 367.736L327.312 369.839C327.323 370.015 327.183 370.159 327 370.161Z" fill="white"/>
<path d="M299.761 359.478C299.41 359.622 298.981 359.458 298.808 359.114L297.154 355.845C296.98 355.501 297.125 355.102 297.476 354.959C297.827 354.815 298.257 354.979 298.431 355.323L300.083 358.592C300.257 358.935 300.112 359.334 299.761 359.478Z" fill="white"/>
<path d="M294.415 361.432C294.065 361.576 293.636 361.412 293.462 361.069L291.801 357.8C291.626 357.456 291.77 357.057 292.12 356.914C292.471 356.77 292.901 356.934 293.076 357.277L294.735 360.546C294.909 360.889 294.765 361.288 294.415 361.432Z" fill="white"/>
<path d="M333.392 192.929L341.596 337.667C341.596 337.667 353.078 341.483 366.647 335.123L365.255 188.149L333.392 192.929Z" fill="url(#paint76_linear_9_5)"/>
<path d="M308.764 192.401L303.687 339.619C303.687 339.619 315.01 343.435 328.342 339.619L343.135 189.673L308.764 192.401Z" fill="url(#paint77_linear_9_5)"/>
<path d="M338.333 189.472C329.271 187.395 323.506 181.036 318.246 173.732C318.193 173.658 318.073 173.723 318.122 173.805C322.497 181.141 328.898 189.737 338.296 189.748C338.45 189.749 338.49 189.508 338.333 189.472Z" fill="#4C70AA"/>
<path d="M325.516 199.749C322.701 195.163 316.788 193.703 311.811 193.111C311.708 193.099 311.699 193.255 311.788 193.285C316.791 194.958 321.368 196.203 325.36 199.871C325.44 199.945 325.577 199.85 325.516 199.749Z" fill="#4C70AA"/>
<path d="M315.941 198.817C314.88 197.521 313.454 196.508 311.899 195.89C311.822 195.859 311.755 195.978 311.817 196.031C313.075 197.096 314.422 198.107 315.815 198.981C315.922 199.048 316.013 198.904 315.941 198.817Z" fill="#4C70AA"/>
<path d="M337.111 70.9479L329.667 76.3329V84.3749C333.716 80.8329 337.268 76.5369 337.111 70.9479Z" fill="url(#paint78_linear_9_5)"/>
<path d="M344.394 84.5698L342.953 66.7208L337.111 70.9468C337.268 76.5358 333.716 80.8328 329.667 84.3738V88.1738L344.394 84.5698Z" fill="url(#paint79_linear_9_5)"/>
<path d="M344.202 62.5199C342.942 72.5179 333.594 79.5579 326.092 78.5989C320.531 77.8879 318.271 69.4259 318.402 59.3489C318.574 46.1349 325.398 41.7209 332.9 42.6799C340.402 43.6389 345.461 52.5219 344.202 62.5199Z" fill="url(#paint80_linear_9_5)"/>
<path d="M357.686 90.225C351.213 81.78 330.432 79.702 322.256 92.583C321.547 93.7 320.855 95.118 320.18 96.773C327.048 95.246 337.031 93.027 337.031 93.027C337.031 93.027 349.422 130.47 349.471 147.532C349.519 164.594 325.833 172.463 325.833 172.463C325.833 172.463 314.984 192.538 311.811 193.111C310.257 193.391 307.346 192.59 304.777 191.7C304.157 196.48 303.675 199.897 303.675 199.897C303.675 199.897 332.547 214.871 373.015 196.503C373.015 196.503 364.159 98.669 357.686 90.225Z" fill="url(#paint81_linear_9_5)"/>
<path d="M311.81 193.11C314.983 192.537 325.832 172.462 325.832 172.462C325.832 172.462 352.379 164.501 352.33 147.439C352.281 130.377 337.029 93.026 337.029 93.026C337.029 93.026 327.046 95.245 320.178 96.772C313.066 114.214 307.942 158.639 307.293 168.483C306.872 174.875 305.677 184.733 304.774 191.699C307.345 192.59 310.256 193.391 311.81 193.11Z" fill="url(#paint82_linear_9_5)"/>
<path d="M327.174 159.162L313.313 179.677C313.271 179.739 313.187 179.755 313.126 179.713L278.071 155.63C278.01 155.588 277.994 155.504 278.036 155.442L291.897 134.927C291.939 134.865 292.023 134.849 292.084 134.891L327.14 158.974C327.2 159.016 327.216 159.101 327.174 159.162Z" fill="white"/>
<path d="M325.488 164.191L311.258 185.251C310.85 185.855 310.033 186.011 309.434 185.599L274.444 161.561C273.846 161.15 273.691 160.328 274.099 159.725L288.328 138.665C288.736 138.061 289.553 137.905 290.152 138.317L325.142 162.355C325.741 162.766 325.895 163.588 325.488 164.191Z" fill="url(#paint83_linear_9_5)"/>
<path d="M310.429 187.322C309.829 188.195 308.639 188.412 307.773 187.807L272.92 163.439C272.055 162.834 271.84 161.637 272.439 160.765C273.039 159.892 274.229 159.675 275.095 160.28L309.948 184.648C310.814 185.252 311.029 186.449 310.429 187.322Z" fill="url(#paint84_linear_9_5)"/>
<path d="M309.947 184.646C306.934 182.773 303.979 180.816 301.033 178.846C298.085 176.878 295.185 174.842 292.259 172.843C289.375 170.782 286.469 168.755 283.606 166.663L279.322 163.511C277.913 162.432 276.487 161.38 275.094 160.278C276.606 161.207 278.084 162.185 279.579 163.137L284.009 166.076C286.956 168.046 289.858 170.08 292.782 172.08C295.665 174.143 298.573 176.167 301.434 178.261C304.298 180.354 307.151 182.458 309.947 184.646Z" fill="url(#paint85_linear_9_5)"/>
<path d="M324.688 161.226C324.653 161.271 324.588 161.281 324.541 161.249L291.224 138.358C291.174 138.324 291.161 138.255 291.195 138.205C291.237 138.154 291.297 138.142 291.347 138.176L324.664 161.067C324.714 161.101 324.727 161.17 324.693 161.22C324.693 161.22 324.69 161.224 324.688 161.226Z" fill="#AABBDF"/>
<path d="M325.062 160.499C325.027 160.544 324.962 160.554 324.915 160.522L291.599 137.631C291.549 137.597 291.536 137.528 291.57 137.478C291.571 137.476 291.573 137.474 291.575 137.472C291.61 137.427 291.675 137.417 291.722 137.449L325.038 160.34C325.088 160.374 325.101 160.443 325.067 160.493C325.067 160.493 325.063 160.497 325.062 160.499Z" fill="#AABBDF"/>
<path d="M325.436 159.772C325.401 159.817 325.336 159.827 325.289 159.795L291.972 136.904C291.922 136.87 291.909 136.801 291.943 136.751C291.985 136.71 292.045 136.688 292.095 136.722L325.412 159.613C325.462 159.647 325.475 159.716 325.441 159.766L325.436 159.772Z" fill="#AABBDF"/>
<path d="M325.809 159.044C325.774 159.089 325.709 159.099 325.662 159.067L292.346 136.177C292.296 136.143 292.283 136.074 292.317 136.024C292.318 136.022 292.32 136.02 292.32 136.02C292.357 135.973 292.421 135.963 292.469 135.995L325.785 158.885C325.835 158.919 325.848 158.988 325.814 159.038C325.812 159.04 325.811 159.042 325.809 159.044Z" fill="#AABBDF"/>
<path d="M299.707 155.012L294.512 158.874L291.19 159.086H287.706C286.994 159.086 286.312 159.38 285.821 159.899L281.856 164.09L278.649 166.244C278.649 166.244 279.298 167.694 281.014 168.094L279.868 169.254C279.123 170.008 279.016 171.189 279.611 172.067L280.332 173.13C280.633 173.575 281.086 173.892 281.605 174.023L283.137 174.408L284.215 175.796C284.659 176.367 285.306 176.742 286.02 176.84L286.964 176.97C286.964 176.97 288.76 177.782 290.301 178.48C291.569 179.054 293.058 178.657 293.874 177.523C295.975 174.604 299.707 169.428 299.707 169.428L307.559 163.678L299.707 155.012Z" fill="url(#paint86_linear_9_5)"/>
<path d="M281.508 167.813L283.054 166.313C283.552 165.798 284.062 165.326 284.386 164.717C284.81 164.061 285.382 163.568 286.013 163.182C286.641 162.805 287.35 162.503 288.085 162.511C287.392 162.715 286.788 163.087 286.235 163.509C285.695 163.942 285.17 164.425 284.82 164.988C284.449 165.65 283.873 166.165 283.313 166.609C282.743 167.059 282.147 167.469 281.508 167.813Z" fill="#E9A785"/>
<path d="M349.47 85.6899C349.47 85.6899 348.496 81.8279 348.113 81.5709C347.73 81.3139 329.941 78.5699 324.527 90.3039C324.527 90.3039 342.268 86.2039 349.47 85.6899Z" fill="url(#paint87_linear_9_5)"/>
<path d="M337.756 87.5759C337.756 87.5759 345.932 133.914 346.188 142.152C346.444 150.39 304.378 176.391 304.378 176.391C304.378 176.391 296.411 172.437 294.524 156.485L320.126 135.459C320.126 135.459 317.061 111.518 317.955 99.6759C318.848 87.8329 337.756 87.5759 337.756 87.5759Z" fill="url(#paint88_linear_9_5)"/>
<path d="M325.833 90.0069C333.153 87.8789 340.614 86.8609 348.146 85.7079C340.559 85.4419 332.655 86.5379 325.833 90.0069Z" fill="url(#paint89_linear_9_5)"/>
<path d="M327.694 92.8429C326.942 92.8579 326.194 92.9359 325.46 93.0259C326.2 93.1679 326.933 93.1908 327.65 93.3438C332.697 94.1168 337.105 97.2469 339.635 101.685C338.26 96.4869 333.012 92.7839 327.694 92.8429Z" fill="url(#paint90_linear_9_5)"/>
<path d="M333.392 141.311C329.157 140.354 325.606 138.158 321.878 135.976C324.635 139.25 328.999 141.824 333.392 141.311Z" fill="url(#paint91_linear_9_5)"/>
<path d="M321.877 144.416C320.714 142.141 320.99 139.901 320.512 137.43C319.499 139.615 319.515 143.128 321.877 144.416Z" fill="url(#paint92_linear_9_5)"/>
<path d="M304.792 170.906C303.711 169.942 302.258 167.946 301.141 166.498C301.674 167.541 303.824 172.595 305.275 171.663C309.308 169.301 313.318 166.76 316.99 163.847C312.752 165.854 308.709 168.321 304.809 170.894C304.805 170.899 304.798 170.902 304.792 170.906Z" fill="url(#paint93_linear_9_5)"/>
<path d="M351.72 52.2379C348.786 43.1719 342.743 43.4959 342.739 43.4959C342.765 43.4939 341.811 42.0029 341.677 41.8649C341.203 41.3799 340.634 40.9999 340.028 40.7039C336.812 39.1319 332.757 39.8349 329.31 39.8069C327.203 39.7899 324.348 39.5609 322.721 38.0149C322.444 37.7519 320.747 35.3049 321.147 35.1489C315.21 37.4489 313.689 41.2619 313.689 41.2619C311.079 49.7889 318.442 51.4589 322.127 51.7709C322.169 51.7749 322.203 51.7769 322.244 51.7809C322.316 51.7869 322.389 51.7929 322.458 51.7979C323.431 51.8729 324.09 51.8349 324.09 51.8349C323.068 58.1419 327.028 59.6869 327.028 59.6869V62.9489H329.583L333.523 61.9169C333.523 61.9169 334.303 65.2529 335.702 67.7369H335.7L338.345 73.0099C338.345 73.0099 344.33 75.2509 347.36 69.5759C349.495 66.4389 353.72 58.4189 351.72 52.2379Z" fill="url(#paint94_linear_9_5)"/>
<path d="M336.36 62.35C336.665 64.911 335.188 67.196 333.059 67.454C330.931 67.712 329.263 68.405 328.958 65.844C328.653 63.283 329.825 58.437 331.953 58.179C334.081 57.921 336.055 59.788 336.36 62.35Z" fill="url(#paint95_linear_9_5)"/>
<path d="M331.197 62.896C331.192 62.483 331.256 62.073 331.37 61.666C331.498 61.267 331.657 60.849 332.033 60.506C332.227 60.344 332.493 60.199 332.788 60.204C332.933 60.192 333.063 60.237 333.201 60.26C333.329 60.316 333.467 60.381 333.581 60.459C334.017 60.807 334.189 61.258 334.323 61.683C334.558 62.55 334.516 63.454 334.193 64.279C334.035 64.692 333.757 65.068 333.414 65.348C333.053 65.622 332.604 65.718 332.202 65.686C332.586 65.531 332.914 65.344 333.133 65.049C333.347 64.757 333.494 64.429 333.576 64.073C333.726 63.369 333.724 62.592 333.522 61.915C333.44 61.577 333.283 61.247 333.091 61.079C333.043 61.043 332.999 61.02 332.953 60.981C332.895 60.974 332.834 60.933 332.779 60.938C332.669 60.922 332.556 60.959 332.426 61.025C331.908 61.387 331.533 62.175 331.197 62.896Z" fill="#E9A785"/>
<path d="M221.404 49.4189H209.261V106.372H221.404V49.4189Z" fill="url(#paint96_linear_9_5)"/>
<path d="M209.261 49.4189H178.378V106.372H209.261V49.4189Z" fill="url(#paint97_linear_9_5)"/>
<path d="M218.922 61.2849H211.742V94.5059H218.922V61.2849Z" fill="url(#paint98_linear_9_5)"/>
<path d="M203.592 57.746H194.524V106.372H203.592V57.746Z" fill="url(#paint99_linear_9_5)"/>
<path d="M201.423 61.0149H196.693V103.104H201.423V61.0149Z" fill="url(#paint100_linear_9_5)"/>
<path d="M194.524 57.746H163.641V106.372H194.524V57.746Z" fill="url(#paint101_linear_9_5)"/>
<path opacity="0.2" d="M194.524 57.746H163.641V106.372H194.524V57.746Z" fill="url(#paint102_linear_9_5)"/>
<path d="M190.41 63.1379H181.902V106.372H190.41V63.1379Z" fill="url(#paint103_linear_9_5)"/>
<path d="M181.901 63.1379H153.094V106.372H181.901V63.1379Z" fill="url(#paint104_linear_9_5)"/>
<path d="M221.404 53.5H209.261V55.791H221.404V53.5Z" fill="url(#paint105_linear_9_5)"/>
<path d="M221.404 100.281H209.261V102.572H221.404V100.281Z" fill="url(#paint106_linear_9_5)"/>
<path d="M165.554 53.5H156.55V106.373H165.554V53.5Z" fill="url(#paint107_linear_9_5)"/>
<path d="M156.55 53.5H125.667V106.373H156.55V53.5Z" fill="url(#paint108_linear_9_5)"/>
<path d="M150.42 64.865H143.351V106.372H150.42V64.865Z" fill="url(#paint109_linear_9_5)"/>
<path d="M143.35 64.865H119.106V106.372H143.35V64.865Z" fill="url(#paint110_linear_9_5)"/>
<path d="M165.554 61.0149H156.55V65.2619H165.554V61.0149Z" fill="url(#paint111_linear_9_5)"/>
<path d="M165.554 68.3209H156.55V72.5679H165.554V68.3209Z" fill="url(#paint112_linear_9_5)"/>
<path d="M128.463 57.746H118.096V106.372H128.463V57.746Z" fill="url(#paint113_linear_9_5)"/>
<path d="M118.096 57.746H91.728V106.372H118.096V57.746Z" fill="url(#paint114_linear_9_5)"/>
<path d="M126.345 67.877H120.214V96.241H126.345V67.877Z" fill="url(#paint115_linear_9_5)"/>
<path d="M128.463 61.23H118.096V63.186H128.463V61.23Z" fill="url(#paint116_linear_9_5)"/>
<path d="M128.463 101.171H118.096V103.127H128.463V101.171Z" fill="url(#paint117_linear_9_5)"/>
<path d="M148.919 67.371H144.851V103.867H148.919V67.371Z" fill="url(#paint118_linear_9_5)"/>
<path d="M238.794 106.372H81.211C79.744 106.372 78.555 107.561 78.555 109.028V113.09C78.555 114.557 79.744 115.746 81.211 115.746H238.793C240.26 115.746 241.449 114.557 241.449 113.09V109.028C241.449 107.561 240.26 106.372 238.794 106.372Z" fill="url(#paint119_linear_9_5)"/>
<path d="M83.538 115.746C83.538 117.973 85.342 119.777 87.569 119.777H232.42C234.646 119.777 236.451 117.972 236.451 115.746H83.538Z" fill="url(#paint120_linear_9_5)"/>
<path d="M112.667 106.372H81.212C79.745 106.372 78.556 107.561 78.556 109.028V113.09C78.556 114.557 79.745 115.746 81.212 115.746H112.667C114.134 115.746 115.323 114.557 115.323 113.09V109.028C115.323 107.561 114.133 106.372 112.667 106.372Z" fill="url(#paint121_linear_9_5)"/>
<path d="M177.869 149.086H169.361V200.813H177.869V149.086Z" fill="url(#paint122_linear_9_5)"/>
<path d="M169.361 149.086H140.554V200.813H169.361V149.086Z" fill="url(#paint123_linear_9_5)"/>
<path d="M166.329 143.86H154.186V200.813H166.329V143.86Z" fill="url(#paint124_linear_9_5)"/>
<path d="M154.186 143.86H123.303V200.813H154.186V143.86Z" fill="url(#paint125_linear_9_5)"/>
<path d="M163.847 155.726H156.667V188.947H163.847V155.726Z" fill="url(#paint126_linear_9_5)"/>
<path d="M148.517 152.187H139.449V200.813H148.517V152.187Z" fill="url(#paint127_linear_9_5)"/>
<path d="M146.349 155.456H141.619V197.545H146.349V155.456Z" fill="url(#paint128_linear_9_5)"/>
<path d="M139.449 152.187H108.566V200.813H139.449V152.187Z" fill="url(#paint129_linear_9_5)"/>
<path d="M139.449 152.187H108.566V200.813H139.449V152.187Z" fill="url(#paint130_linear_9_5)"/>
<path d="M135.335 157.579H126.827V200.813H135.335V157.579Z" fill="url(#paint131_linear_9_5)"/>
<path d="M126.827 157.579H98.02V200.813H126.827V157.579Z" fill="url(#paint132_linear_9_5)"/>
<path d="M166.329 147.941H154.186V150.232H166.329V147.941Z" fill="url(#paint133_linear_9_5)"/>
<path d="M166.329 194.722H154.186V197.013H166.329V194.722Z" fill="url(#paint134_linear_9_5)"/>
<path d="M110.479 147.941H101.475V200.814H110.479V147.941Z" fill="url(#paint135_linear_9_5)"/>
<path d="M101.475 147.941H70.592V200.814H101.475V147.941Z" fill="url(#paint136_linear_9_5)"/>
<path d="M95.345 159.307H88.276V200.814H95.345V159.307Z" fill="url(#paint137_linear_9_5)"/>
<path d="M88.276 159.307H64.031V200.814H88.276V159.307Z" fill="url(#paint138_linear_9_5)"/>
<path d="M110.479 155.456H101.475V159.703H110.479V155.456Z" fill="url(#paint139_linear_9_5)"/>
<path d="M110.479 162.762H101.475V167.009H110.479V162.762Z" fill="url(#paint140_linear_9_5)"/>
<path d="M73.388 152.187H63.021V200.813H73.388V152.187Z" fill="url(#paint141_linear_9_5)"/>
<path d="M63.021 152.187H36.653V200.813H63.021V152.187Z" fill="url(#paint142_linear_9_5)"/>
<path d="M71.27 162.318H65.14V190.682H71.27V162.318Z" fill="url(#paint143_linear_9_5)"/>
<path d="M73.388 155.671H63.021V157.627H73.388V155.671Z" fill="url(#paint144_linear_9_5)"/>
<path d="M73.388 195.612H63.021V197.568H73.388V195.612Z" fill="url(#paint145_linear_9_5)"/>
<path d="M93.844 161.812H89.776V198.308H93.844V161.812Z" fill="url(#paint146_linear_9_5)"/>
<path d="M183.719 200.813H26.136C24.669 200.813 23.48 202.002 23.48 203.469V207.531C23.48 208.998 24.669 210.187 26.136 210.187H183.718C185.185 210.187 186.374 208.998 186.374 207.531V203.469C186.375 202.003 185.185 200.813 183.719 200.813Z" fill="url(#paint147_linear_9_5)"/>
<path d="M28.463 210.187C28.463 212.414 30.267 214.219 32.494 214.219H177.345C179.571 214.219 181.376 212.414 181.376 210.187H28.463Z" fill="url(#paint148_linear_9_5)"/>
<path d="M57.592 200.813H26.136C24.669 200.813 23.48 202.002 23.48 203.469V207.531C23.48 208.998 24.669 210.187 26.136 210.187H57.591C59.058 210.187 60.247 208.998 60.247 207.531V203.469C60.248 202.003 59.058 200.813 57.592 200.813Z" fill="url(#paint149_linear_9_5)"/>
<path d="M227.802 214.953C224.883 214.953 222.507 217.328 222.507 220.248V227.598C222.507 230.517 224.882 232.893 227.802 232.893H238.229V214.953H227.802ZM235.162 229.827H227.801C226.572 229.827 225.572 228.827 225.572 227.598V220.248C225.572 219.019 226.572 218.019 227.801 218.019H235.162V229.827Z" fill="url(#paint150_linear_9_5)"/>
<path d="M253.62 210.187H231.043C230.382 210.187 229.861 210.75 229.913 211.409L231.861 236.231H252.802L254.75 211.409C254.802 210.75 254.281 210.187 253.62 210.187Z" fill="url(#paint151_linear_9_5)"/>
<path d="M219.856 161.298L220.576 166.476C220.658 167.07 221.028 167.585 221.564 167.853L226.238 170.195C227.587 170.871 227.575 172.801 226.218 173.46L221.516 175.745C220.977 176.007 220.602 176.517 220.512 177.11L219.729 182.279C219.503 183.771 217.664 184.356 216.617 183.269L212.991 179.503C212.575 179.071 211.974 178.872 211.383 178.969L206.225 179.822C204.736 180.068 203.611 178.5 204.322 177.169L206.783 172.556C207.065 172.027 207.069 171.394 206.793 170.861L204.388 166.219C203.694 164.879 204.838 163.325 206.323 163.589L211.47 164.504C212.06 164.609 212.664 164.417 213.085 163.99L216.757 160.268C217.817 159.196 219.648 159.803 219.856 161.298Z" fill="white"/>
<path d="M268.992 112.415L268.613 115.142C268.57 115.455 268.375 115.726 268.093 115.867L265.632 117.1C264.922 117.456 264.928 118.472 265.643 118.819L268.119 120.022C268.403 120.16 268.601 120.429 268.648 120.741L269.06 123.463C269.179 124.249 270.147 124.557 270.698 123.984L272.607 122.001C272.826 121.774 273.143 121.669 273.454 121.72L276.17 122.169C276.954 122.299 277.546 121.473 277.172 120.772L275.876 118.343C275.728 118.065 275.726 117.731 275.871 117.451L277.137 115.007C277.503 114.301 276.9 113.483 276.118 113.622L273.408 114.104C273.097 114.159 272.779 114.058 272.558 113.833L270.625 111.873C270.066 111.308 269.101 111.628 268.992 112.415Z" fill="white"/>
<defs>
<linearGradient id="paint0_linear_9_5" x1="205.268" y1="-35.3919" x2="205.268" y2="355.528" gradientUnits="userSpaceOnUse">
<stop stop-color="#D5E7FB"/>
<stop offset="0.2449" stop-color="#D1E5FB"/>
<stop offset="0.5124" stop-color="#C3DEFB"/>
<stop offset="0.7896" stop-color="#AED4FC"/>
<stop offset="1" stop-color="#98C9FC"/>
</linearGradient>
<linearGradient id="paint1_linear_9_5" x1="199.245" y1="15.3817" x2="193.39" y2="63.1439" gradientUnits="userSpaceOnUse">
<stop stop-color="white"/>
<stop offset="1" stop-color="white" stop-opacity="0"/>
</linearGradient>
<linearGradient id="paint2_linear_9_5" x1="297.349" y1="153.997" x2="291.495" y2="201.759" gradientUnits="userSpaceOnUse">
<stop stop-color="white"/>
<stop offset="1" stop-color="white" stop-opacity="0"/>
</linearGradient>
<linearGradient id="paint3_linear_9_5" x1="123.173" y1="188.783" x2="209.417" y2="188.783" gradientUnits="userSpaceOnUse">
<stop stop-color="#72B2F9"/>
<stop offset="1" stop-color="#9BC8F9"/>
</linearGradient>
<linearGradient id="paint4_linear_9_5" x1="374.879" y1="181.306" x2="367.134" y2="218.837" gradientUnits="userSpaceOnUse">
<stop stop-color="#94A744"/>
<stop offset="1" stop-color="#738034"/>
</linearGradient>
<linearGradient id="paint5_linear_9_5" x1="351.204" y1="273.487" x2="402.72" y2="199.005" gradientUnits="userSpaceOnUse">
<stop stop-color="#94A744"/>
<stop offset="0.3889" stop-color="#9BAF4A"/>
<stop offset="0.9879" stop-color="#B0C45A"/>
<stop offset="1" stop-color="#B0C55A"/>
</linearGradient>
<linearGradient id="paint6_linear_9_5" x1="352.098" y1="274.105" x2="403.613" y2="199.625" gradientUnits="userSpaceOnUse">
<stop stop-color="#94A744"/>
<stop offset="0.3889" stop-color="#9BAF4A"/>
<stop offset="0.9879" stop-color="#B0C45A"/>
<stop offset="1" stop-color="#B0C55A"/>
</linearGradient>
<linearGradient id="paint7_linear_9_5" x1="352.605" y1="274.457" x2="404.121" y2="199.977" gradientUnits="userSpaceOnUse">
<stop stop-color="#94A744"/>
<stop offset="0.3889" stop-color="#9BAF4A"/>
<stop offset="0.9879" stop-color="#B0C45A"/>
<stop offset="1" stop-color="#B0C55A"/>
</linearGradient>
<linearGradient id="paint8_linear_9_5" x1="352.726" y1="274.542" x2="404.242" y2="200.061" gradientUnits="userSpaceOnUse">
<stop stop-color="#94A744"/>
<stop offset="0.3889" stop-color="#9BAF4A"/>
<stop offset="0.9879" stop-color="#B0C45A"/>
<stop offset="1" stop-color="#B0C55A"/>
</linearGradient>
<linearGradient id="paint9_linear_9_5" x1="352.46" y1="274.359" x2="403.976" y2="199.877" gradientUnits="userSpaceOnUse">
<stop stop-color="#94A744"/>
<stop offset="0.3889" stop-color="#9BAF4A"/>
<stop offset="0.9879" stop-color="#B0C45A"/>
<stop offset="1" stop-color="#B0C55A"/>
</linearGradient>
<linearGradient id="paint10_linear_9_5" x1="351.806" y1="273.907" x2="403.322" y2="199.425" gradientUnits="userSpaceOnUse">
<stop stop-color="#94A744"/>
<stop offset="0.3889" stop-color="#9BAF4A"/>
<stop offset="0.9879" stop-color="#B0C45A"/>
<stop offset="1" stop-color="#B0C55A"/>
</linearGradient>
<linearGradient id="paint11_linear_9_5" x1="350.763" y1="273.187" x2="402.279" y2="198.705" gradientUnits="userSpaceOnUse">
<stop stop-color="#94A744"/>
<stop offset="0.3889" stop-color="#9BAF4A"/>
<stop offset="0.9879" stop-color="#B0C45A"/>
<stop offset="1" stop-color="#B0C55A"/>
</linearGradient>
<linearGradient id="paint12_linear_9_5" x1="349.331" y1="272.198" x2="400.848" y2="197.715" gradientUnits="userSpaceOnUse">
<stop stop-color="#94A744"/>
<stop offset="0.3889" stop-color="#9BAF4A"/>
<stop offset="0.9879" stop-color="#B0C45A"/>
<stop offset="1" stop-color="#B0C55A"/>
</linearGradient>
<linearGradient id="paint13_linear_9_5" x1="362.532" y1="281.322" x2="414.041" y2="206.851" gradientUnits="userSpaceOnUse">
<stop stop-color="#94A744"/>
<stop offset="0.3889" stop-color="#9BAF4A"/>
<stop offset="0.9879" stop-color="#B0C45A"/>
<stop offset="1" stop-color="#B0C55A"/>
</linearGradient>
<linearGradient id="paint14_linear_9_5" x1="363.301" y1="281.853" x2="414.81" y2="207.381" gradientUnits="userSpaceOnUse">
<stop stop-color="#94A744"/>
<stop offset="0.3889" stop-color="#9BAF4A"/>
<stop offset="0.9879" stop-color="#B0C45A"/>
<stop offset="1" stop-color="#B0C55A"/>
</linearGradient>
<linearGradient id="paint15_linear_9_5" x1="363.663" y1="282.103" x2="415.172" y2="207.631" gradientUnits="userSpaceOnUse">
<stop stop-color="#94A744"/>
<stop offset="0.3889" stop-color="#9BAF4A"/>
<stop offset="0.9879" stop-color="#B0C45A"/>
<stop offset="1" stop-color="#B0C55A"/>
</linearGradient>
<linearGradient id="paint16_linear_9_5" x1="363.618" y1="282.071" x2="415.128" y2="207.599" gradientUnits="userSpaceOnUse">
<stop stop-color="#94A744"/>
<stop offset="0.3889" stop-color="#9BAF4A"/>
<stop offset="0.9879" stop-color="#B0C45A"/>
<stop offset="1" stop-color="#B0C55A"/>
</linearGradient>
<linearGradient id="paint17_linear_9_5" x1="363.166" y1="281.758" x2="414.676" y2="207.285" gradientUnits="userSpaceOnUse">
<stop stop-color="#94A744"/>
<stop offset="0.3889" stop-color="#9BAF4A"/>
<stop offset="0.9879" stop-color="#B0C45A"/>
<stop offset="1" stop-color="#B0C55A"/>
</linearGradient>
<linearGradient id="paint18_linear_9_5" x1="362.305" y1="281.162" x2="413.815" y2="206.69" gradientUnits="userSpaceOnUse">
<stop stop-color="#94A744"/>
<stop offset="0.3889" stop-color="#9BAF4A"/>
<stop offset="0.9879" stop-color="#B0C45A"/>
<stop offset="1" stop-color="#B0C55A"/>
</linearGradient>
<linearGradient id="paint19_linear_9_5" x1="361.037" y1="280.284" x2="412.546" y2="205.811" gradientUnits="userSpaceOnUse">
<stop stop-color="#94A744"/>
<stop offset="0.3889" stop-color="#9BAF4A"/>
<stop offset="0.9879" stop-color="#B0C45A"/>
<stop offset="1" stop-color="#B0C55A"/>
</linearGradient>
<linearGradient id="paint20_linear_9_5" x1="359.358" y1="279.123" x2="410.869" y2="204.649" gradientUnits="userSpaceOnUse">
<stop stop-color="#94A744"/>
<stop offset="0.3889" stop-color="#9BAF4A"/>
<stop offset="0.9879" stop-color="#B0C45A"/>
<stop offset="1" stop-color="#B0C55A"/>
</linearGradient>
<linearGradient id="paint21_linear_9_5" x1="351.56" y1="273.734" x2="403.073" y2="199.257" gradientUnits="userSpaceOnUse">
<stop stop-color="#94A744"/>
<stop offset="0.3889" stop-color="#9BAF4A"/>
<stop offset="0.9879" stop-color="#B0C45A"/>
<stop offset="1" stop-color="#B0C55A"/>
</linearGradient>
<linearGradient id="paint22_linear_9_5" x1="65.0075" y1="211.134" x2="69.6207" y2="249.177" gradientUnits="userSpaceOnUse">
<stop stop-color="#94A744"/>
<stop offset="1" stop-color="#738034"/>
</linearGradient>
<linearGradient id="paint23_linear_9_5" x1="80.9754" y1="304.958" x2="35.798" y2="226.471" gradientUnits="userSpaceOnUse">
<stop stop-color="#94A744"/>
<stop offset="0.3889" stop-color="#9BAF4A"/>
<stop offset="0.9879" stop-color="#B0C45A"/>
<stop offset="1" stop-color="#B0C55A"/>
</linearGradient>
<linearGradient id="paint24_linear_9_5" x1="80.0338" y1="305.5" x2="34.8562" y2="227.014" gradientUnits="userSpaceOnUse">
<stop stop-color="#94A744"/>
<stop offset="0.3889" stop-color="#9BAF4A"/>
<stop offset="0.9879" stop-color="#B0C45A"/>
<stop offset="1" stop-color="#B0C55A"/>
</linearGradient>
<linearGradient id="paint25_linear_9_5" x1="79.4987" y1="305.809" x2="34.3216" y2="227.323" gradientUnits="userSpaceOnUse">
<stop stop-color="#94A744"/>
<stop offset="0.3889" stop-color="#9BAF4A"/>
<stop offset="0.9879" stop-color="#B0C45A"/>
<stop offset="1" stop-color="#B0C55A"/>
</linearGradient>
<linearGradient id="paint26_linear_9_5" x1="79.3711" y1="305.883" x2="34.1939" y2="227.397" gradientUnits="userSpaceOnUse">
<stop stop-color="#94A744"/>
<stop offset="0.3889" stop-color="#9BAF4A"/>
<stop offset="0.9879" stop-color="#B0C45A"/>
<stop offset="1" stop-color="#B0C55A"/>
</linearGradient>
<linearGradient id="paint27_linear_9_5" x1="79.6519" y1="305.722" x2="34.474" y2="227.235" gradientUnits="userSpaceOnUse">
<stop stop-color="#94A744"/>
<stop offset="0.3889" stop-color="#9BAF4A"/>
<stop offset="0.9879" stop-color="#B0C45A"/>
<stop offset="1" stop-color="#B0C55A"/>
</linearGradient>
<linearGradient id="paint28_linear_9_5" x1="80.3414" y1="305.327" x2="35.1632" y2="226.839" gradientUnits="userSpaceOnUse">
<stop stop-color="#94A744"/>
<stop offset="0.3889" stop-color="#9BAF4A"/>
<stop offset="0.9879" stop-color="#B0C45A"/>
<stop offset="1" stop-color="#B0C55A"/>
</linearGradient>
<linearGradient id="paint29_linear_9_5" x1="81.4401" y1="304.695" x2="36.2621" y2="226.207" gradientUnits="userSpaceOnUse">
<stop stop-color="#94A744"/>
<stop offset="0.3889" stop-color="#9BAF4A"/>
<stop offset="0.9879" stop-color="#B0C45A"/>
<stop offset="1" stop-color="#B0C55A"/>
</linearGradient>
<linearGradient id="paint30_linear_9_5" x1="82.9487" y1="303.827" x2="37.7705" y2="225.339" gradientUnits="userSpaceOnUse">
<stop stop-color="#94A744"/>
<stop offset="0.3889" stop-color="#9BAF4A"/>
<stop offset="0.9879" stop-color="#B0C45A"/>
<stop offset="1" stop-color="#B0C55A"/>
</linearGradient>
<linearGradient id="paint31_linear_9_5" x1="69.0375" y1="311.829" x2="23.8647" y2="233.351" gradientUnits="userSpaceOnUse">
<stop stop-color="#94A744"/>
<stop offset="0.3889" stop-color="#9BAF4A"/>
<stop offset="0.9879" stop-color="#B0C45A"/>
<stop offset="1" stop-color="#B0C55A"/>
</linearGradient>
<linearGradient id="paint32_linear_9_5" x1="68.2282" y1="312.295" x2="23.055" y2="233.816" gradientUnits="userSpaceOnUse">
<stop stop-color="#94A744"/>
<stop offset="0.3889" stop-color="#9BAF4A"/>
<stop offset="0.9879" stop-color="#B0C45A"/>
<stop offset="1" stop-color="#B0C55A"/>
</linearGradient>
<linearGradient id="paint33_linear_9_5" x1="67.8468" y1="312.513" x2="22.6741" y2="234.036" gradientUnits="userSpaceOnUse">
<stop stop-color="#94A744"/>
<stop offset="0.3889" stop-color="#9BAF4A"/>
<stop offset="0.9879" stop-color="#B0C45A"/>
<stop offset="1" stop-color="#B0C55A"/>
</linearGradient>
<linearGradient id="paint34_linear_9_5" x1="67.8943" y1="312.486" x2="22.7211" y2="234.007" gradientUnits="userSpaceOnUse">
<stop stop-color="#94A744"/>
<stop offset="0.3889" stop-color="#9BAF4A"/>
<stop offset="0.9879" stop-color="#B0C45A"/>
<stop offset="1" stop-color="#B0C55A"/>
</linearGradient>
<linearGradient id="paint35_linear_9_5" x1="68.3711" y1="312.211" x2="23.1979" y2="233.732" gradientUnits="userSpaceOnUse">
<stop stop-color="#94A744"/>
<stop offset="0.3889" stop-color="#9BAF4A"/>
<stop offset="0.9879" stop-color="#B0C45A"/>
<stop offset="1" stop-color="#B0C55A"/>
</linearGradient>
<linearGradient id="paint36_linear_9_5" x1="69.278" y1="311.689" x2="24.1046" y2="233.209" gradientUnits="userSpaceOnUse">
<stop stop-color="#94A744"/>
<stop offset="0.3889" stop-color="#9BAF4A"/>
<stop offset="0.9879" stop-color="#B0C45A"/>
<stop offset="1" stop-color="#B0C55A"/>
</linearGradient>
<linearGradient id="paint37_linear_9_5" x1="70.6154" y1="310.918" x2="25.4419" y2="232.439" gradientUnits="userSpaceOnUse">
<stop stop-color="#94A744"/>
<stop offset="0.3889" stop-color="#9BAF4A"/>
<stop offset="0.9879" stop-color="#B0C45A"/>
<stop offset="1" stop-color="#B0C55A"/>
</linearGradient>
<linearGradient id="paint38_linear_9_5" x1="72.3841" y1="309.9" x2="27.2101" y2="231.42" gradientUnits="userSpaceOnUse">
<stop stop-color="#94A744"/>
<stop offset="0.3889" stop-color="#9BAF4A"/>
<stop offset="0.9879" stop-color="#B0C45A"/>
<stop offset="1" stop-color="#B0C55A"/>
</linearGradient>
<linearGradient id="paint39_linear_9_5" x1="80.6009" y1="305.175" x2="35.4251" y2="226.691" gradientUnits="userSpaceOnUse">
<stop stop-color="#94A744"/>
<stop offset="0.3889" stop-color="#9BAF4A"/>
<stop offset="0.9879" stop-color="#B0C45A"/>
<stop offset="1" stop-color="#B0C55A"/>
</linearGradient>
<linearGradient id="paint40_linear_9_5" x1="416.08" y1="303.238" x2="339.163" y2="363.042" gradientUnits="userSpaceOnUse">
<stop stop-color="#94A744"/>
<stop offset="1" stop-color="#738034"/>
</linearGradient>
<linearGradient id="paint41_linear_9_5" x1="354.421" y1="283.292" x2="305.437" y2="367.519" gradientUnits="userSpaceOnUse">
<stop stop-color="#94A744"/>
<stop offset="1" stop-color="#738034"/>
</linearGradient>
<linearGradient id="paint42_linear_9_5" x1="345.992" y1="355.05" x2="378.259" y2="284.161" gradientUnits="userSpaceOnUse">
<stop stop-color="#94A744"/>
<stop offset="0.3889" stop-color="#9BAF4A"/>
<stop offset="0.9879" stop-color="#B0C45A"/>
<stop offset="1" stop-color="#B0C55A"/>
</linearGradient>
<linearGradient id="paint43_linear_9_5" x1="1.04668" y1="303.238" x2="77.9649" y2="363.042" gradientUnits="userSpaceOnUse">
<stop stop-color="#94A744"/>
<stop offset="1" stop-color="#738034"/>
</linearGradient>
<linearGradient id="paint44_linear_9_5" x1="71.1353" y1="355.05" x2="38.868" y2="284.161" gradientUnits="userSpaceOnUse">
<stop stop-color="#94A744"/>
<stop offset="0.3889" stop-color="#9BAF4A"/>
<stop offset="0.9879" stop-color="#B0C45A"/>
<stop offset="1" stop-color="#B0C55A"/>
</linearGradient>
<linearGradient id="paint45_linear_9_5" x1="260.936" y1="76.0759" x2="246.584" y2="65.3771" gradientUnits="userSpaceOnUse">
<stop stop-color="#E9A78D"/>
<stop offset="1" stop-color="#ECCDB8"/>
</linearGradient>
<linearGradient id="paint46_linear_9_5" x1="258.906" y1="40.9608" x2="339.973" y2="23.5645" gradientUnits="userSpaceOnUse">
<stop offset="2.5e-07" stop-color="#AF3636"/>
<stop offset="0.3792" stop-color="#C94F4F"/>
<stop offset="0.7319" stop-color="#D95E5E"/>
<stop offset="1" stop-color="#DF6464"/>
</linearGradient>
<linearGradient id="paint47_linear_9_5" x1="205.956" y1="86.8086" x2="268.931" y2="32.1841" gradientUnits="userSpaceOnUse">
<stop offset="2.5e-07" stop-color="#AF3636"/>
<stop offset="0.3792" stop-color="#C94F4F"/>
<stop offset="0.7319" stop-color="#D95E5E"/>
<stop offset="1" stop-color="#DF6464"/>
</linearGradient>
<linearGradient id="paint48_linear_9_5" x1="264.776" y1="70.9241" x2="250.424" y2="60.2254" gradientUnits="userSpaceOnUse">
<stop stop-color="#E9A78D"/>
<stop offset="1" stop-color="#ECCDB8"/>
</linearGradient>
<linearGradient id="paint49_linear_9_5" x1="276.635" y1="62.002" x2="314.603" y2="115.365" gradientUnits="userSpaceOnUse">
<stop stop-color="#DFA23E"/>
<stop offset="0.2793" stop-color="#DE9F3C"/>
<stop offset="0.5244" stop-color="#DC9436"/>
<stop offset="0.7567" stop-color="#D8822C"/>
<stop offset="0.9798" stop-color="#D3691E"/>
<stop offset="1" stop-color="#D2661C"/>
</linearGradient>
<linearGradient id="paint50_linear_9_5" x1="36.7907" y1="368.538" x2="416.205" y2="365.929" gradientUnits="userSpaceOnUse">
<stop stop-color="#94A744"/>
<stop offset="0.3889" stop-color="#9BAF4A"/>
<stop offset="0.9879" stop-color="#B0C45A"/>
<stop offset="1" stop-color="#B0C55A"/>
</linearGradient>
<linearGradient id="paint51_linear_9_5" x1="129.277" y1="361.39" x2="-5.92485" y2="523.504" gradientUnits="userSpaceOnUse">
<stop stop-color="#72B2F9"/>
<stop offset="1" stop-color="#9BC8F9"/>
</linearGradient>
<linearGradient id="paint52_linear_9_5" x1="283.581" y1="310.814" x2="252.37" y2="367.696" gradientUnits="userSpaceOnUse">
<stop stop-color="#72B2F9"/>
<stop offset="1" stop-color="#9BC8F9"/>
</linearGradient>
<linearGradient id="paint53_linear_9_5" x1="148.463" y1="318.659" x2="124.329" y2="362.642" gradientUnits="userSpaceOnUse">
<stop stop-color="white"/>
<stop offset="0.2836" stop-color="#FAFCFF"/>
<stop offset="0.6369" stop-color="#EAF5FE"/>
<stop offset="1" stop-color="#D3E9FD"/>
</linearGradient>
<linearGradient id="paint54_linear_9_5" x1="260.09" y1="308.772" x2="268.361" y2="369.698" gradientUnits="userSpaceOnUse">
<stop stop-color="white"/>
<stop offset="0.2836" stop-color="#FAFCFF"/>
<stop offset="0.6369" stop-color="#EAF5FE"/>
<stop offset="1" stop-color="#D3E9FD"/>
</linearGradient>
<linearGradient id="paint55_linear_9_5" x1="314.159" y1="336.098" x2="221.763" y2="336.098" gradientUnits="userSpaceOnUse">
<stop stop-color="#D5E7FB"/>
<stop offset="0.2449" stop-color="#D1E5FB"/>
<stop offset="0.5124" stop-color="#C3DEFB"/>
<stop offset="0.7896" stop-color="#AED4FC"/>
<stop offset="1" stop-color="#98C9FC"/>
</linearGradient>
<linearGradient id="paint56_linear_9_5" x1="280.228" y1="345.165" x2="214.324" y2="345.165" gradientUnits="userSpaceOnUse">
<stop stop-color="#D5E7FB"/>
<stop offset="0.2449" stop-color="#D1E5FB"/>
<stop offset="0.5124" stop-color="#C3DEFB"/>
<stop offset="0.7896" stop-color="#AED4FC"/>
<stop offset="1" stop-color="#98C9FC"/>
</linearGradient>
<linearGradient id="paint57_linear_9_5" x1="300.326" y1="355.449" x2="234.422" y2="355.449" gradientUnits="userSpaceOnUse">
<stop stop-color="#D5E7FB"/>
<stop offset="0.2449" stop-color="#D1E5FB"/>
<stop offset="0.5124" stop-color="#C3DEFB"/>
<stop offset="0.7896" stop-color="#AED4FC"/>
<stop offset="1" stop-color="#98C9FC"/>
</linearGradient>
<linearGradient id="paint58_linear_9_5" x1="137.408" y1="273.651" x2="2.20597" y2="435.766" gradientUnits="userSpaceOnUse">
<stop stop-color="#72B2F9"/>
<stop offset="1" stop-color="#9BC8F9"/>
</linearGradient>
<linearGradient id="paint59_linear_9_5" x1="291.712" y1="223.076" x2="260.501" y2="279.958" gradientUnits="userSpaceOnUse">
<stop stop-color="#72B2F9"/>
<stop offset="1" stop-color="#9BC8F9"/>
</linearGradient>
<linearGradient id="paint60_linear_9_5" x1="156.594" y1="230.921" x2="132.46" y2="274.904" gradientUnits="userSpaceOnUse">
<stop stop-color="white"/>
<stop offset="0.2836" stop-color="#FAFCFF"/>
<stop offset="0.6369" stop-color="#EAF5FE"/>
<stop offset="1" stop-color="#D3E9FD"/>
</linearGradient>
<linearGradient id="paint61_linear_9_5" x1="268.221" y1="221.034" x2="276.491" y2="281.96" gradientUnits="userSpaceOnUse">
<stop stop-color="white"/>
<stop offset="0.2836" stop-color="#FAFCFF"/>
<stop offset="0.6369" stop-color="#EAF5FE"/>
<stop offset="1" stop-color="#D3E9FD"/>
</linearGradient>
<linearGradient id="paint62_linear_9_5" x1="322.29" y1="248.36" x2="229.893" y2="248.36" gradientUnits="userSpaceOnUse">
<stop stop-color="#D5E7FB"/>
<stop offset="0.2449" stop-color="#D1E5FB"/>
<stop offset="0.5124" stop-color="#C3DEFB"/>
<stop offset="0.7896" stop-color="#AED4FC"/>
<stop offset="1" stop-color="#98C9FC"/>
</linearGradient>
<linearGradient id="paint63_linear_9_5" x1="288.358" y1="257.427" x2="222.454" y2="257.427" gradientUnits="userSpaceOnUse">
<stop stop-color="#D5E7FB"/>
<stop offset="0.2449" stop-color="#D1E5FB"/>
<stop offset="0.5124" stop-color="#C3DEFB"/>
<stop offset="0.7896" stop-color="#AED4FC"/>
<stop offset="1" stop-color="#98C9FC"/>
</linearGradient>
<linearGradient id="paint64_linear_9_5" x1="308.457" y1="267.711" x2="242.552" y2="267.711" gradientUnits="userSpaceOnUse">
<stop stop-color="#D5E7FB"/>
<stop offset="0.2449" stop-color="#D1E5FB"/>
<stop offset="0.5124" stop-color="#C3DEFB"/>
<stop offset="0.7896" stop-color="#AED4FC"/>
<stop offset="1" stop-color="#98C9FC"/>
</linearGradient>
<linearGradient id="paint65_linear_9_5" x1="114.934" y1="258.947" x2="138.307" y2="335.114" gradientUnits="userSpaceOnUse">
<stop stop-color="#CC3D76"/>
<stop offset="0.9854" stop-color="#DB719F"/>
</linearGradient>
<linearGradient id="paint66_linear_9_5" x1="135.32" y1="274.904" x2="111.186" y2="318.888" gradientUnits="userSpaceOnUse">
<stop stop-color="white"/>
<stop offset="0.2836" stop-color="#FAFCFF"/>
<stop offset="0.6369" stop-color="#EAF5FE"/>
<stop offset="1" stop-color="#D3E9FD"/>
</linearGradient>
<linearGradient id="paint67_linear_9_5" x1="292.984" y1="217.649" x2="262.367" y2="279.58" gradientUnits="userSpaceOnUse">
<stop stop-color="#A0325E"/>
<stop offset="0.9854" stop-color="#AE5B80"/>
</linearGradient>
<linearGradient id="paint68_linear_9_5" x1="246.946" y1="265.017" x2="255.218" y2="325.943" gradientUnits="userSpaceOnUse">
<stop stop-color="white"/>
<stop offset="0.2836" stop-color="#FAFCFF"/>
<stop offset="0.6369" stop-color="#EAF5FE"/>
<stop offset="1" stop-color="#D3E9FD"/>
</linearGradient>
<linearGradient id="paint69_linear_9_5" x1="301.017" y1="292.343" x2="208.619" y2="292.343" gradientUnits="userSpaceOnUse">
<stop stop-color="#D5E7FB"/>
<stop offset="0.2449" stop-color="#D1E5FB"/>
<stop offset="0.5124" stop-color="#C3DEFB"/>
<stop offset="0.7896" stop-color="#AED4FC"/>
<stop offset="1" stop-color="#98C9FC"/>
</linearGradient>
<linearGradient id="paint70_linear_9_5" x1="267.085" y1="301.41" x2="201.181" y2="301.41" gradientUnits="userSpaceOnUse">
<stop stop-color="#D5E7FB"/>
<stop offset="0.2449" stop-color="#D1E5FB"/>
<stop offset="0.5124" stop-color="#C3DEFB"/>
<stop offset="0.7896" stop-color="#AED4FC"/>
<stop offset="1" stop-color="#98C9FC"/>
</linearGradient>
<linearGradient id="paint71_linear_9_5" x1="287.183" y1="311.694" x2="221.278" y2="311.694" gradientUnits="userSpaceOnUse">
<stop stop-color="#D5E7FB"/>
<stop offset="0.2449" stop-color="#D1E5FB"/>
<stop offset="0.5124" stop-color="#C3DEFB"/>
<stop offset="0.7896" stop-color="#AED4FC"/>
<stop offset="1" stop-color="#98C9FC"/>
</linearGradient>
<linearGradient id="paint72_linear_9_5" x1="345.393" y1="334.495" x2="342.41" y2="361.59" gradientUnits="userSpaceOnUse">
<stop stop-color="#D69A82"/>
<stop offset="1" stop-color="#D8BCA8"/>
</linearGradient>
<linearGradient id="paint73_linear_9_5" x1="325.575" y1="358.006" x2="382.558" y2="373.895" gradientUnits="userSpaceOnUse">
<stop stop-color="#BD4847"/>
<stop offset="0.365" stop-color="#BA4544"/>
<stop offset="0.6467" stop-color="#B23B3A"/>
<stop offset="0.8997" stop-color="#A42B2A"/>
<stop offset="1" stop-color="#9C2221"/>
</linearGradient>
<linearGradient id="paint74_linear_9_5" x1="305.337" y1="334.233" x2="302.318" y2="361.649" gradientUnits="userSpaceOnUse">
<stop stop-color="#E9A78D"/>
<stop offset="1" stop-color="#ECCDB8"/>
</linearGradient>
<linearGradient id="paint75_linear_9_5" x1="281.103" y1="357.247" x2="346.495" y2="375.482" gradientUnits="userSpaceOnUse">
<stop stop-color="#CF4D4C"/>
<stop offset="0.354" stop-color="#CD4A49"/>
<stop offset="0.6272" stop-color="#C5403F"/>
<stop offset="0.8727" stop-color="#B7302F"/>
<stop offset="1" stop-color="#AE2423"/>
</linearGradient>
<linearGradient id="paint76_linear_9_5" x1="352.485" y1="335.073" x2="349.271" y2="188.149" gradientUnits="userSpaceOnUse">
<stop stop-color="#36366B"/>
<stop offset="1" stop-color="#484883"/>
</linearGradient>
<linearGradient id="paint77_linear_9_5" x1="325.002" y1="337.42" x2="321.773" y2="189.788" gradientUnits="userSpaceOnUse">
<stop stop-color="#676795"/>
<stop offset="1" stop-color="#484883"/>
</linearGradient>
<linearGradient id="paint78_linear_9_5" x1="347.128" y1="66.1613" x2="366.177" y2="50.6786" gradientUnits="userSpaceOnUse">
<stop stop-color="#D59A81"/>
<stop offset="1" stop-color="#D7BBA7"/>
</linearGradient>
<linearGradient id="paint79_linear_9_5" x1="334.809" y1="74.2065" x2="345.682" y2="97.6915" gradientUnits="userSpaceOnUse">
<stop stop-color="#E9A78D"/>
<stop offset="1" stop-color="#ECCDB8"/>
</linearGradient>
<linearGradient id="paint80_linear_9_5" x1="318.631" y1="78.8187" x2="333.157" y2="56.1164" gradientUnits="userSpaceOnUse">
<stop stop-color="#E9A78D"/>
<stop offset="1" stop-color="#ECCDB8"/>
</linearGradient>
<linearGradient id="paint81_linear_9_5" x1="380.405" y1="65.9964" x2="316.734" y2="217.866" gradientUnits="userSpaceOnUse">
<stop stop-color="#DFA23E"/>
<stop offset="0.2793" stop-color="#DE9F3C"/>
<stop offset="0.5244" stop-color="#DC9436"/>
<stop offset="0.7567" stop-color="#D8822C"/>
<stop offset="0.9798" stop-color="#D3691E"/>
<stop offset="1" stop-color="#D2661C"/>
</linearGradient>
<linearGradient id="paint82_linear_9_5" x1="371.303" y1="59.5989" x2="327.986" y2="139.448" gradientUnits="userSpaceOnUse">
<stop stop-color="#D89D3C"/>
<stop offset="0.2836" stop-color="#D79A3A"/>
<stop offset="0.5324" stop-color="#D58F34"/>
<stop offset="0.7674" stop-color="#D17D2A"/>
<stop offset="0.994" stop-color="#CB641B"/>
<stop offset="1" stop-color="#CB631B"/>
</linearGradient>
<linearGradient id="paint83_linear_9_5" x1="273.872" y1="161.958" x2="325.716" y2="161.958" gradientUnits="userSpaceOnUse">
<stop stop-color="#597FC8"/>
<stop offset="0.3304" stop-color="#577CC7"/>
<stop offset="0.5581" stop-color="#5173C2"/>
<stop offset="0.7549" stop-color="#4764BB"/>
<stop offset="0.9331" stop-color="#394EB0"/>
<stop offset="1" stop-color="#3244AB"/>
</linearGradient>
<linearGradient id="paint84_linear_9_5" x1="272.1" y1="174.042" x2="310.769" y2="174.042" gradientUnits="userSpaceOnUse">
<stop stop-color="#597FC8"/>
<stop offset="0.3304" stop-color="#577CC7"/>
<stop offset="0.5581" stop-color="#5173C2"/>
<stop offset="0.7549" stop-color="#4764BB"/>
<stop offset="0.9331" stop-color="#394EB0"/>
<stop offset="1" stop-color="#3244AB"/>
</linearGradient>
<linearGradient id="paint85_linear_9_5" x1="296.195" y1="140.729" x2="294.76" y2="153.124" gradientUnits="userSpaceOnUse">
<stop stop-color="#597FC8"/>
<stop offset="0.3304" stop-color="#577CC7"/>
<stop offset="0.5581" stop-color="#5173C2"/>
<stop offset="0.7549" stop-color="#4764BB"/>
<stop offset="0.9331" stop-color="#394EB0"/>
<stop offset="1" stop-color="#3244AB"/>
</linearGradient>
<linearGradient id="paint86_linear_9_5" x1="297.962" y1="159.367" x2="280.74" y2="179.199" gradientUnits="userSpaceOnUse">
<stop stop-color="#E9A78D"/>
<stop offset="1" stop-color="#ECCDB8"/>
</linearGradient>
<linearGradient id="paint87_linear_9_5" x1="324.527" y1="85.7079" x2="349.47" y2="85.7079" gradientUnits="userSpaceOnUse">
<stop stop-color="#DFA23E"/>
<stop offset="0.2793" stop-color="#DE9F3C"/>
<stop offset="0.5244" stop-color="#DC9436"/>
<stop offset="0.7567" stop-color="#D8822C"/>
<stop offset="0.9798" stop-color="#D3691E"/>
<stop offset="1" stop-color="#D2661C"/>
</linearGradient>
<linearGradient id="paint88_linear_9_5" x1="358.763" y1="56.9235" x2="295.093" y2="208.794" gradientUnits="userSpaceOnUse">
<stop stop-color="#DFA23E"/>
<stop offset="0.2793" stop-color="#DE9F3C"/>
<stop offset="0.5244" stop-color="#DC9436"/>
<stop offset="0.7567" stop-color="#D8822C"/>
<stop offset="0.9798" stop-color="#D3691E"/>
<stop offset="1" stop-color="#D2661C"/>
</linearGradient>
<linearGradient id="paint89_linear_9_5" x1="372.094" y1="22.2941" x2="354.349" y2="55.4342" gradientUnits="userSpaceOnUse">
<stop stop-color="#D89D3C"/>
<stop offset="0.2836" stop-color="#D79A3A"/>
<stop offset="0.5324" stop-color="#D58F34"/>
<stop offset="0.7674" stop-color="#D17D2A"/>
<stop offset="0.994" stop-color="#CB641B"/>
<stop offset="1" stop-color="#CB631B"/>
</linearGradient>
<linearGradient id="paint90_linear_9_5" x1="372.594" y1="22.5621" x2="354.85" y2="55.702" gradientUnits="userSpaceOnUse">
<stop stop-color="#D89D3C"/>
<stop offset="0.2836" stop-color="#D79A3A"/>
<stop offset="0.5324" stop-color="#D58F34"/>
<stop offset="0.7674" stop-color="#D17D2A"/>
<stop offset="0.994" stop-color="#CB641B"/>
<stop offset="1" stop-color="#CB631B"/>
</linearGradient>
<linearGradient id="paint91_linear_9_5" x1="385.958" y1="29.7157" x2="368.214" y2="62.8562" gradientUnits="userSpaceOnUse">
<stop stop-color="#D89D3C"/>
<stop offset="0.2836" stop-color="#D79A3A"/>
<stop offset="0.5324" stop-color="#D58F34"/>
<stop offset="0.7674" stop-color="#D17D2A"/>
<stop offset="0.994" stop-color="#CB641B"/>
<stop offset="1" stop-color="#CB631B"/>
</linearGradient>
<linearGradient id="paint92_linear_9_5" x1="381.902" y1="27.5446" x2="364.157" y2="60.685" gradientUnits="userSpaceOnUse">
<stop stop-color="#D89D3C"/>
<stop offset="0.2836" stop-color="#D79A3A"/>
<stop offset="0.5324" stop-color="#D58F34"/>
<stop offset="0.7674" stop-color="#D17D2A"/>
<stop offset="0.994" stop-color="#CB641B"/>
<stop offset="1" stop-color="#CB631B"/>
</linearGradient>
<linearGradient id="paint93_linear_9_5" x1="382.686" y1="27.6763" x2="364.941" y2="60.8162" gradientUnits="userSpaceOnUse">
<stop stop-color="#D89D3C"/>
<stop offset="0.2836" stop-color="#D79A3A"/>
<stop offset="0.5324" stop-color="#D58F34"/>
<stop offset="0.7674" stop-color="#D17D2A"/>
<stop offset="0.994" stop-color="#CB641B"/>
<stop offset="1" stop-color="#CB631B"/>
</linearGradient>
<linearGradient id="paint94_linear_9_5" x1="313.14" y1="54.297" x2="352.243" y2="54.297" gradientUnits="userSpaceOnUse">
<stop stop-color="#5E2D15"/>
<stop offset="1" stop-color="#7D4911"/>
</linearGradient>
<linearGradient id="paint95_linear_9_5" x1="321.446" y1="80.6196" x2="335.972" y2="57.9174" gradientUnits="userSpaceOnUse">
<stop stop-color="#E9A78D"/>
<stop offset="1" stop-color="#ECCDB8"/>
</linearGradient>
<linearGradient id="paint96_linear_9_5" x1="206.963" y1="100.694" x2="224.006" y2="54.2685" gradientUnits="userSpaceOnUse">
<stop stop-color="#CE598C"/>
<stop offset="0.9854" stop-color="#E08FB5"/>
</linearGradient>
<linearGradient id="paint97_linear_9_5" x1="185.829" y1="93.723" x2="205.569" y2="54.6226" gradientUnits="userSpaceOnUse">
<stop stop-color="#BB3973"/>
<stop offset="0.9854" stop-color="#CA6996"/>
</linearGradient>
<linearGradient id="paint98_linear_9_5" x1="222.609" y1="59.233" x2="212.495" y2="85.1718" gradientUnits="userSpaceOnUse">
<stop stop-color="#D5E7FB"/>
<stop offset="0.2449" stop-color="#D1E5FB"/>
<stop offset="0.5124" stop-color="#C3DEFB"/>
<stop offset="0.7896" stop-color="#AED4FC"/>
<stop offset="1" stop-color="#98C9FC"/>
</linearGradient>
<linearGradient id="paint99_linear_9_5" x1="211.038" y1="56.2656" x2="191.695" y2="97.9123" gradientUnits="userSpaceOnUse">
<stop stop-color="#DFA23E"/>
<stop offset="0.2793" stop-color="#DE9F3C"/>
<stop offset="0.5244" stop-color="#DC9436"/>
<stop offset="0.7567" stop-color="#D8822C"/>
<stop offset="0.9798" stop-color="#D3691E"/>
<stop offset="1" stop-color="#D2661C"/>
</linearGradient>
<linearGradient id="paint100_linear_9_5" x1="209.099" y1="60.4405" x2="192.887" y2="95.3463" gradientUnits="userSpaceOnUse">
<stop stop-color="#D5E7FB"/>
<stop offset="0.2449" stop-color="#D1E5FB"/>
<stop offset="0.5124" stop-color="#C3DEFB"/>
<stop offset="0.7896" stop-color="#AED4FC"/>
<stop offset="1" stop-color="#98C9FC"/>
</linearGradient>
<linearGradient id="paint101_linear_9_5" x1="191.771" y1="55.3745" x2="172.625" y2="95.6395" gradientUnits="userSpaceOnUse">
<stop stop-color="#D18945"/>
<stop offset="0.2836" stop-color="#D08643"/>
<stop offset="0.5324" stop-color="#CE7B3C"/>
<stop offset="0.7674" stop-color="#CB6931"/>
<stop offset="0.994" stop-color="#C65021"/>
<stop offset="1" stop-color="#C64F21"/>
</linearGradient>
<linearGradient id="paint102_linear_9_5" x1="191.771" y1="55.3745" x2="172.625" y2="95.6395" gradientUnits="userSpaceOnUse">
<stop stop-color="#D18945"/>
<stop offset="0.2836" stop-color="#D08643"/>
<stop offset="0.5324" stop-color="#CE7B3C"/>
<stop offset="0.7674" stop-color="#CB6931"/>
<stop offset="0.994" stop-color="#C65021"/>
<stop offset="1" stop-color="#C64F21"/>
</linearGradient>
<linearGradient id="paint103_linear_9_5" x1="196.854" y1="61.7207" x2="179.58" y2="98.9124" gradientUnits="userSpaceOnUse">
<stop stop-color="#E3CE48"/>
<stop offset="1" stop-color="#E3D893"/>
</linearGradient>
<linearGradient id="paint104_linear_9_5" x1="178.908" y1="60.759" x2="161.691" y2="96.967" gradientUnits="userSpaceOnUse">
<stop offset="1.2e-07" stop-color="#DEBA35"/>
<stop offset="1" stop-color="#C98B5B"/>
</linearGradient>
<linearGradient id="paint105_linear_9_5" x1="214.405" y1="51.7657" x2="235.855" y2="118.408" gradientUnits="userSpaceOnUse">
<stop stop-color="#D5E7FB"/>
<stop offset="0.2449" stop-color="#D1E5FB"/>
<stop offset="0.5124" stop-color="#C3DEFB"/>
<stop offset="0.7896" stop-color="#AED4FC"/>
<stop offset="1" stop-color="#98C9FC"/>
</linearGradient>
<linearGradient id="paint106_linear_9_5" x1="200.762" y1="56.1571" x2="222.212" y2="122.799" gradientUnits="userSpaceOnUse">
<stop stop-color="#D5E7FB"/>
<stop offset="0.2449" stop-color="#D1E5FB"/>
<stop offset="0.5124" stop-color="#C3DEFB"/>
<stop offset="0.7896" stop-color="#AED4FC"/>
<stop offset="1" stop-color="#98C9FC"/>
</linearGradient>
<linearGradient id="paint107_linear_9_5" x1="153.683" y1="95.8942" x2="178.908" y2="41.2695" gradientUnits="userSpaceOnUse">
<stop stop-color="#72B2F9"/>
<stop offset="1" stop-color="#9BC8F9"/>
</linearGradient>
<linearGradient id="paint108_linear_9_5" x1="133.348" y1="102.155" x2="152.397" y2="47.6171" gradientUnits="userSpaceOnUse">
<stop stop-color="#5A84F0"/>
<stop offset="1" stop-color="#89A6F0"/>
</linearGradient>
<linearGradient id="paint109_linear_9_5" x1="141.1" y1="98.1466" x2="160.902" y2="55.2643" gradientUnits="userSpaceOnUse">
<stop stop-color="#E3CE48"/>
<stop offset="1" stop-color="#E3D893"/>
</linearGradient>
<linearGradient id="paint110_linear_9_5" x1="142.136" y1="56.3404" x2="122.305" y2="109.573" gradientUnits="userSpaceOnUse">
<stop offset="1.2e-07" stop-color="#DEBA35"/>
<stop offset="1" stop-color="#C98B5B"/>
</linearGradient>
<linearGradient id="paint111_linear_9_5" x1="159.966" y1="65.4897" x2="163.684" y2="57.4397" gradientUnits="userSpaceOnUse">
<stop stop-color="#D5E7FB"/>
<stop offset="0.2449" stop-color="#D1E5FB"/>
<stop offset="0.5124" stop-color="#C3DEFB"/>
<stop offset="0.7896" stop-color="#AED4FC"/>
<stop offset="1" stop-color="#98C9FC"/>
</linearGradient>
<linearGradient id="paint112_linear_9_5" x1="159.966" y1="72.7961" x2="163.684" y2="64.7461" gradientUnits="userSpaceOnUse">
<stop stop-color="#D5E7FB"/>
<stop offset="0.2449" stop-color="#D1E5FB"/>
<stop offset="0.5124" stop-color="#C3DEFB"/>
<stop offset="0.7896" stop-color="#AED4FC"/>
<stop offset="1" stop-color="#98C9FC"/>
</linearGradient>
<linearGradient id="paint113_linear_9_5" x1="116.134" y1="101.524" x2="130.685" y2="61.8863" gradientUnits="userSpaceOnUse">
<stop stop-color="#CE598C"/>
<stop offset="0.9854" stop-color="#E08FB5"/>
</linearGradient>
<linearGradient id="paint114_linear_9_5" x1="98.0896" y1="95.5725" x2="114.944" y2="62.1887" gradientUnits="userSpaceOnUse">
<stop stop-color="#BB3973"/>
<stop offset="0.9854" stop-color="#CA6996"/>
</linearGradient>
<linearGradient id="paint115_linear_9_5" x1="129.492" y1="66.1251" x2="120.857" y2="88.2714" gradientUnits="userSpaceOnUse">
<stop stop-color="#D5E7FB"/>
<stop offset="0.2449" stop-color="#D1E5FB"/>
<stop offset="0.5124" stop-color="#C3DEFB"/>
<stop offset="0.7896" stop-color="#AED4FC"/>
<stop offset="1" stop-color="#98C9FC"/>
</linearGradient>
<linearGradient id="paint116_linear_9_5" x1="122.488" y1="59.7495" x2="140.802" y2="116.648" gradientUnits="userSpaceOnUse">
<stop stop-color="#D5E7FB"/>
<stop offset="0.2449" stop-color="#D1E5FB"/>
<stop offset="0.5124" stop-color="#C3DEFB"/>
<stop offset="0.7896" stop-color="#AED4FC"/>
<stop offset="1" stop-color="#98C9FC"/>
</linearGradient>
<linearGradient id="paint117_linear_9_5" x1="110.839" y1="63.4998" x2="129.153" y2="120.397" gradientUnits="userSpaceOnUse">
<stop stop-color="#D5E7FB"/>
<stop offset="0.2449" stop-color="#D1E5FB"/>
<stop offset="0.5124" stop-color="#C3DEFB"/>
<stop offset="0.7896" stop-color="#AED4FC"/>
<stop offset="1" stop-color="#98C9FC"/>
</linearGradient>
<linearGradient id="paint118_linear_9_5" x1="149.52" y1="68.3152" x2="143.083" y2="110.588" gradientUnits="userSpaceOnUse">
<stop stop-color="#D5E7FB"/>
<stop offset="0.2449" stop-color="#D1E5FB"/>
<stop offset="0.5124" stop-color="#C3DEFB"/>
<stop offset="0.7896" stop-color="#AED4FC"/>
<stop offset="1" stop-color="#98C9FC"/>
</linearGradient>
<linearGradient id="paint119_linear_9_5" x1="210.948" y1="41.1002" x2="139.713" y2="138.92" gradientUnits="userSpaceOnUse">
<stop stop-color="white"/>
<stop offset="0.2836" stop-color="#FAFCFF"/>
<stop offset="0.6369" stop-color="#EAF5FE"/>
<stop offset="1" stop-color="#D3E9FD"/>
</linearGradient>
<linearGradient id="paint120_linear_9_5" x1="198.994" y1="81.9265" x2="121.565" y2="150.866" gradientUnits="userSpaceOnUse">
<stop stop-color="#72B2F9"/>
<stop offset="1" stop-color="#9BC8F9"/>
</linearGradient>
<linearGradient id="paint121_linear_9_5" x1="110.566" y1="92.3458" x2="91.5119" y2="118.512" gradientUnits="userSpaceOnUse">
<stop stop-color="#72B2F9"/>
<stop offset="1" stop-color="#9BC8F9"/>
</linearGradient>
<linearGradient id="paint122_linear_9_5" x1="186.239" y1="147.769" x2="165.856" y2="191.655" gradientUnits="userSpaceOnUse">
<stop stop-color="#E3CE48"/>
<stop offset="1" stop-color="#E3D893"/>
</linearGradient>
<linearGradient id="paint123_linear_9_5" x1="168.069" y1="147.374" x2="148.284" y2="188.984" gradientUnits="userSpaceOnUse">
<stop offset="1.2e-07" stop-color="#DEBA35"/>
<stop offset="1" stop-color="#C98B5B"/>
</linearGradient>
<linearGradient id="paint124_linear_9_5" x1="151.888" y1="195.135" x2="168.931" y2="148.71" gradientUnits="userSpaceOnUse">
<stop stop-color="#72B2F9"/>
<stop offset="1" stop-color="#9BC8F9"/>
</linearGradient>
<linearGradient id="paint125_linear_9_5" x1="130.754" y1="188.164" x2="150.494" y2="149.064" gradientUnits="userSpaceOnUse">
<stop stop-color="#5A84F0"/>
<stop offset="1" stop-color="#89A6F0"/>
</linearGradient>
<linearGradient id="paint126_linear_9_5" x1="167.534" y1="153.674" x2="157.42" y2="179.613" gradientUnits="userSpaceOnUse">
<stop stop-color="#D5E7FB"/>
<stop offset="0.2449" stop-color="#D1E5FB"/>
<stop offset="0.5124" stop-color="#C3DEFB"/>
<stop offset="0.7896" stop-color="#AED4FC"/>
<stop offset="1" stop-color="#98C9FC"/>
</linearGradient>
<linearGradient id="paint127_linear_9_5" x1="137.547" y1="207.03" x2="149.724" y2="149.274" gradientUnits="userSpaceOnUse">
<stop stop-color="#CE598C"/>
<stop offset="0.9854" stop-color="#E08FB5"/>
</linearGradient>
<linearGradient id="paint128_linear_9_5" x1="154.024" y1="154.882" x2="137.812" y2="189.787" gradientUnits="userSpaceOnUse">
<stop stop-color="#D5E7FB"/>
<stop offset="0.2449" stop-color="#D1E5FB"/>
<stop offset="0.5124" stop-color="#C3DEFB"/>
<stop offset="0.7896" stop-color="#AED4FC"/>
<stop offset="1" stop-color="#98C9FC"/>
</linearGradient>
<linearGradient id="paint129_linear_9_5" x1="136.696" y1="149.816" x2="117.55" y2="190.081" gradientUnits="userSpaceOnUse">
<stop stop-color="#D18945"/>
<stop offset="0.2836" stop-color="#D08643"/>
<stop offset="0.5324" stop-color="#CE7B3C"/>
<stop offset="0.7674" stop-color="#CB6931"/>
<stop offset="0.994" stop-color="#C65021"/>
<stop offset="1" stop-color="#C64F21"/>
</linearGradient>
<linearGradient id="paint130_linear_9_5" x1="118.222" y1="195.823" x2="136.14" y2="135.98" gradientUnits="userSpaceOnUse">
<stop stop-color="#BB3973"/>
<stop offset="0.9854" stop-color="#CA6996"/>
</linearGradient>
<linearGradient id="paint131_linear_9_5" x1="141.779" y1="156.162" x2="124.505" y2="193.354" gradientUnits="userSpaceOnUse">
<stop stop-color="#E3CE48"/>
<stop offset="1" stop-color="#E3D893"/>
</linearGradient>
<linearGradient id="paint132_linear_9_5" x1="123.833" y1="155.2" x2="106.616" y2="191.408" gradientUnits="userSpaceOnUse">
<stop offset="1.2e-07" stop-color="#DEBA35"/>
<stop offset="1" stop-color="#C98B5B"/>
</linearGradient>
<linearGradient id="paint133_linear_9_5" x1="159.33" y1="146.207" x2="180.78" y2="212.849" gradientUnits="userSpaceOnUse">
<stop stop-color="#D5E7FB"/>
<stop offset="0.2449" stop-color="#D1E5FB"/>
<stop offset="0.5124" stop-color="#C3DEFB"/>
<stop offset="0.7896" stop-color="#AED4FC"/>
<stop offset="1" stop-color="#98C9FC"/>
</linearGradient>
<linearGradient id="paint134_linear_9_5" x1="145.686" y1="150.598" x2="167.137" y2="217.241" gradientUnits="userSpaceOnUse">
<stop stop-color="#D5E7FB"/>
<stop offset="0.2449" stop-color="#D1E5FB"/>
<stop offset="0.5124" stop-color="#C3DEFB"/>
<stop offset="0.7896" stop-color="#AED4FC"/>
<stop offset="1" stop-color="#98C9FC"/>
</linearGradient>
<linearGradient id="paint135_linear_9_5" x1="98.6081" y1="190.335" x2="123.833" y2="135.711" gradientUnits="userSpaceOnUse">
<stop stop-color="#72B2F9"/>
<stop offset="1" stop-color="#9BC8F9"/>
</linearGradient>
<linearGradient id="paint136_linear_9_5" x1="78.2728" y1="196.596" x2="97.3218" y2="142.058" gradientUnits="userSpaceOnUse">
<stop stop-color="#5A84F0"/>
<stop offset="1" stop-color="#89A6F0"/>
</linearGradient>
<linearGradient id="paint137_linear_9_5" x1="86.0253" y1="192.588" x2="105.828" y2="149.705" gradientUnits="userSpaceOnUse">
<stop stop-color="#E3CE48"/>
<stop offset="1" stop-color="#E3D893"/>
</linearGradient>
<linearGradient id="paint138_linear_9_5" x1="87.0614" y1="150.782" x2="67.2296" y2="204.014" gradientUnits="userSpaceOnUse">
<stop offset="1.2e-07" stop-color="#DEBA35"/>
<stop offset="1" stop-color="#C98B5B"/>
</linearGradient>
<linearGradient id="paint139_linear_9_5" x1="104.891" y1="159.931" x2="108.609" y2="151.881" gradientUnits="userSpaceOnUse">
<stop stop-color="#D5E7FB"/>
<stop offset="0.2449" stop-color="#D1E5FB"/>
<stop offset="0.5124" stop-color="#C3DEFB"/>
<stop offset="0.7896" stop-color="#AED4FC"/>
<stop offset="1" stop-color="#98C9FC"/>
</linearGradient>
<linearGradient id="paint140_linear_9_5" x1="104.891" y1="167.237" x2="108.609" y2="159.187" gradientUnits="userSpaceOnUse">
<stop stop-color="#D5E7FB"/>
<stop offset="0.2449" stop-color="#D1E5FB"/>
<stop offset="0.5124" stop-color="#C3DEFB"/>
<stop offset="0.7896" stop-color="#AED4FC"/>
<stop offset="1" stop-color="#98C9FC"/>
</linearGradient>
<linearGradient id="paint141_linear_9_5" x1="61.0593" y1="195.966" x2="75.6098" y2="156.328" gradientUnits="userSpaceOnUse">
<stop stop-color="#CE598C"/>
<stop offset="0.9854" stop-color="#E08FB5"/>
</linearGradient>
<linearGradient id="paint142_linear_9_5" x1="43.0146" y1="190.014" x2="59.8686" y2="156.63" gradientUnits="userSpaceOnUse">
<stop stop-color="#BB3973"/>
<stop offset="0.9854" stop-color="#CA6996"/>
</linearGradient>
<linearGradient id="paint143_linear_9_5" x1="74.4174" y1="160.566" x2="65.7824" y2="182.713" gradientUnits="userSpaceOnUse">
<stop stop-color="#D5E7FB"/>
<stop offset="0.2449" stop-color="#D1E5FB"/>
<stop offset="0.5124" stop-color="#C3DEFB"/>
<stop offset="0.7896" stop-color="#AED4FC"/>
<stop offset="1" stop-color="#98C9FC"/>
</linearGradient>
<linearGradient id="paint144_linear_9_5" x1="67.4131" y1="154.191" x2="85.7264" y2="211.088" gradientUnits="userSpaceOnUse">
<stop stop-color="#D5E7FB"/>
<stop offset="0.2449" stop-color="#D1E5FB"/>
<stop offset="0.5124" stop-color="#C3DEFB"/>
<stop offset="0.7896" stop-color="#AED4FC"/>
<stop offset="1" stop-color="#98C9FC"/>
</linearGradient>
<linearGradient id="paint145_linear_9_5" x1="55.7636" y1="157.94" x2="74.078" y2="214.839" gradientUnits="userSpaceOnUse">
<stop stop-color="#D5E7FB"/>
<stop offset="0.2449" stop-color="#D1E5FB"/>
<stop offset="0.5124" stop-color="#C3DEFB"/>
<stop offset="0.7896" stop-color="#AED4FC"/>
<stop offset="1" stop-color="#98C9FC"/>
</linearGradient>
<linearGradient id="paint146_linear_9_5" x1="94.4451" y1="162.756" x2="88.0084" y2="205.03" gradientUnits="userSpaceOnUse">
<stop stop-color="#D5E7FB"/>
<stop offset="0.2449" stop-color="#D1E5FB"/>
<stop offset="0.5124" stop-color="#C3DEFB"/>
<stop offset="0.7896" stop-color="#AED4FC"/>
<stop offset="1" stop-color="#98C9FC"/>
</linearGradient>
<linearGradient id="paint147_linear_9_5" x1="155.873" y1="135.541" x2="84.6379" y2="233.361" gradientUnits="userSpaceOnUse">
<stop stop-color="white"/>
<stop offset="0.2836" stop-color="#FAFCFF"/>
<stop offset="0.6369" stop-color="#EAF5FE"/>
<stop offset="1" stop-color="#D3E9FD"/>
</linearGradient>
<linearGradient id="paint148_linear_9_5" x1="143.919" y1="176.368" x2="66.4907" y2="245.308" gradientUnits="userSpaceOnUse">
<stop stop-color="#72B2F9"/>
<stop offset="1" stop-color="#9BC8F9"/>
</linearGradient>
<linearGradient id="paint149_linear_9_5" x1="55.4914" y1="186.787" x2="36.4369" y2="212.953" gradientUnits="userSpaceOnUse">
<stop stop-color="#72B2F9"/>
<stop offset="1" stop-color="#9BC8F9"/>
</linearGradient>
<linearGradient id="paint150_linear_9_5" x1="230.368" y1="210.76" x2="230.368" y2="224.317" gradientUnits="userSpaceOnUse">
<stop stop-color="white"/>
<stop offset="0.2836" stop-color="#FAFCFF"/>
<stop offset="0.6369" stop-color="#EAF5FE"/>
<stop offset="1" stop-color="#D3E9FD"/>
</linearGradient>
<linearGradient id="paint151_linear_9_5" x1="240.307" y1="201.631" x2="245.075" y2="236.757" gradientUnits="userSpaceOnUse">
<stop stop-color="white"/>
<stop offset="0.2836" stop-color="#FAFCFF"/>
<stop offset="0.6369" stop-color="#EAF5FE"/>
<stop offset="1" stop-color="#D3E9FD"/>
</linearGradient>
</defs>
</svg>
