<svg width="388" height="352" viewBox="0 0 388 352" fill="none" xmlns="http://www.w3.org/2000/svg">
<path d="M18.9186 306.044H34.3167L34.3167 187.525H18.9186L18.9186 306.044Z" fill="#F0F0F0"/>
<path d="M169.102 187.525H34.3162V306.044H169.102V187.525Z" fill="#F5F5F5"/>
<path d="M170.333 232.25H51.9922V295.639H170.333V232.25Z" fill="#FAFAFA"/>
<path d="M170.333 204.656H51.9922V225.525H170.333V204.656Z" fill="#FAFAFA"/>
<path opacity="0.7" d="M50.9355 295.64H51.9915L51.9915 232.251H50.9355L50.9355 295.64Z" fill="#E6E6E6"/>
<path opacity="0.7" d="M50.9355 225.524H51.9915V204.655H50.9355V225.524Z" fill="#E6E6E6"/>
<path opacity="0.7" d="M18.9184 195.206L169.443 195.206V192.526L18.9184 192.526V195.206Z" fill="#E6E6E6"/>
<path d="M17.1197 193.655H34.3167V185.904H17.1197V193.655Z" fill="#F0F0F0"/>
<path d="M170.901 185.904H34.3162V193.655H170.901V185.904Z" fill="#F5F5F5"/>
<path d="M74.7381 163.148C73.8471 161.982 73.4291 160.473 73.2851 158.983C73.1591 157.484 73.2871 155.939 73.6751 154.481C74.4381 151.553 75.9141 148.851 77.7801 146.579C78.6951 145.422 79.7361 144.389 80.7731 143.364C81.3271 142.893 81.8731 142.415 82.4371 141.959C82.9981 141.5 83.5451 141.025 84.1561 140.639C85.3641 139.849 86.5421 139.022 87.8211 138.363C89.1171 137.729 90.4001 137.09 91.7541 136.589C90.8101 137.707 89.7951 138.689 88.7941 139.675C87.7881 140.653 86.8491 141.686 85.8481 142.633C84.8611 143.596 83.9721 144.636 83.0051 145.593C82.5421 146.089 82.1201 146.614 81.6761 147.121C81.2391 147.631 80.7501 148.106 80.3761 148.656C78.6731 150.724 77.2401 152.937 76.1451 155.31C75.5821 156.497 75.1941 157.746 74.9081 159.048C74.6141 160.359 74.5391 161.718 74.7381 163.148Z" fill="#E6E6E6"/>
<path d="M51.3662 158.958C51.8032 157.692 52.0342 156.451 52.0192 155.246C52.0592 154.65 51.9342 154.062 51.8862 153.496C51.7252 152.935 51.6502 152.378 51.4212 151.855C50.6132 149.746 49.1622 147.934 47.4322 146.289C47.0102 145.87 46.5102 145.51 46.0562 145.113C45.5962 144.717 45.1582 144.299 44.6342 143.96C43.6102 143.265 42.6812 142.432 41.5922 141.78C41.0642 141.434 40.5392 141.077 40.0152 140.71C39.4962 140.336 38.9712 139.962 38.4172 139.632C37.3372 138.918 36.2442 138.211 35.1902 137.354C36.5152 137.522 37.8012 137.838 39.0992 138.148C39.7512 138.296 40.3782 138.512 40.9972 138.757C41.6202 138.992 42.2412 139.237 42.8592 139.493L43.7862 139.881C44.0882 140.026 44.3772 140.202 44.6742 140.361C45.2682 140.683 45.8482 141.031 46.4352 141.37C47.0342 141.686 47.5612 142.139 48.1122 142.551C48.6452 142.99 49.2062 143.385 49.7112 143.868C51.7232 145.772 53.4472 148.301 53.9492 151.229C54.0492 151.58 54.0382 151.958 54.0532 152.325C54.0592 152.693 54.0882 153.056 54.0592 153.419C53.9532 154.146 53.8792 154.862 53.6152 155.533C53.1512 156.874 52.4142 158.102 51.3662 158.958Z" fill="#E6E6E6"/>
<path d="M52.4363 158.959C52.9873 156.158 53.0313 153.463 52.6253 150.901C52.2333 148.34 51.3373 145.95 50.0953 143.717L49.1003 142.067C48.7313 141.536 48.3143 141.034 47.9343 140.504L47.3583 139.709L46.6913 138.976C46.2463 138.486 45.8103 137.983 45.3753 137.471C44.4343 136.518 43.4503 135.582 42.4913 134.581C41.4643 133.664 40.4183 132.746 39.4253 131.681C40.7873 132.103 42.0983 132.672 43.4263 133.241C44.6753 133.933 45.9213 134.678 47.1103 135.512C47.6733 135.972 48.2353 136.441 48.7873 136.923L49.6163 137.648L50.3533 138.478C50.8393 139.038 51.3293 139.596 51.7903 140.181L52.9923 142.085C54.4593 144.708 55.3073 147.745 55.2263 150.752C55.1553 153.742 54.2583 156.712 52.4363 158.959Z" fill="#E6E6E6"/>
<path d="M73.4621 160.436C71.4001 157.969 69.8191 155.186 68.4291 152.322C67.0661 149.443 65.9641 146.435 65.1401 143.339C64.3491 140.234 63.8621 137.035 63.7551 133.814C63.7361 130.589 64.0991 127.325 65.2081 124.312C65.4841 127.516 65.8361 130.541 66.3581 133.559C66.9341 136.568 67.6091 139.534 68.3591 142.502C69.1441 145.462 69.9871 148.416 70.8621 151.387C71.7281 154.366 72.6371 157.343 73.4621 160.436Z" fill="#E6E6E6"/>
<path d="M72.4231 159.94C69.9841 157.679 67.9561 155.069 66.0861 152.362C64.2421 149.636 62.6041 146.766 61.2161 143.766C59.8501 140.757 58.7141 137.626 57.9461 134.389C57.2381 131.141 56.8441 127.78 57.2301 124.478C58.2351 127.648 59.2751 130.644 60.4431 133.612C61.6341 136.569 62.9241 139.471 64.2371 142.376C65.5731 145.272 66.9601 148.154 68.3451 151.062C69.7241 153.976 71.1251 156.89 72.4231 159.94Z" fill="#E6E6E6"/>
<path d="M76.4912 163.746C73.6092 162.086 71.0492 159.995 68.6222 157.775C66.2162 155.53 63.9782 153.098 61.9552 150.484C59.9512 147.856 58.1442 145.058 56.6732 142.074C55.2582 139.066 54.1232 135.878 53.7622 132.573C55.4502 135.438 57.1332 138.126 58.9342 140.758C60.7562 143.374 62.6612 145.915 64.5892 148.454C66.5382 150.979 68.5342 153.479 70.5332 156.003C72.5282 158.535 74.5442 161.063 76.4912 163.746Z" fill="#E6E6E6"/>
<path d="M70.3733 159.39C67.5943 158.071 65.1263 156.249 62.8123 154.269C60.5163 152.265 58.4203 150.024 56.5503 147.596C54.6763 145.171 53.1063 142.496 51.8403 139.693C50.6123 136.871 49.7893 133.846 49.6023 130.791C51.1333 133.463 52.5283 136.014 54.1453 138.456C55.7663 140.886 57.4163 143.267 59.1953 145.578C60.9713 147.889 62.7993 150.17 64.6773 152.446C66.5493 154.734 68.4673 156.994 70.3733 159.39Z" fill="#E6E6E6"/>
<path d="M75.2602 162.175C73.0092 160.732 71.5912 158.077 71.1402 155.309C70.7012 152.505 71.2982 149.618 72.4432 147.145L72.8601 146.202L73.3711 145.323L74.4421 143.599C74.8511 143.068 75.2712 142.55 75.7022 142.04C76.1402 141.54 76.5322 140.995 77.0312 140.559C78.0092 139.668 78.9512 138.748 80.0162 137.983C81.1112 137.249 82.1912 136.515 83.3572 135.909C82.6852 137.066 81.9271 138.096 81.1841 139.125C80.4461 140.156 79.7872 141.226 79.0532 142.219C78.3672 143.246 77.7592 144.304 77.0922 145.312L76.2551 146.898L75.8212 147.678L75.4851 148.49C74.4981 150.62 73.8321 152.842 73.7421 155.142C73.6741 157.431 74.0792 159.827 75.2602 162.175Z" fill="#E6E6E6"/>
<path d="M73.4052 158.981C71.3852 157.091 69.9882 154.58 69.1692 151.862C68.3632 149.138 68.2612 146.101 69.0462 143.255C69.4322 141.835 70.0202 140.467 70.8022 139.237C71.5692 137.999 72.4892 136.872 73.5392 135.914C75.6232 133.979 78.0722 132.567 80.7122 131.794C78.7852 133.754 76.9672 135.629 75.4882 137.659C74.7402 138.665 74.0872 139.708 73.5492 140.791C72.9922 141.863 72.5592 142.982 72.2552 144.132C71.6232 146.426 71.4712 148.86 71.7262 151.352C71.9792 153.846 72.5652 156.377 73.4052 158.981Z" fill="#E6E6E6"/>
<path d="M68.5161 156.615L52.8721 141.595L53.5011 156.324L68.5161 156.615Z" fill="#E6E6E6"/>
<path d="M85.6191 155.02H44.0471L49.4911 185.904H80.1751L85.6191 155.02Z" fill="#F5F5F5"/>
<path d="M59.6481 155.02H44.0471L49.4911 185.904H57.6851L59.6481 155.02Z" fill="#EBEBEB"/>
<path d="M128.744 0.47168H44.8301V105.953H128.744V0.47168Z" fill="#F0F0F0"/>
<path d="M147.268 0.47168H48.0452V105.953H147.268V0.47168Z" fill="#F5F5F5"/>
<path d="M56.3584 8.78462L56.3584 97.6406H138.956V8.78462H56.3584Z" fill="white"/>
<path d="M379.328 306.044H251.678L240.349 94.9917H367.999L379.328 306.044Z" fill="#EBEBEB"/>
<path d="M383.228 306.044H255.578L244.249 94.9917H371.899L383.228 306.044Z" fill="#F5F5F5"/>
<path d="M319.205 284.273H307.807L308.272 116.763H319.67L319.205 284.273Z" fill="white"/>
<path d="M349.358 284.273H337.961L338.426 116.763H349.823L349.358 284.273Z" fill="white"/>
<path d="M289.051 284.273H277.654L278.119 116.763H289.516L289.051 284.273Z" fill="white"/>
<path d="M193.889 351.207C300.971 351.207 387.778 346.137 387.778 339.884C387.778 333.63 300.971 328.561 193.889 328.561C86.8071 328.561 0 333.63 0 339.884C0 346.137 86.8071 351.207 193.889 351.207Z" fill="#F5F5F5"/>
<path d="M330.641 217.713L329.351 241.259L330.35 241.313L331.64 217.768L330.641 217.713Z" fill="#407BFF"/>
<path d="M331.737 197.748L331.072 209.877L332.071 209.932L332.735 197.802L331.737 197.748Z" fill="#407BFF"/>
<path d="M310.69 286.165H193.468C185.932 286.165 180.105 279.999 180.518 272.464L194.02 26.3465C194.434 18.8115 200.938 12.6455 208.473 12.6455H325.695C333.231 12.6455 339.058 18.8115 338.645 26.3465L325.143 272.464C324.73 279.999 318.226 286.165 310.69 286.165Z" fill="#407BFF"/>
<path opacity="0.8" d="M303.604 286.165H193.468C185.932 286.165 180.105 279.999 180.518 272.464L194.02 26.3465C194.434 18.8115 200.938 12.6455 208.473 12.6455H318.609C326.145 12.6455 331.972 18.8115 331.559 26.3465L318.057 272.464C317.643 279.999 311.139 286.165 303.604 286.165Z" fill="white"/>
<path d="M249.02 57.2624H217.393C214.211 57.2624 211.75 54.6594 211.925 51.4774C212.1 48.2954 214.846 45.6924 218.028 45.6924H249.655C252.837 45.6924 255.297 48.2964 255.123 51.4774C254.948 54.6584 252.202 57.2624 249.02 57.2624Z" fill="white"/>
<path d="M255.122 51.4765C254.806 57.2275 249.888 61.8905 244.137 61.8905C238.386 61.8905 233.979 57.2285 234.295 51.4765C234.61 45.7255 239.529 41.0625 245.28 41.0625C251.031 41.0635 255.438 45.7255 255.122 51.4765Z" fill="#407BFF"/>
<path d="M246.989 94.2717H215.363C212.181 94.2717 209.72 91.6687 209.895 88.4867C210.07 85.3047 212.816 82.7017 215.998 82.7017H247.625C250.807 82.7017 253.268 85.3047 253.093 88.4867C252.917 91.6687 250.171 94.2717 246.989 94.2717Z" fill="white"/>
<path d="M235.755 95.7548C239.992 91.633 240.263 85.0405 236.361 81.03C232.459 77.0195 225.862 77.1098 221.625 81.2316C217.389 85.3534 217.117 91.946 221.019 95.9564C224.921 99.9669 231.519 99.8766 235.755 95.7548Z" fill="#407BFF"/>
<path opacity="0.3" d="M235.755 95.7548C239.992 91.633 240.263 85.0405 236.361 81.03C232.459 77.0195 225.862 77.1098 221.625 81.2316C217.389 85.3534 217.117 91.946 221.019 95.9564C224.921 99.9669 231.519 99.8766 235.755 95.7548Z" fill="#FAFAFA"/>
<path d="M211.302 168.292H242.928C246.11 168.292 248.856 165.689 249.031 162.507C249.205 159.325 246.745 156.722 243.563 156.722H211.937C208.755 156.722 206.009 159.325 205.834 162.507C205.659 165.689 208.12 168.292 211.302 168.292Z" fill="white"/>
<path d="M223.319 169.781C227.556 165.659 227.828 159.066 223.926 155.055C220.024 151.044 213.426 151.134 209.189 155.256C204.952 159.377 204.68 165.97 208.582 169.981C212.484 173.992 219.082 173.903 223.319 169.781Z" fill="#407BFF"/>
<path opacity="0.7" d="M223.319 169.781C227.556 165.659 227.828 159.066 223.926 155.055C220.024 151.044 213.426 151.134 209.189 155.256C204.952 159.377 204.68 165.97 208.582 169.981C212.484 173.992 219.082 173.903 223.319 169.781Z" fill="#FAFAFA"/>
<path d="M240.898 205.301H209.271C206.089 205.301 203.628 202.698 203.803 199.516C203.978 196.334 206.724 193.731 209.906 193.731H241.532C244.714 193.731 247.174 196.334 247 199.516C246.826 202.698 244.08 205.301 240.898 205.301Z" fill="white"/>
<path d="M247.001 199.517C246.686 205.268 241.767 209.931 236.016 209.931C230.265 209.931 225.858 205.269 226.174 199.517C226.49 193.766 231.408 189.103 237.159 189.103C242.91 189.103 247.316 193.766 247.001 199.517Z" fill="#407BFF"/>
<path d="M213.332 131.281H244.958C248.14 131.281 250.886 128.678 251.061 125.496C251.235 122.314 248.775 119.711 245.593 119.711H213.966C210.784 119.711 208.038 122.314 207.863 125.496C207.69 128.678 210.15 131.281 213.332 131.281Z" fill="white"/>
<path d="M207.864 125.497C207.548 131.248 211.955 135.911 217.706 135.911C223.457 135.911 228.375 131.249 228.691 125.497C229.006 119.746 224.6 115.083 218.849 115.083C213.098 115.083 208.18 119.746 207.864 125.497Z" fill="#407BFF"/>
<path opacity="0.7" d="M207.864 125.497C207.548 131.248 211.955 135.911 217.706 135.911C223.457 135.911 228.375 131.249 228.691 125.497C229.006 119.746 224.6 115.083 218.849 115.083C213.098 115.083 208.18 119.746 207.864 125.497Z" fill="#FAFAFA"/>
<path d="M318.302 49.7413H271.423C270.15 49.7413 269.166 48.7003 269.236 47.4273C269.306 46.1543 270.404 45.1133 271.677 45.1133H318.556C319.829 45.1133 320.813 46.1543 320.743 47.4273C320.673 48.6993 319.575 49.7413 318.302 49.7413Z" fill="white"/>
<path d="M302.684 57.8404H270.979C269.706 57.8404 268.722 56.7994 268.792 55.5264C268.862 54.2534 269.96 53.2124 271.233 53.2124H302.938C304.211 53.2124 305.195 54.2534 305.125 55.5264C305.055 56.7994 303.957 57.8404 302.684 57.8404Z" fill="white"/>
<path d="M304.257 197.78H263.302C262.029 197.78 261.045 196.739 261.115 195.466C261.185 194.193 262.283 193.152 263.556 193.152H304.511C305.784 193.152 306.768 194.193 306.698 195.466C306.628 196.739 305.529 197.78 304.257 197.78Z" fill="white"/>
<path d="M283.095 205.88H262.858C261.585 205.88 260.601 204.839 260.671 203.566C260.741 202.293 261.839 201.252 263.112 201.252H283.349C284.622 201.252 285.606 202.293 285.536 203.566C285.466 204.838 284.367 205.88 283.095 205.88Z" fill="white"/>
<path d="M316.081 90.2227H269.202C267.929 90.2227 266.831 91.2637 266.761 92.5367C266.691 93.8097 267.675 94.8507 268.948 94.8507H315.827C317.1 94.8507 318.198 93.8097 318.268 92.5367C318.338 91.2637 317.354 90.2227 316.081 90.2227Z" fill="white"/>
<path d="M301.352 82.1226H269.647C268.374 82.1226 267.276 83.1636 267.206 84.4366C267.136 85.7096 268.12 86.7505 269.393 86.7505H301.098C302.371 86.7505 303.469 85.7096 303.539 84.4366C303.609 83.1646 302.625 82.1226 301.352 82.1226Z" fill="white"/>
<path d="M291.406 123.76H267.363C266.09 123.76 265.106 122.719 265.176 121.446C265.246 120.173 266.344 119.132 267.617 119.132H291.66C292.933 119.132 293.917 120.173 293.847 121.446C293.777 122.719 292.678 123.76 291.406 123.76Z" fill="white"/>
<path d="M314.241 123.76H300.079C298.806 123.76 297.822 122.719 297.892 121.446C297.962 120.173 299.06 119.132 300.333 119.132H314.495C315.768 119.132 316.752 120.173 316.682 121.446C316.612 122.719 315.514 123.76 314.241 123.76Z" fill="white"/>
<path d="M298.623 131.86H266.918C265.645 131.86 264.661 130.819 264.731 129.546C264.801 128.273 265.899 127.232 267.172 127.232H298.877C300.15 127.232 301.134 128.273 301.064 129.546C300.994 130.818 299.896 131.86 298.623 131.86Z" fill="white"/>
<path d="M258.886 238.341H204.91C203.13 238.341 201.753 236.884 201.85 235.104C201.948 233.324 203.484 231.867 205.265 231.867H259.241C261.021 231.867 262.398 233.324 262.3 235.104C262.203 236.885 260.667 238.341 258.886 238.341Z" fill="white"/>
<path d="M307.032 238.341H273.89C272.11 238.341 270.733 236.884 270.83 235.104C270.928 233.324 272.464 231.867 274.245 231.867H307.387C309.167 231.867 310.544 233.324 310.446 235.104C310.349 236.885 308.813 238.341 307.032 238.341Z" fill="white"/>
<path d="M245.384 249.671H204.289C202.509 249.671 201.132 248.214 201.23 246.434C201.328 244.654 202.864 243.197 204.645 243.197H245.74C247.52 243.197 248.897 244.654 248.8 246.434C248.701 248.214 247.165 249.671 245.384 249.671Z" fill="white"/>
<path d="M290.016 261H203.668C201.888 261 200.511 259.543 200.608 257.763C200.706 255.982 202.242 254.526 204.023 254.526H290.371C292.151 254.526 293.528 255.983 293.431 257.763C293.333 259.544 291.796 261 290.016 261Z" fill="white"/>
<path d="M279.019 164.242H265.142C263.869 164.242 262.771 165.283 262.701 166.556C262.631 167.829 263.615 168.87 264.888 168.87H278.765C280.038 168.87 281.136 167.829 281.206 166.556C281.276 165.284 280.292 164.242 279.019 164.242Z" fill="white"/>
<path d="M303.782 164.242H287.693C286.42 164.242 285.322 165.283 285.252 166.556C285.182 167.829 286.166 168.87 287.439 168.87H303.529C304.802 168.87 305.9 167.829 305.97 166.556C306.039 165.284 305.055 164.242 303.782 164.242Z" fill="white"/>
<path d="M297.291 156.143H265.586C264.313 156.143 263.215 157.184 263.145 158.457C263.075 159.73 264.059 160.771 265.332 160.771H297.037C298.31 160.771 299.408 159.73 299.478 158.457C299.548 157.184 298.564 156.143 297.291 156.143Z" fill="white"/>
<path d="M121.855 96.7726C118.587 99.4896 115.211 102.434 112.101 105.398C110.541 106.89 109.016 108.406 107.613 109.954C106.227 111.503 104.867 113.089 103.871 114.645L103.683 114.921L103.588 115.081C103.517 115.165 103.453 115.349 103.379 115.486C103.236 115.799 103.105 116.182 102.973 116.593C102.715 117.424 102.513 118.38 102.353 119.37C102.046 121.361 101.841 123.502 101.748 125.664C101.538 129.989 101.541 134.493 101.62 138.906L96.9439 139.608C95.7749 135.06 94.9599 130.535 94.5399 125.813C94.3559 123.454 94.2219 121.061 94.3729 118.549C94.4479 117.29 94.5729 116.003 94.8399 114.633C94.9749 113.945 95.1589 113.239 95.4109 112.493C95.5559 112.108 95.6649 111.751 95.8679 111.339L96.1529 110.74C96.2469 110.554 96.3179 110.442 96.4019 110.289C97.6699 107.921 99.1379 105.947 100.664 104.04C102.18 102.129 103.789 100.376 105.438 98.6786C108.755 95.2716 112.177 92.2236 115.957 89.2666L121.855 96.7726Z" fill="#B55B52"/>
<path d="M120.144 84.7814C115.022 87.8184 107.274 95.5814 107.274 95.5814L116.773 106.975C116.773 106.975 130.242 98.9004 131.877 94.4434C134.623 86.9544 124.982 81.9134 120.144 84.7814Z" fill="#407BFF"/>
<path d="M101.433 137.212L102.588 143.988L96.3009 143.078C96.3009 143.078 95.013 138.477 98.265 136.891L101.433 137.212Z" fill="#B55B52"/>
<path d="M100.273 148.108L94.6089 146.348L96.3009 143.079L102.588 143.988L100.273 148.108Z" fill="#B55B52"/>
<path d="M158.207 60.8698C158.216 61.5578 158.593 62.1208 159.047 62.1268C159.501 62.1328 159.863 61.5808 159.853 60.8928C159.843 60.2048 159.467 59.6418 159.013 59.6358C158.559 59.6288 158.198 60.1818 158.207 60.8698Z" fill="#263238"/>
<path d="M158.813 59.6708L160.477 59.2178C160.477 59.2178 159.638 60.4958 158.813 59.6708Z" fill="#263238"/>
<path d="M158.802 61.5464C158.802 61.5464 160.023 64.5254 161.342 65.9724C160.436 66.8074 158.869 66.3984 158.869 66.3984L158.802 61.5464Z" fill="#A02724"/>
<path d="M159.08 56.2926C159.016 56.3046 158.949 56.3006 158.883 56.2786C157.151 55.7136 155.959 56.5876 155.909 56.6246C155.73 56.7596 155.476 56.7246 155.341 56.5466C155.206 56.3686 155.239 56.1156 155.416 55.9786C155.479 55.9306 156.983 54.8046 159.135 55.5056C159.348 55.5756 159.465 55.8046 159.395 56.0176C159.346 56.1666 159.222 56.2676 159.08 56.2926Z" fill="#263238"/>
<path d="M137.834 68.2065C138.294 73.3745 136.564 81.8465 132.659 84.7295C132.659 84.7295 135.601 90.1685 145.024 91.4335C155.386 92.8245 150.518 86.9915 150.518 86.9915C145.005 84.8915 145.593 80.7465 146.994 76.9665L137.834 68.2065Z" fill="#B55B52"/>
<path d="M156.238 91.0116C161.172 92.3606 166.348 93.6486 171.433 94.7916C173.991 95.3496 176.554 95.8506 179.113 96.3456C181.674 96.7926 184.238 97.2466 186.793 97.5736L187.753 97.7046L188.406 97.7706C188.87 97.7896 189.376 97.7856 189.914 97.7516C190.994 97.6926 192.173 97.5186 193.366 97.2826C195.755 96.8016 198.236 96.1396 200.698 95.3596C205.629 93.8146 210.634 91.9586 215.516 90.0366L217.738 94.2096C213.104 97.2236 208.351 99.8546 203.267 102.138C200.714 103.248 198.108 104.309 195.291 105.113C193.883 105.52 192.428 105.879 190.843 106.113C190.048 106.222 189.217 106.297 188.339 106.322C187.898 106.323 187.399 106.309 186.985 106.291L185.945 106.218C180.387 105.854 174.927 105.076 169.54 104.038C164.127 103.006 158.871 101.784 153.505 100.155L156.238 91.0116Z" fill="#B55B52"/>
<path d="M214.259 91.7475L215.707 86.8325L221.035 88.8375C221.035 88.8375 219.814 96.2175 215.246 94.1795L214.259 91.7475Z" fill="#B55B52"/>
<path d="M218.795 83.5757L224.239 84.1887L221.035 88.8377L215.707 86.8327L218.795 83.5757Z" fill="#B55B52"/>
<path d="M122.531 330.519L131.103 331.15L133.648 311.467L125.077 310.835L122.531 330.519Z" fill="#B55B52"/>
<path d="M59.3328 292.367L65.1508 298.823L81.4068 287.587L75.5888 281.131L59.3328 292.367Z" fill="#B55B52"/>
<path d="M69.4598 302.484C69.3568 302.482 69.2538 302.465 69.1518 302.432C68.1118 302.096 67.4008 300.169 67.0698 299.05C67.0468 298.971 67.0728 298.887 67.1358 298.835C67.1998 298.783 67.2878 298.775 67.3598 298.813C67.6738 298.98 70.4278 300.476 70.5198 301.574C70.5408 301.818 70.4398 302.034 70.2288 302.197C69.9758 302.392 69.7178 302.488 69.4598 302.484ZM67.6118 299.418C68.1058 300.894 68.7148 301.863 69.2758 302.044C69.5058 302.118 69.7368 302.064 69.9788 301.875C70.1098 301.773 70.1198 301.679 70.1148 301.608C70.0668 301.029 68.6968 300.05 67.6118 299.418Z" fill="#407BFF"/>
<path d="M69.7869 299.81C68.8289 299.794 67.6718 299.482 67.1578 299.164C67.0968 299.126 67.0598 299.059 67.0618 298.987C67.0628 298.915 67.1018 298.85 67.1648 298.814C67.2538 298.764 69.3669 297.59 70.5369 297.995C70.8579 298.105 71.0869 298.318 71.2159 298.627C71.4169 299.109 71.2058 299.387 71.0608 299.51C70.7958 299.736 70.3219 299.819 69.7869 299.81ZM67.7078 298.989C68.6678 299.394 70.3468 299.585 70.7968 299.201C70.8718 299.137 70.9438 299.033 70.8398 298.784C70.7568 298.584 70.6138 298.452 70.4048 298.38C69.7028 298.137 68.4308 298.636 67.7078 298.989Z" fill="#407BFF"/>
<path d="M67.7589 297.876L62.9559 289.358C62.7809 289.048 62.4299 288.914 62.1119 289.036L55.0229 291.756C54.2879 292.038 53.9849 293.002 54.3999 293.71C56.1239 296.652 57.0999 297.987 59.2119 301.733C60.5109 304.038 62.5129 309.06 64.0509 312.374C65.5549 315.615 68.8519 314.388 68.4989 312.874C66.9199 306.087 67.5169 302.321 68.0199 299.398C68.1119 298.872 68.0149 298.329 67.7589 297.876Z" fill="#263238"/>
<path d="M134.824 331.429C133.879 331.429 132.857 331.267 132.131 331.122C132.046 331.105 131.982 331.036 131.97 330.951C131.957 330.865 132.001 330.782 132.077 330.742C132.471 330.54 135.947 328.79 136.974 329.375C137.174 329.488 137.287 329.675 137.303 329.916C137.329 330.321 137.197 330.653 136.91 330.903C136.463 331.298 135.676 331.429 134.824 331.429ZM132.812 330.834C134.703 331.148 136.113 331.065 136.645 330.598C136.834 330.433 136.916 330.219 136.899 329.943C136.892 329.838 136.856 329.774 136.777 329.729C136.21 329.411 134.237 330.158 132.812 330.834Z" fill="#407BFF"/>
<path d="M132.172 331.127C132.13 331.127 132.087 331.114 132.053 331.088C131.994 331.045 131.963 330.975 131.971 330.902C131.987 330.749 132.383 327.244 134.302 327.244C134.356 327.244 134.413 327.247 134.469 327.253C135.024 327.309 135.184 327.59 135.22 327.816C135.375 328.784 133.301 330.643 132.255 331.109C132.228 331.121 132.2 331.127 132.172 331.127ZM134.308 327.651C133.072 327.651 132.584 329.687 132.432 330.558C133.5 329.92 134.911 328.461 134.818 327.88C134.81 327.834 134.788 327.693 134.427 327.656C134.386 327.653 134.347 327.651 134.308 327.651Z" fill="#407BFF"/>
<path d="M131.638 329.931H122.003C121.652 329.931 121.362 330.174 121.304 330.517L120.01 338.14C119.876 338.931 120.537 339.679 121.346 339.665C124.707 339.607 126.33 339.41 130.567 339.41C133.174 339.41 138.558 339.681 142.158 339.681C145.679 339.681 146.041 336.122 144.55 335.799C137.866 334.354 135.272 332.36 133.057 330.458C132.658 330.115 132.15 329.931 131.638 329.931Z" fill="#263238"/>
<path opacity="0.2" d="M133.646 311.473L132.233 322.413L123.759 320.994L125.071 310.841L133.646 311.473Z" fill="black"/>
<path opacity="0.2" d="M75.583 281.133L81.403 287.592L74.676 292.238L68.647 285.923L75.583 281.133Z" fill="black"/>
<path d="M118.209 136.374C124.919 137.272 139.153 139.185 152.92 141.037C166.373 92.3465 162.402 91.0265 162.402 91.0265C162.402 91.0265 158.847 89.3085 154.403 87.8615C154.233 87.8055 154.075 87.7595 153.927 87.7135C151.687 87.0405 151.216 86.9465 148.226 86.2625C143.102 85.3605 138.337 84.6585 132.465 84.1515C132.088 84.1185 131.71 84.0855 131.345 84.0625C130.281 83.9925 129.231 83.9425 128.214 83.9025C127.528 83.8655 126.844 83.8605 126.194 83.8545C125.423 83.8555 124.674 83.8545 123.97 83.8625C123.57 83.8655 123.182 83.8715 122.809 83.8785C119.978 83.9305 117.817 86.4255 118.143 89.2385C121.1 114.848 120.155 123.27 118.209 136.374Z" fill="#407BFF"/>
<path opacity="0.2" d="M153.923 102.05C154.159 104.307 159.382 108.439 161.185 107.324C161.711 104.62 162.09 102.363 162.355 100.481C159.708 100.29 154.577 97.3945 153.923 102.05Z" fill="black"/>
<path d="M148.257 90.6834C148.005 82.7164 167.397 91.4984 171.845 93.4814L166.922 106.858C166.922 106.858 160.433 106.632 156.299 104.247C151.993 101.763 148.441 96.4824 148.257 90.6834Z" fill="#407BFF"/>
<path d="M134.911 58.6578C135.552 67.1158 135.641 70.7048 140.014 75.1018C146.593 81.7168 156.936 79.3748 158.858 70.9678C160.588 63.4008 159.25 50.8398 150.843 47.3608C142.56 43.9328 134.27 50.1998 134.911 58.6578Z" fill="#B55B52"/>
<path d="M135.627 49.7136C127.128 47.5886 126.863 54.7596 127.04 58.4776C127.217 62.1956 120.973 64.0396 120.973 68.7466C120.973 74.8846 125.604 78.5496 114.341 80.4056C104.806 81.9776 101.869 93.8886 115.971 100.853C131.576 108.559 155.131 97.7176 152.266 87.4056C147.844 71.4906 155.76 71.5466 154.87 62.6636C154.222 56.2006 160.335 55.8796 158.14 50.4956C155.257 43.4296 134.876 37.2316 135.627 49.7136Z" fill="#263238"/>
<path d="M125.787 61.6404C124.618 55.4894 125.258 51.4024 127.688 49.4914C130.817 47.0294 135.631 49.1664 135.834 49.2594L135.421 50.1704C135.376 50.1494 130.95 48.1914 128.303 50.2794C126.193 51.9424 125.676 55.7024 126.769 61.4534L125.787 61.6404Z" fill="#263238"/>
<path d="M116.176 78.6704C113.061 78.6704 109.968 77.4554 109.772 77.3774L110.143 76.4484C110.211 76.4764 116.954 79.1204 120.068 76.5384C121.588 75.2774 122.022 72.9114 121.356 69.5064L122.338 69.3154C123.08 73.1084 122.53 75.7974 120.706 77.3094C119.471 78.3314 117.82 78.6704 116.176 78.6704Z" fill="#263238"/>
<path d="M152.581 62.0585C152.442 63.5945 152.979 65.2815 153.749 66.5355C154.907 68.4225 156.481 68.0765 156.992 66.4725C157.453 65.0295 157.405 62.3085 155.843 60.9345C154.303 59.5805 152.74 60.3015 152.581 62.0585Z" fill="#B55B52"/>
<path d="M143.757 139.805C143.757 139.805 130.279 196.773 123.98 229.498C117.334 264.025 77.9799 292.191 77.9799 292.191L69.3369 283.3C69.3369 283.3 94.6809 261.122 101.189 228.885C114.401 163.444 105.457 150.263 118.209 136.377L143.757 139.805Z" fill="#263238"/>
<path d="M78.7158 293.474L67.9258 282.374L70.9628 279.114L83.4908 290.149L78.7158 293.474Z" fill="#407BFF"/>
<path opacity="0.2" d="M136.594 152.189C126.114 161.286 127.248 193.572 128.344 208.122C132.743 187.436 138.028 164.4 141.126 151.068C140.022 150.242 138.521 150.516 136.594 152.189Z" fill="black"/>
<path d="M152.404 141.066C152.404 141.066 158.468 208.695 155.16 234.493C151.719 261.326 134.209 319.708 134.209 319.708L121.846 318.112C121.846 318.112 131.889 260.26 133.675 233.693C135.621 204.731 126.985 137.655 126.985 137.655L152.404 141.066Z" fill="#263238"/>
<path d="M136.839 320.413L119.217 318.138L119.489 312.934L138.605 314.787L136.839 320.413Z" fill="#407BFF"/>
<path d="M117.906 134.284L116.013 137.158C115.866 137.381 116.126 137.663 116.527 137.717L152.931 142.603C153.244 142.645 153.519 142.528 153.56 142.335L154.201 139.293C154.245 139.082 153.993 138.865 153.651 138.819L118.499 134.101C118.24 134.067 118 134.141 117.906 134.284Z" fill="#407BFF"/>
<path opacity="0.3" d="M117.906 134.284L116.013 137.158C115.866 137.381 116.126 137.663 116.527 137.717L152.931 142.603C153.244 142.645 153.519 142.528 153.56 142.335L154.201 139.293C154.245 139.082 153.993 138.865 153.651 138.819L118.499 134.101C118.24 134.067 118 134.141 117.906 134.284Z" fill="black"/>
<path d="M122.213 138.821L121.272 138.695C121.085 138.67 120.952 138.555 120.977 138.439L121.844 134.491C121.869 134.375 122.043 134.302 122.231 134.327L123.172 134.453C123.36 134.478 123.492 134.593 123.467 134.709L122.6 138.657C122.574 138.772 122.4 138.846 122.213 138.821Z" fill="#263238"/>
<path d="M145.989 142.067L145.048 141.941C144.86 141.916 144.728 141.801 144.753 141.685L145.62 137.737C145.645 137.621 145.82 137.547 146.007 137.573L146.948 137.699C147.136 137.724 147.268 137.839 147.243 137.955L146.376 141.903C146.351 142.018 146.177 142.092 145.989 142.067Z" fill="#263238"/>
</svg>
